<svg width="58" height="69" viewBox="0 0 58 69" fill="none" xmlns="http://www.w3.org/2000/svg">
<path fill-rule="evenodd" clip-rule="evenodd" d="M27.0206 0.0701282C21.2653 0.61806 16.3298 3.4125 13.8718 7.51476C12.1804 10.3375 11.5652 14.1785 12.2052 17.9172C12.419 19.1656 12.4187 19.2739 12.1993 19.8062C11.8467 20.6617 11.7736 23.0062 12.0679 24.0186C12.566 25.7322 13.3862 26.7821 14.5842 27.2396C15.1459 27.4542 15.1995 27.5207 15.494 28.3718C16.4137 31.0287 18.01 33.6032 19.9273 35.5215C20.6162 36.2108 21.1798 36.8621 21.1798 36.9689C21.1798 37.3566 20.5114 38.9259 20.0487 39.6244C19.2187 40.8779 19.1473 40.9291 17.9195 41.1574C14.2561 41.8387 8.54377 43.7614 6.31562 45.0633C4.20363 46.2971 2.57765 47.7904 1.63385 49.3626C1.08281 50.2805 0.46499 52.0356 0.274205 53.2253C0.0974532 54.3271 0.0908423 57.4878 0.263142 58.5396C0.468633 59.7945 1.06352 60.895 2.16087 62.0502C3.33107 63.2822 4.43867 64.0422 6.49372 65.0238C10.902 67.1293 16.9807 68.4164 24.6879 68.8763C33.1397 69.3806 42.6394 68.3157 48.772 66.1765C50.3805 65.6153 52.7352 64.484 53.923 63.7014C55.2263 62.8428 56.7259 61.24 57.2263 60.1706C57.7754 58.9968 57.9255 57.8416 57.8393 55.4516C57.7489 52.9467 57.4482 51.6503 56.5112 49.7249C55.9171 48.5045 55.6693 48.1611 54.6599 47.1608C53.7182 46.2275 53.2352 45.872 52.1451 45.3096C49.136 43.7576 45.1756 42.324 41.1897 41.3439C39.6136 40.9564 38.8267 40.698 38.6084 40.496C38.1311 40.0548 37.3727 38.7332 37.0239 37.7352L36.712 36.8424L37.8277 35.7577C39.978 33.6672 41.605 31.0525 42.5595 28.1533C42.6896 27.7583 42.8959 27.4041 43.018 27.366C44.651 26.8566 45.6028 25.6466 46.0139 23.5568C46.2144 22.5376 46.1164 20.7466 45.812 19.8653C45.6117 19.2851 45.6096 19.1255 45.7903 18.1728C47.696 8.12692 40.9606 0.504318 29.7475 0.0164279C28.9313 -0.0191924 27.7041 0.00509419 27.0206 0.0701282ZM25.4299 2.29491C23.1961 2.70441 20.902 3.59802 19.3146 4.67702C18.4156 5.28809 16.7399 7.00799 16.1189 7.95718C14.7858 9.99429 14.1672 12.2614 14.1673 15.1089C14.1673 17.3964 14.1873 17.4667 14.797 17.3292C15.0585 17.2703 15.4712 17.2542 15.714 17.2936L16.1553 17.3653L16.5945 16.0346C17.114 14.4613 17.7497 13.0023 17.9798 12.8562C18.3049 12.6496 18.7603 12.7567 19.7925 13.2828C21.2989 14.0505 22.3169 14.279 23.8782 14.1995C25.3711 14.1234 26.2972 13.8409 29.0627 12.6174C31.6906 11.4547 32.9504 11.104 34.5374 11.0938C35.332 11.0885 36.1526 11.1722 36.6962 11.3137C37.8157 11.6052 39.6548 12.5105 40.095 12.9871C40.3022 13.2114 40.6877 14.0918 41.0829 15.2438C41.4394 16.2827 41.767 17.1711 41.8109 17.2181C41.8549 17.265 42.3257 17.3323 42.8573 17.3678L43.8239 17.4324L43.9139 16.0682C44.1155 13.0167 43.3326 10.0244 41.7174 7.67195C41.0272 6.66662 39.5779 5.25598 38.4705 4.51146C37.3286 3.74374 35.4867 2.96401 33.8131 2.5398C32.5945 2.23082 32.1239 2.18805 29.4777 2.14514C27.2733 2.10952 26.2315 2.14798 25.4299 2.29491ZM32.5468 13.4238C32.0085 13.5648 30.5906 14.1385 29.3958 14.6985C26.267 16.1651 25.6843 16.3258 23.541 16.312C21.9547 16.3018 21.6773 16.2621 20.6401 15.8969C20.0093 15.6748 19.3992 15.4504 19.2841 15.3982C19.1141 15.3209 18.9504 15.6748 18.4071 17.2946C18.0398 18.3897 17.6269 19.3994 17.4899 19.5381C17.2214 19.8096 16.87 19.7973 15.8252 19.4795C15.0424 19.2417 14.6354 19.4477 14.2627 20.2705C13.6914 21.5316 13.9838 24.1347 14.787 24.9378C15.0729 25.2237 15.2728 25.2958 15.7802 25.2958C16.214 25.2958 16.4833 25.3706 16.6292 25.5319C16.7467 25.6618 17.0825 26.4983 17.3756 27.3909C19.0303 32.4307 22.1058 35.7303 26.2666 36.9301C27.1157 37.1748 27.6446 37.2322 29.0055 37.2269C30.8999 37.2195 31.8384 37.0209 33.4141 36.2936C36.6932 34.7803 39.3402 31.5163 40.5959 27.438C41.2371 25.3553 41.226 25.3708 42.0977 25.3213C43.0064 25.2696 43.3313 24.9976 43.7255 23.958C44.0315 23.1515 44.1311 21.7 43.9418 20.8067C43.8022 20.1478 43.1158 19.359 42.682 19.359C42.5019 19.359 42.1364 19.4501 41.87 19.5614C41.2078 19.8382 40.8025 19.8154 40.4939 19.4843C40.1979 19.1665 40.0534 18.7949 39.2472 16.2791L38.671 14.4808L37.8717 14.0773C36.8469 13.5601 35.2431 13.1505 34.2797 13.1599C33.8649 13.164 33.0851 13.2827 32.5468 13.4238ZM22.8144 38.8447C22.4408 39.811 21.7044 41.0711 21.133 41.7218L20.7263 42.185L20.9869 42.6779C21.6458 43.9249 24.5447 46.5099 27.4904 48.4771L29.011 49.4927L30.5262 48.4681C33.5499 46.4234 36.3482 43.9237 37.0295 42.6587L37.2934 42.1687L36.9412 41.794C36.3546 41.17 35.5209 39.7735 35.1989 38.876L34.8951 38.0288L33.873 38.4704C32.0436 39.2608 31.3254 39.3954 28.938 39.3954C26.6007 39.3954 25.8034 39.2353 23.9435 38.3921L23.1316 38.0242L22.8144 38.8447ZM38.8353 43.5556C37.9393 45.3327 35.2223 47.8284 31.4678 50.3234L30.0849 51.2426V59.0678V66.8931L31.8726 66.7994C35.8969 66.5886 40.097 66.0731 43.6079 65.3593C49.8826 64.0835 53.9453 62.0298 55.1878 59.5056C55.989 57.8785 56.0217 54.2697 55.2558 52.0061C54.826 50.7355 54.3398 49.9421 53.3716 48.9307C52.3303 47.843 51.0613 47.0012 49.2565 46.2009C47.6802 45.502 44.6542 44.4128 44.5574 44.5095C44.5236 44.5434 44.5896 44.9851 44.7042 45.4914C44.8187 45.9975 45.0343 47.2478 45.1834 48.27C45.3325 49.2922 45.4862 50.18 45.525 50.2428C45.5639 50.3056 45.7639 50.3908 45.9695 50.4319C46.841 50.6065 47.8936 51.69 48.2772 52.8069C48.5522 53.6077 48.4736 55.0925 48.1155 55.8615C47.2434 57.7342 44.7381 58.6142 42.9196 57.6865C41.661 57.0443 40.8794 55.7804 40.7749 54.2185C40.7199 53.3969 40.7591 53.1489 41.042 52.5311C41.4275 51.689 42.0375 51.0344 42.7981 50.6463L43.3368 50.3715L43.2436 49.4709C43.1363 48.4353 42.5819 45.3799 42.3223 44.3943C42.1272 43.6534 42.2772 43.7301 39.9652 43.1909L39.1188 42.9935L38.8353 43.5556ZM18.4138 43.1715C18.3396 43.1958 17.6958 43.3451 16.9829 43.5032L15.6871 43.7909L15.3947 45.0337C14.6235 48.312 14.6161 48.6284 15.3105 48.637C16.1565 48.6477 17.8199 49.8384 18.4207 50.8636C19.0698 51.9713 19.6935 54.4702 19.6951 55.9699C19.6953 56.2834 19.8023 56.6241 19.9655 56.8314C20.1156 57.0224 20.2353 57.3788 20.2353 57.6353C20.2353 59.3904 18.1291 59.8894 17.3207 58.3257C17.0619 57.8253 17.0848 57.4196 17.4015 56.9004C17.6588 56.4782 17.662 56.4009 17.4793 55.0114C17.1413 52.4419 16.4179 51.1822 15.0616 50.8024C14.3022 50.5899 13.1655 50.6801 12.5261 51.0035C11.0206 51.765 10.5743 53.1211 10.9214 55.8791C11.0647 57.0176 11.1422 57.2631 11.4789 57.6467C11.8002 58.0126 11.87 58.2137 11.87 58.7753C11.87 59.3593 11.8117 59.5131 11.4684 59.8337C10.7811 60.4756 9.96103 60.4705 9.31055 59.82C8.83737 59.3468 8.68491 58.7406 8.90537 58.2086C9.03126 57.9046 9.03409 57.5762 8.91792 56.7953C8.83481 56.2356 8.76667 55.1188 8.76667 54.3133C8.76667 51.568 9.52846 50.135 11.5399 49.096C12.3797 48.6624 12.6205 48.4723 12.651 48.219C12.7054 47.7674 13.2029 45.1271 13.3031 44.7585C13.3837 44.4623 13.3456 44.4684 11.8152 44.9962C7.2435 46.5725 4.79515 48.1594 3.46735 50.4066C2.44704 52.1332 2.02486 54.4609 2.25235 57.1059C2.36056 58.3649 2.45122 58.7505 2.81053 59.4803C4.30995 62.526 9.56138 64.7495 18.2789 66.0298C20.5481 66.363 23.6999 66.6717 26.1383 66.7994L27.9261 66.8931V59.0708V51.2485L26.9187 50.6104C23.8056 48.6382 20.4098 45.6429 19.3669 43.9492C18.8812 43.1603 18.7569 43.0589 18.4138 43.1715ZM43.9147 52.4095C43.158 52.7226 42.6795 53.7453 42.9024 54.5729C43.4495 56.605 46.4108 56.2078 46.4108 54.1023C46.4108 52.8312 45.079 51.928 43.9147 52.4095Z" fill="#688AC5"/>
</svg>
