<svg width="90" height="69" viewBox="0 0 90 69" fill="none" xmlns="http://www.w3.org/2000/svg">
<path fill-rule="evenodd" clip-rule="evenodd" d="M65.5781 0.231573C62.2567 1.03592 59.3831 3.7292 58.2917 7.06053C57.6931 8.88809 57.696 11.353 58.2987 13.1938C58.8135 14.766 60.1293 16.7986 61.2715 17.7864C62.3399 18.7101 64.5374 19.8175 65.8388 20.0875C67.4339 20.4186 70.1406 20.2229 71.5756 19.6725C74.7843 18.4421 77.0342 15.9102 77.889 12.5684C78.5064 10.1543 78.2282 7.78782 77.0512 5.44301C75.8257 3.00157 73.2627 0.950392 70.5568 0.245505C69.3223 -0.075989 66.8766 -0.0828666 65.5781 0.231573ZM65.8925 2.22455C63.5686 2.85502 61.7733 4.36267 60.6568 6.62176C59.9907 7.96981 59.9847 8.00068 59.9847 10.1072C59.9847 12.1979 59.9954 12.2552 60.6434 13.6121C63.3345 19.2482 70.9292 19.9637 74.6346 14.9302C77.7864 10.6486 75.8927 4.33815 70.8876 2.44411C69.4752 1.90958 67.391 1.81805 65.8925 2.22455ZM29.3818 2.53952C28.2988 2.87336 27.1349 3.91155 26.6315 4.99225C26.2549 5.80101 26.2162 6.1255 26.2146 8.48512L26.2129 11.0863L23.6117 11.0902C21.3773 11.0936 20.8985 11.1447 20.2168 11.4533C16.751 13.0222 16.4989 17.6134 19.7677 19.6358C20.6166 20.161 20.6685 20.1695 23.4208 20.2282L26.2129 20.2878L26.2168 22.8735C26.2199 24.9945 26.2785 25.586 26.5421 26.1646C27.6736 28.6466 30.3964 29.6538 32.7981 28.4787C34.8369 27.4813 35.3833 26.2586 35.3833 22.6943V20.2568L37.72 20.2557C40.3806 20.2546 41.0127 20.1234 42.2003 19.3261C44.4639 17.8061 44.6997 14.0985 42.6471 12.2963C41.4515 11.2466 40.8637 11.0945 37.9845 11.0902L35.3833 11.0863V8.64878C35.3833 5.64829 35.1553 4.84552 33.9647 3.65478C32.7024 2.39244 31.1132 2.0057 29.3818 2.53952ZM29.3693 4.78521C28.2912 5.50526 28.1533 6.03168 28.1531 9.42773C28.1528 12.1242 28.1187 12.4734 27.8302 12.7344C27.5569 12.9818 27.0527 13.0262 24.5236 13.0266C22.0345 13.0268 21.4377 13.0779 20.9258 13.3352C19.0071 14.2992 19.0337 17.0916 20.9701 17.9705C21.6086 18.2604 22.1388 18.3096 24.6573 18.313C27.0924 18.3162 27.6463 18.3645 27.8757 18.5939C28.1059 18.8242 28.1528 19.3792 28.1528 21.8739C28.1528 24.2792 28.2097 24.997 28.439 25.4802C29.3545 27.4093 32.1527 27.3968 33.0907 25.4592C33.4011 24.8178 33.4434 24.3702 33.4434 21.7217C33.4434 19.5289 33.5032 18.663 33.664 18.5297C33.7919 18.4236 35.2161 18.322 37.0588 18.2878C40.5085 18.2236 40.8813 18.128 41.6439 17.1117C42.138 16.453 42.135 14.8247 41.6382 14.1593C40.8907 13.158 40.3563 13.0262 37.0447 13.0262C34.3453 13.0262 33.9963 12.9922 33.7353 12.7037C33.4891 12.4316 33.4429 11.9288 33.4395 9.48522C33.4351 6.17753 33.2226 5.38058 32.1751 4.74183C31.3668 4.2491 30.1435 4.26796 29.3693 4.78521ZM58.8615 20.1806C55.4069 22.1034 52.3861 25.4495 50.9153 28.9828C49.7699 31.7341 49.4706 33.3548 49.3632 37.3906L49.2661 41.0334L49.726 41.4933L50.1859 41.9533L68.1938 41.9067C85.7881 41.8612 86.2075 41.8522 86.4521 41.5178C86.7977 41.045 86.7905 35.9341 86.441 33.6152C85.5888 27.962 82.3145 23.1528 77.3392 20.2471C75.8784 19.394 75.4947 19.4154 74.8464 20.386C73.0984 23.0029 69.7834 24.4677 66.762 23.9581C64.4598 23.5697 62.9049 22.536 60.8358 20.018C60.6248 19.7614 60.3471 19.5522 60.2185 19.5533C60.09 19.5545 59.4793 19.8367 58.8615 20.1806ZM58.7363 22.5934C57.4977 23.4114 55.3947 25.4543 54.5163 26.693C53.4728 28.1643 52.5755 30.0188 52.0237 31.8453C51.6114 33.21 51.5458 33.7796 51.4742 36.6136L51.3929 39.8321H68.0776H84.7624V38.0616C84.7624 32.1949 83.2705 28.132 79.8448 24.6704C78.8218 23.6366 76.7062 22.0203 76.3763 22.0203C76.3119 22.0203 75.8412 22.445 75.3303 22.9641C74.2216 24.0909 72.749 25.0155 71.1832 25.5684C69.5417 26.148 66.6507 26.1546 64.9887 25.5826C63.4116 25.0398 61.9475 24.136 60.7732 22.98C60.2369 22.4522 59.7545 22.0203 59.7011 22.0203C59.6478 22.0203 59.2137 22.2783 58.7363 22.5934ZM7.87206 32.2418C0.492346 34.2445 0.839763 34.1284 0.713141 34.633C0.640483 34.9222 2.03897 40.425 4.86892 50.9856C10.1507 70.6956 9.58375 68.7381 10.0756 68.9622C10.4087 69.1139 11.6166 68.8441 16.6053 67.5034C21.7176 66.1294 22.7687 65.7935 22.9844 65.4644C23.218 65.1077 23.1824 64.8502 22.6068 62.7433C22.2571 61.4633 21.9975 60.3897 22.0298 60.3574C22.2608 60.1262 25.0974 59.7065 26.943 59.6303C29.6641 59.5179 31.9818 59.8615 34.5613 60.7593C36.8689 61.5626 37.9732 62.132 40.4676 63.8051C42.7866 65.3607 43.7326 65.8653 45.5568 66.5201C47.6879 67.2851 49.644 67.5673 52.2251 67.4821C54.4551 67.4085 54.6837 67.3618 60.6019 65.7711C63.9482 64.8717 70.8128 63.0274 75.8566 61.6728C80.9003 60.3182 85.4238 59.0275 85.9087 58.8046C86.3937 58.5817 87.1287 58.0538 87.5421 57.6318C89.9382 55.1856 89.8603 51.4018 87.3659 49.0686C86.0516 47.8392 85.1598 47.5024 83.2634 47.5195C81.7843 47.5329 80.9433 47.7325 70.9186 50.4495L60.161 53.3649L60.0388 52.3236C59.7556 49.9121 58.4308 48.2168 55.4123 46.4032C54.3384 45.7579 52.0311 44.3204 50.2852 43.2089C43.3876 38.8171 40.8243 37.3516 37.7265 36.0285C30.9616 33.1391 24.807 32.9199 17.7033 35.3156L15.4542 36.0741L15.2689 35.3518C15.1669 34.9546 14.9747 34.2328 14.8417 33.7478C14.709 33.2629 14.5127 32.5324 14.4058 32.1245C14.1751 31.244 13.8085 30.8306 13.2824 30.8579C13.071 30.8689 10.6364 31.4916 7.87206 32.2418ZM7.61017 34.3889C5.08972 35.068 2.99305 35.6583 2.95072 35.7006C2.85337 35.798 11.0473 66.4989 11.2228 66.694C11.3267 66.8095 20.6752 64.4463 20.8947 64.249C20.9281 64.219 20.6708 63.1373 20.3227 61.8451C19.9747 60.5528 18.218 53.9801 16.4191 47.2389C12.4178 32.2453 12.6691 33.1281 12.4082 33.1424C12.2897 33.1489 10.1306 33.7099 7.61017 34.3889ZM24.4266 35.777C23.6866 35.8622 22.3375 36.1055 21.4286 36.318C19.7768 36.7039 16.352 37.8169 16.1327 38.0391C16.0688 38.1038 17.2305 42.6802 18.714 48.2089C21.3275 57.9484 21.4243 58.2605 21.8282 58.2417C22.0574 58.2311 22.9496 58.0923 23.8111 57.933C26.0113 57.5267 29.7647 57.5481 31.9823 57.9798C35.4168 58.6482 38.2628 59.887 41.6098 62.1703C43.7994 63.6642 45.1431 64.3245 47.3754 65.0038C48.6876 65.4031 49.204 65.4616 51.5197 65.4743L54.165 65.4888L65.3635 62.4602C71.5226 60.7946 78.3816 58.9448 80.6056 58.3496C82.8296 57.7544 84.8548 57.1611 85.1063 57.0312C87.3725 55.8593 87.9504 52.5415 86.208 50.7057C85.4523 49.9096 84.4471 49.4767 83.3516 49.4756C82.6525 49.4751 79.3039 50.2973 71.3595 52.4204C65.2973 54.0406 60.2039 55.4061 60.0406 55.4549C59.8773 55.5038 59.5637 55.9171 59.3438 56.3734C59.1239 56.8296 58.5248 57.6234 58.0127 58.1371C56.0977 60.0578 53.2164 60.7268 50.6936 59.8368C50.3325 59.7095 47.7914 58.3059 45.0468 56.7178C42.3022 55.1299 38.8906 53.1609 37.4653 52.3424C35.9982 51.4998 34.7999 50.693 34.7031 50.4826C34.5865 50.2295 34.5987 49.9765 34.7414 49.689C35.1962 48.7716 35.506 48.9053 43.1473 53.3172C47.1138 55.6073 50.7324 57.6461 51.1887 57.8479C52.4258 58.3951 54.4498 58.2528 55.607 57.5373C57.8859 56.1284 58.7125 53.2907 57.5222 50.9623C56.9452 49.8338 56.2449 49.225 53.9005 47.8149C52.785 47.1441 49.9281 45.3627 47.5517 43.8563C41.0665 39.7455 38.1981 38.2087 34.7992 37.0249C31.6109 35.9142 27.5153 35.4214 24.4266 35.777Z" fill="#688AC5"/>
</svg>
