<svg width="57" height="57" viewBox="0 0 57 57" fill="none" xmlns="http://www.w3.org/2000/svg">
<path d="M24.6251 8.81252C24.6251 6.51509 23.7269 4.31175 22.1282 2.68721C20.5294 1.06268 18.3611 0.150024 16.1001 0.150024C13.8391 0.150024 11.6708 1.06268 10.072 2.68721C8.47326 4.31175 7.5751 6.51509 7.5751 8.81252C7.5751 11.11 8.47326 13.3133 10.072 14.9378C11.6708 16.5624 13.8391 17.475 16.1001 17.475C18.3611 17.475 20.5294 16.5624 22.1282 14.9378C23.7269 13.3133 24.6251 11.11 24.6251 8.81252ZM10.6751 8.81252C10.6751 8.08861 10.8154 7.37179 11.0881 6.70298C11.3607 6.03417 11.7603 5.42648 12.264 4.9146C12.7678 4.40272 13.3658 3.99667 14.024 3.71964C14.6822 3.44261 15.3877 3.30002 16.1001 3.30002C16.8125 3.30002 17.518 3.44261 18.1762 3.71964C18.8343 3.99667 19.4324 4.40272 19.9362 4.9146C20.4399 5.42648 20.8395 6.03417 21.1121 6.70298C21.3848 7.37179 21.5251 8.08861 21.5251 8.81252C21.5251 10.2745 20.9535 11.6767 19.9362 12.7105C18.9188 13.7442 17.5389 14.325 16.1001 14.325C14.6613 14.325 13.2814 13.7442 12.264 12.7105C11.2467 11.6767 10.6751 10.2745 10.6751 8.81252ZM5.2501 20.625H18.2174C17.709 21.6015 17.3308 22.6599 17.1076 23.775H5.2501C4.83901 23.775 4.44476 23.941 4.15408 24.2363C3.8634 24.5317 3.7001 24.9323 3.7001 25.35V26.925C3.7001 30.894 7.107 35.1591 13.2977 36.1545C12.2995 36.8475 11.4687 37.7705 10.8766 38.8446C4.3356 37.046 0.600098 31.9241 0.600098 26.925V25.35C0.600098 24.0969 1.09001 22.8951 1.96205 22.0089C2.8341 21.1228 4.01684 20.625 5.2501 20.625ZM21.925 20.625C23.4874 18.7035 25.8527 17.475 28.5001 17.475C30.3566 17.4717 32.1632 18.0857 33.6442 19.2232C35.1252 20.3607 36.1993 21.9593 36.7027 23.775C37.1514 25.3957 37.1261 27.114 36.6299 28.7203C36.1338 30.3266 35.1882 31.7515 33.9086 32.8209C32.6289 33.8904 31.0706 34.5582 29.4238 34.743C27.7769 34.9277 26.1128 34.6214 24.6344 33.8613C23.4961 33.2727 22.5026 32.4316 21.7271 31.4004C20.9517 30.3691 20.4142 29.174 20.1544 27.9033C19.8946 26.6326 19.9191 25.3188 20.2261 24.059C20.5331 22.7993 21.1117 21.6257 21.925 20.625ZM23.6021 23.775C23.2968 24.4294 23.1213 25.1386 23.0857 25.8619C23.05 26.5852 23.155 27.3086 23.3945 27.9907C23.8782 29.3683 24.8806 30.4943 26.1813 31.1208C27.482 31.7474 28.9743 31.8233 30.3301 31.3318C31.6858 30.8403 32.7939 29.8217 33.4105 28.5C34.0271 27.178 34.1016 25.6611 33.6177 24.2832C33.1337 22.9053 32.1308 21.7792 30.8297 21.1527C29.5287 20.5261 28.0359 20.4504 26.6799 20.9421C25.3239 21.4339 24.2156 22.453 23.599 23.775M46.1236 38.8446C45.5331 37.7699 44.7041 36.8499 43.7025 36.1577C49.8901 35.1591 53.3001 30.8909 53.3001 26.925V25.35C53.3001 24.9323 53.1368 24.5317 52.8461 24.2363C52.5554 23.941 52.1612 23.775 51.7501 23.775H39.8926C39.6736 22.6767 39.3009 21.616 38.7859 20.625H51.7501C52.9834 20.625 54.1661 21.1228 55.0381 22.0089C55.9102 22.8951 56.4001 24.0969 56.4001 25.35V26.925C56.4001 31.9241 52.6615 37.0428 46.1236 38.8446ZM42.4098 39.1187C41.5637 38.364 40.4759 37.9485 39.3501 37.95H17.6501C17.039 37.9484 16.4336 38.0694 15.8687 38.3063C15.3038 38.5432 14.7905 38.8912 14.3584 39.3302C13.9263 39.7693 13.5838 40.2909 13.3507 40.8649C13.1176 41.4389 12.9985 42.0541 13.0001 42.675V44.25C13.0001 50.4587 18.7661 56.85 28.5001 56.85C38.2341 56.85 44.0001 50.4587 44.0001 44.25V42.675C44.0001 41.2575 43.3863 39.9849 42.4098 39.1155M16.1001 42.675C16.1001 42.2573 16.2634 41.8567 16.5541 41.5613C16.8448 41.266 17.239 41.1 17.6501 41.1H39.3501C39.7612 41.1 40.1554 41.266 40.4461 41.5613C40.7368 41.8567 40.9001 42.2573 40.9001 42.675V44.25C40.9001 48.7797 36.4609 53.7 28.5001 53.7C20.5393 53.7 16.1001 48.7797 16.1001 44.25V42.675ZM40.9001 0.150024C43.1611 0.150024 45.3294 1.06268 46.9282 2.68721C48.5269 4.31175 49.4251 6.51509 49.4251 8.81252C49.4251 11.11 48.5269 13.3133 46.9282 14.9378C45.3294 16.5624 43.1611 17.475 40.9001 17.475C38.6391 17.475 36.4708 16.5624 34.872 14.9378C33.2733 13.3133 32.3751 11.11 32.3751 8.81252C32.3751 6.51509 33.2733 4.31175 34.872 2.68721C36.4708 1.06268 38.6391 0.150024 40.9001 0.150024ZM40.9001 3.30002C39.4613 3.30002 38.0814 3.8808 37.064 4.9146C36.0467 5.94839 35.4751 7.35052 35.4751 8.81252C35.4751 10.2745 36.0467 11.6767 37.064 12.7105C38.0814 13.7442 39.4613 14.325 40.9001 14.325C42.3389 14.325 43.7188 13.7442 44.7362 12.7105C45.7535 11.6767 46.3251 10.2745 46.3251 8.81252C46.3251 7.35052 45.7535 5.94839 44.7362 4.9146C43.7188 3.8808 42.3389 3.30002 40.9001 3.30002Z" fill="white"/>
</svg>
