<svg width="56" height="55" viewBox="0 0 56 55" fill="none" xmlns="http://www.w3.org/2000/svg">
<path fill-rule="evenodd" clip-rule="evenodd" d="M25.8506 0.044637C25.7619 0.0620482 25.3266 0.134057 24.8833 0.204777C23.0922 0.490449 20.8917 1.38175 19.187 2.51197C18.1492 3.20004 16.0566 5.29304 15.3704 6.32922C13.6347 8.95046 12.8455 11.534 12.8463 14.5921C12.8471 17.1266 13.3179 19.1222 14.4302 21.3053C14.969 22.3627 16.0923 24.0384 16.3825 24.2178C16.4466 24.2574 16.5492 24.3838 16.6108 24.4988C16.7197 24.7022 16.6704 24.7077 14.7356 24.7077H12.7485L12.5687 24.3287C12.2792 23.7187 11.523 23.1262 10.8574 22.9881C10.4772 22.9091 8.88981 22.8798 6.16378 22.9016C1.62601 22.9377 1.679 22.9304 0.874966 23.6361C0.654102 23.83 0.367462 24.1868 0.237953 24.4288L0.00247196 24.8689V33.8969V42.925L0.320817 43.4997C0.65077 44.0954 1.2162 44.565 1.87246 44.7887C2.11234 44.8705 3.18302 44.9129 4.98927 44.9122C7.66146 44.9112 7.75668 44.9038 8.29073 44.6551C8.8466 44.3963 9.29865 43.9217 9.50414 43.3813C9.61173 43.0981 9.64687 43.0862 10.3713 43.0862C10.7866 43.0862 11.1263 43.1293 11.1263 43.182C11.1263 43.2347 10.8758 43.9239 10.5697 44.7136C10.081 45.9738 10.0123 46.2477 10.0076 46.9553C10.0015 47.8715 10.2212 48.4786 10.7957 49.1329C11.5265 49.9652 13.0257 50.3822 14.0282 50.032C14.3371 49.9241 14.5254 49.9031 14.5496 49.9737C14.5705 50.0344 14.7414 50.286 14.9296 50.5327C15.7703 51.6351 17.3745 52.0702 18.6496 51.5419C18.7612 51.4957 18.8993 51.6211 19.0981 51.9492C19.7858 53.0841 21.4336 53.6857 22.6579 53.249C23.0525 53.1082 23.0713 53.1128 23.2415 53.3881C24.2559 55.0298 26.3396 55.4964 27.8525 54.4206C28.2993 54.103 28.5896 53.7573 29.0337 53.0138C29.1459 52.8259 29.2676 52.8687 30.9064 53.6726L32.659 54.5324H33.6344C34.4983 54.5324 34.6651 54.4996 35.0935 54.246C36.3926 53.4767 37.0071 52.0897 36.6849 50.6534C36.6175 50.3525 36.6443 50.3049 36.9679 50.1506C37.5333 49.881 38.0921 49.3318 38.4053 48.7384C38.6618 48.2525 38.6936 48.076 38.69 47.1595L38.6862 46.1276L39.0069 45.9857C39.4446 45.792 40.1577 45.0587 40.4159 44.5371C40.5828 44.1997 40.6286 43.8872 40.6286 43.0852V42.0632L41.2344 41.6611L41.8403 41.2591H43.5625H45.2847L45.5202 41.7456C45.6498 42.0132 45.9105 42.3503 46.0998 42.4946C46.8382 43.0579 47.0257 43.0863 50.0025 43.0851C52.6844 43.0841 52.7907 43.076 53.3108 42.8319C54.1125 42.4556 54.8215 41.6183 54.8892 40.9678C54.9003 40.8619 54.9396 41.1865 54.9767 41.689C55.0138 42.1914 55.0503 38.7334 55.0579 34.0044C55.0656 29.2754 55.0333 24.8743 54.9865 24.224C54.887 22.8463 54.6905 22.36 53.9909 21.7612C53.2016 21.0855 52.9503 21.0535 48.4487 21.0535C45.8472 21.0535 44.2638 21.0957 43.9551 21.1735C43.3898 21.3158 42.6132 21.9611 42.3567 22.5016L42.1769 22.8806H40.8909H39.6049L39.8804 22.444C40.4185 21.5917 41.0931 20.1253 41.4221 19.093C41.9083 17.5671 42.087 16.3775 42.0885 14.6586C42.0906 12.1767 41.6611 10.321 40.5712 8.10258C38.1193 3.11191 32.9875 -0.0488675 27.4169 0.000571676C26.6441 0.00745017 25.9392 0.0272258 25.8506 0.044637ZM25.5819 1.9344C23.7161 2.20319 21.2971 3.22261 19.7392 4.39647C17.4675 6.10824 15.7931 8.61438 15.0224 11.4565C14.758 12.4313 14.737 12.668 14.737 14.6586C14.737 16.6493 14.758 16.886 15.0224 17.8608C15.6432 20.1497 16.7413 22.0523 18.4007 23.7135L19.3937 24.7077H22.382H25.3703L26.0394 24.0709C26.4739 23.6574 26.9256 23.3468 27.3275 23.1854C27.9363 22.9408 28.0234 22.9362 32.65 22.9025L37.3537 22.8682L37.9032 22.0952C38.6614 21.0287 39.5399 19.1674 39.8913 17.8829C40.1656 16.8805 40.1855 16.6635 40.1875 14.6586C40.1895 12.6625 40.1692 12.434 39.9036 11.4565C38.8954 7.74662 36.5058 4.82111 33.1278 3.16124C31.8143 2.51584 30.5331 2.1099 29.2432 1.93042C28.2874 1.79758 26.5183 1.79941 25.5819 1.9344ZM32.3529 7.39194C31.4527 7.62527 31.5851 7.49877 27.5944 11.9394L24.6274 15.2408L24.1257 14.7716C23.3696 14.0643 22.8112 13.8143 21.9804 13.8111C19.9561 13.8031 18.5953 15.8986 19.4768 17.6666C19.7131 18.1406 23.0362 21.4598 23.5398 21.7247C23.8415 21.8834 24.1781 21.9534 24.6683 21.959C25.9579 21.9738 25.9225 22.0049 30.7593 16.647C33.134 14.0165 35.2019 11.6396 35.3545 11.3651C36.31 9.64626 35.193 7.55832 33.2127 7.36164C32.9171 7.33229 32.5302 7.34594 32.3529 7.39194ZM32.6216 9.26203C32.4738 9.33641 30.7631 11.1615 28.82 13.3177C26.877 15.4739 25.1842 17.2969 25.0584 17.3687C24.5784 17.6425 24.3578 17.537 23.3249 16.5395C22.171 15.4252 21.8835 15.3311 21.3283 15.8863C20.7571 16.4575 20.835 16.611 22.5994 18.3937C23.4714 19.2745 24.2722 20.0432 24.3791 20.1017C24.8965 20.3847 25.0694 20.223 29.4345 15.3753C31.7588 12.7939 33.7201 10.5703 33.7931 10.4338C33.9937 10.0582 33.8401 9.57253 33.4443 9.33114C33.0463 9.08846 32.9778 9.08276 32.6216 9.26203ZM44.1755 23.1393C43.975 23.3399 43.9239 23.4797 43.968 23.7072C44.0002 23.8732 44.7202 27.827 45.568 32.4933C46.8154 39.3588 47.1462 41.0045 47.3019 41.1183C47.4476 41.2248 48.1058 41.2591 50.0078 41.2591H52.5213L52.8354 40.9449L53.1496 40.6308V32.0841V23.5375L52.8902 23.2359L52.631 22.9343L48.5363 22.9038L44.4416 22.8732L44.1755 23.1393ZM2.35159 24.8143C1.75101 25.0567 1.77583 24.6629 1.77583 33.9291V42.4579L2.08999 42.772L2.40414 43.0862H4.91759C6.85463 43.0862 7.47639 43.053 7.62889 42.9415C7.79183 42.8223 8.1077 41.2528 9.41687 34.0564C10.562 27.7615 10.9779 25.2618 10.9029 25.1219C10.8458 25.015 10.7065 24.8781 10.5935 24.8176C10.34 24.682 2.68713 24.6789 2.35159 24.8143ZM28.2333 24.8143C28.0364 24.861 27.7115 25.0373 27.5113 25.2064C26.906 25.7173 20.5406 32.7996 20.3961 33.1228C20.0261 33.9508 20.4335 35.0442 21.2615 35.445C21.8324 35.7213 22.2271 35.7265 22.7875 35.4648C23.0239 35.3544 24.9072 33.7353 26.9725 31.8667C30.4359 28.7332 30.7574 28.4696 31.1104 28.4728C31.5605 28.4768 31.8198 28.6478 31.9683 29.0383C32.1312 29.4666 31.93 29.8891 31.3171 30.406C31.0206 30.656 30.818 30.8973 30.8669 30.9422C30.9157 30.9872 33.2864 32.2189 36.135 33.6794C39.6531 35.483 41.4418 36.4585 41.7119 36.7208C42.2126 37.2071 42.6143 38.0748 42.6934 38.8405L42.7545 39.432H43.8751C44.8918 39.432 44.9907 39.4146 44.9406 39.2439C44.9103 39.1405 44.3261 35.9605 43.6423 32.1773C42.9586 28.3941 42.3717 25.1658 42.3382 25.0033L42.2774 24.7077L35.4343 24.7187C31.6706 24.7248 28.4301 24.7678 28.2333 24.8143ZM0 33.8969C0 38.7441 0.0132196 40.7114 0.0293411 38.2685C0.0454625 35.8258 0.0454625 31.8599 0.0293411 29.4555C0.0132196 27.0511 0 29.0497 0 33.8969ZM12.5872 26.8304C12.5537 26.9929 11.9669 30.2212 11.2831 34.0044C10.5993 37.7876 10.0151 40.9676 9.98478 41.071C9.93459 41.242 10.036 41.2591 11.1024 41.2591C12.1198 41.2591 12.2998 41.2319 12.4607 41.054C12.804 40.6747 13.6791 40.3803 14.4631 40.3803C15.352 40.3803 15.9636 40.6274 16.6575 41.267L17.1532 41.7239L17.5975 41.4741C18.1249 41.1777 19.3278 41.0641 20.0034 41.2468C20.5915 41.4059 21.2717 41.9133 21.6871 42.5025C21.9237 42.8381 22.077 42.9632 22.1922 42.915C22.6109 42.7396 23.8994 42.741 24.4309 42.9175C25.5124 43.2767 26.3378 44.3098 26.481 45.4834L26.5492 46.0418L27.2531 46.1024C29.4361 46.2903 30.6795 48.2547 29.9863 50.4201C29.8776 50.7593 29.8095 51.0571 29.8348 51.0818C29.8602 51.1064 30.6239 51.4939 31.5319 51.9429C33.4274 52.88 33.8687 52.9619 34.4385 52.4824C34.8717 52.118 35.0546 51.519 34.8874 51.0124C34.7146 50.4888 34.5937 50.4009 32.8784 49.5517C32.0444 49.1388 31.331 48.7203 31.2932 48.6216C31.0482 47.9832 31.4618 47.2777 32.0811 47.2777C32.2639 47.2777 32.9233 47.534 33.5638 47.8538C35.0986 48.6202 35.4289 48.7228 35.8819 48.5733C36.079 48.5082 36.3813 48.3079 36.5536 48.128C36.8093 47.8611 36.8666 47.7085 36.8653 47.2975C36.8627 46.4745 36.6415 46.2635 34.924 45.4467C33.3516 44.6989 33.0515 44.4537 33.0515 43.9172C33.0515 43.5123 33.4852 43.0862 33.897 43.0862C34.072 43.0862 34.8782 43.4005 35.6887 43.7848C37.507 44.6467 37.8248 44.6792 38.438 44.0661C38.7906 43.7134 38.8552 43.5787 38.8552 43.196C38.8552 42.3828 38.6356 42.1675 36.9744 41.3514C36.1468 40.9449 35.4093 40.5309 35.3354 40.4315C35.1917 40.2381 35.1585 39.7755 35.2678 39.4905C35.3426 39.2956 35.8514 39.0021 36.1145 39.0021C36.209 39.0021 36.9515 39.3164 37.7645 39.7007C38.5775 40.0849 39.3509 40.3993 39.4831 40.3993C39.9224 40.3993 40.5354 40.0007 40.7312 39.5881C40.9616 39.1027 40.8848 38.5941 40.5148 38.1543C40.3309 37.9358 38.5493 36.9675 34.7696 35.032L29.291 32.2264L26.8453 34.4445C25.5002 35.6645 24.224 36.7748 24.0094 36.9121C23.3733 37.3187 22.4676 37.5338 21.7201 37.456C19.0039 37.1733 17.5358 34.0628 19.0591 31.8182C19.2182 31.5839 20.243 30.4107 21.3365 29.2111C22.4301 28.0114 23.413 26.9185 23.5208 26.7823L23.7166 26.5348H18.1823H12.648L12.5872 26.8304ZM13.7379 42.437C13.3125 42.6964 13.2497 42.8203 12.4179 45.0441C11.8801 46.482 11.7598 46.9145 11.8151 47.2096C12.0173 48.2875 13.3288 48.7087 14.071 47.934C14.4586 47.5295 15.7732 44.1682 15.7793 43.5665C15.7899 42.5062 14.6545 41.878 13.7379 42.437ZM18.3584 43.1835C17.9233 43.4567 17.7865 43.7373 16.8259 46.3267C16.1864 48.0504 16.0553 48.5079 16.1129 48.8147C16.3165 49.9008 17.6253 50.3235 18.3718 49.5443C18.784 49.1141 20.3693 44.9554 20.3693 44.3044C20.3693 43.3023 19.2038 42.6526 18.3584 43.1835ZM22.6584 44.7952C22.4691 44.914 22.2419 45.1512 22.1534 45.3223C21.8093 45.9877 20.3693 49.9695 20.3697 50.2545C20.3711 51.363 21.8594 51.9633 22.6489 51.1738C23.058 50.7647 24.6683 46.564 24.6683 45.906C24.6683 44.915 23.4977 44.2681 22.6584 44.7952ZM26.3342 48.1206C26.1569 48.2289 25.9555 48.3859 25.8867 48.4694C25.6701 48.7323 24.6683 51.5237 24.6683 51.8644C24.6683 52.6025 25.5943 53.3305 26.3059 53.1519C26.9192 52.998 27.1982 52.6071 27.7716 51.0979C28.4984 49.1852 28.4846 48.705 27.6871 48.1677C27.248 47.8718 26.7685 47.855 26.3342 48.1206Z" fill="white"/>
</svg>
