<svg width="59" height="54" viewBox="0 0 59 54" fill="none" xmlns="http://www.w3.org/2000/svg">
<path fill-rule="evenodd" clip-rule="evenodd" d="M19.9554 0.211823C19.7844 0.401032 19.7562 0.764747 19.7562 2.78422C19.7562 4.90975 19.7774 5.15536 19.9763 5.33565C20.246 5.58005 20.5966 5.59102 20.9058 5.36469C21.1248 5.20429 21.1363 5.05292 21.0992 2.80374C21.067 0.839707 21.0262 0.375603 20.8708 0.202302C20.6256 -0.0711466 20.2072 -0.0668082 19.9554 0.211823ZM47.1343 0.234359C46.9433 0.445743 46.9075 0.766675 46.8591 2.70179C46.8108 4.63087 46.8298 4.96663 47.0027 5.23068C47.2621 5.62729 47.8269 5.64634 48.0921 5.26719C48.2459 5.04738 48.2795 4.58448 48.2795 2.68299C48.2795 0.425978 48.2726 0.361864 48.0119 0.179043C47.6523 -0.0731954 47.3979 -0.0571669 47.1343 0.234359ZM14.0034 2.66684C13.924 2.74638 13.8586 2.97692 13.8582 3.17903C13.8574 3.49418 14.0933 3.77377 15.513 5.13993C16.7893 6.36822 17.2429 6.73399 17.4928 6.73676C17.8242 6.74037 18.1916 6.36882 18.1916 6.03018C18.1916 5.93425 17.4494 5.1057 16.5423 4.18895C15.1298 2.76144 14.8396 2.52222 14.5204 2.52222C14.3155 2.52222 14.0828 2.5873 14.0034 2.66684ZM51.4973 4.18087C50.4329 5.24876 49.844 5.92894 49.844 6.09043C49.844 6.41932 50.2093 6.74146 50.5756 6.73567C50.9702 6.72953 54.1767 3.62361 54.1767 3.2476C54.1767 2.77518 53.9543 2.52222 53.5389 2.52222C53.2001 2.52222 52.9393 2.73409 51.4973 4.18087ZM21.3024 9.20877C19.3635 11.3619 17.7425 13.2193 17.7 13.3364C17.6576 13.4536 17.6561 13.6405 17.6966 13.7518C17.7372 13.8632 21.3433 17.9171 25.7101 22.7603C32.9006 30.7354 33.6842 31.5664 34.0143 31.5661C34.3443 31.566 35.1306 30.7317 42.3221 22.75C49.3578 14.9412 50.2653 13.8898 50.2653 13.5468C50.2653 13.2088 49.8157 12.6604 46.7238 9.22684L43.1823 5.29407H34.0048H24.8274L21.3024 9.20877ZM22.3953 10.1006C20.728 11.9487 19.3574 13.4949 19.3494 13.5366C19.3349 13.613 32.3105 28.0584 32.3592 28.0197C32.3735 28.0083 31.4513 24.9104 30.3098 21.1357L28.2345 14.2725L24.9713 14.2404C21.4435 14.2058 21.411 14.1994 21.411 13.5494C21.411 12.8977 21.4657 12.8865 24.6533 12.8865C27.5255 12.8865 27.5935 12.8809 27.5201 12.6491C27.4787 12.5186 27.0644 11.6179 26.5995 10.6475C25.7099 8.79034 25.647 8.44783 26.1475 8.17969C26.6983 7.88442 26.9188 8.10304 27.7046 9.723C28.1145 10.5682 28.5255 11.4359 28.6178 11.6512C28.7102 11.8666 28.8256 12.0416 28.8744 12.0398C28.9232 12.0381 29.4505 11.3226 30.0462 10.4498C31.3565 8.53014 31.7456 8.06592 32.0446 8.06592C32.3372 8.06592 32.7541 8.48146 32.7541 8.77322C32.7541 8.89723 32.2494 9.72421 31.6326 10.6111C31.0158 11.4981 30.4138 12.3729 30.2949 12.5551L30.0787 12.8865H33.9567C37.417 12.8865 37.827 12.8663 37.7628 12.6989C37.7232 12.5957 37.1488 11.7319 36.4862 10.7792C35.7281 9.68926 35.2815 8.93327 35.2815 8.74008C35.2815 8.31153 35.7878 7.98373 36.1761 8.16077C36.3316 8.23175 37.0427 9.13429 37.7563 10.1664C38.4697 11.1985 39.0873 12.0429 39.1286 12.0429C39.1697 12.0429 39.6042 11.1963 40.0941 10.1617C40.9845 8.28116 41.258 7.93191 41.7056 8.10388C41.8053 8.14221 41.9769 8.31117 42.087 8.47953C42.283 8.77889 42.2672 8.82794 41.372 10.7139C40.8686 11.7744 40.4566 12.6971 40.4566 12.7643C40.4566 12.8435 41.4705 12.8865 43.3365 12.8865C46.4554 12.8865 46.5945 12.9148 46.5945 13.5494C46.5945 14.1921 46.4854 14.2122 42.9983 14.2122H39.7805L37.7144 21.0443C36.5781 24.802 35.6679 27.8959 35.6916 27.9196C35.7673 27.9954 48.5803 13.7118 48.5803 13.5517C48.5803 13.467 47.2318 11.8999 45.5836 10.069L42.5868 6.74025H34.0068H25.4267L22.3953 10.1006ZM13.743 8.41927L11.6413 8.48772L11.4635 8.80528C11.3042 9.08994 11.3071 9.15538 11.492 9.43799L11.6982 9.75313H14.0939C16.7235 9.75313 16.8678 9.71589 16.8678 9.03619C16.8678 8.36323 16.6684 8.32382 13.743 8.41927ZM51.5286 8.45085C51.0184 8.64066 50.9775 9.4874 51.4694 9.67649C51.8535 9.824 56.2845 9.7635 56.4393 9.60851C56.6642 9.38327 56.6186 8.69573 56.3698 8.56232C56.1177 8.42723 51.8561 8.32901 51.5286 8.45085ZM29.7971 14.5228C29.9208 15.0162 33.9601 28.3551 33.997 28.3921C34.0153 28.4105 34.9717 25.2953 36.1224 21.4695C37.273 17.6436 38.2374 14.4458 38.2653 14.3628C38.3052 14.2441 37.4032 14.2122 34.0177 14.2122H29.7192L29.7971 14.5228ZM18.9137 33.3695C17.1157 33.7552 15.8652 34.3519 14.549 35.4522C13.7398 36.1285 13.4744 36.2887 12.5953 36.6308C11.9481 36.8827 11.6268 36.9171 9.49626 36.9633L7.11932 37.0148V36.5122C7.11932 36.0063 6.9554 35.5586 6.71013 35.3946C6.63731 35.3459 5.33066 35.3052 3.80641 35.3042C1.49073 35.3027 0.991033 35.3332 0.767541 35.49L0.5 35.6775V44.6423V53.607L0.767541 53.7946C1.13353 54.0514 6.46485 54.0752 6.81122 53.8217C6.95564 53.7159 7.0506 53.4511 7.08959 53.045L7.14869 52.4287L8.18708 52.1858C11.1947 51.4822 13.535 51.2781 17.5854 51.3661C20.8346 51.4366 22.6495 51.6138 25.5932 52.1481C27.2494 52.4487 27.6472 52.4754 30.4073 52.472C32.771 52.4691 33.6612 52.4224 34.5594 52.2539C37.4252 51.7164 39.7185 50.9763 42.0814 49.8267C44.3123 48.7412 56.6477 41.462 57.2829 40.8562C58.3249 39.8623 58.7699 38.1094 58.3331 36.7189C57.9421 35.4741 56.7625 34.2922 55.5796 33.9599C55.3045 33.8827 54.7115 33.8227 54.262 33.8268C53.2143 33.8362 53.087 33.898 46.6547 37.5184L41.6 40.3636L41.5128 39.5194C41.3576 38.015 40.5635 36.8321 39.2349 36.1258C38.7265 35.8555 38.5936 35.8455 34.5594 35.7738C29.8915 35.6907 29.6925 35.6586 28.081 34.7282C26.0633 33.5633 24.3249 33.1327 21.6818 33.1431C20.4718 33.1479 19.6231 33.2173 18.9137 33.3695ZM20.2978 34.5315C18.2759 34.8315 16.6291 35.5004 15.4837 36.4868C14.6217 37.2292 13.4652 37.8601 12.475 38.1281C11.9932 38.2584 10.9818 38.3483 9.43608 38.3979L7.11932 38.4724V44.7339V50.9955L7.45029 50.9112C9.99945 50.2626 12.1163 50.0023 15.4837 49.9235C18.8723 49.8442 21.7336 50.0503 24.994 50.6083C28.8667 51.271 30.9273 51.3374 33.9577 50.8973C36.5506 50.5205 39.3152 49.6456 41.7143 48.4421C43.6153 47.4886 55.7824 40.3425 56.2634 39.8971C57.6564 38.6072 57.2959 36.3279 55.565 35.48C54.9876 35.197 54.7876 35.1585 54.1838 35.2133C53.5287 35.2727 53.002 35.5445 46.8961 38.9728C43.2762 41.0051 40.0939 42.828 39.8243 43.0236C38.8658 43.7189 38.6658 43.7384 32.5102 43.7384C27.2224 43.7384 26.8826 43.7255 26.6951 43.518C26.444 43.2403 26.4397 42.8477 26.6849 42.6021C26.8513 42.4357 27.5242 42.4128 32.2595 42.4128C38.2759 42.4128 38.5099 42.3868 39.2813 41.6368C40.5465 40.4063 40.2896 38.3274 38.7664 37.4716C38.2307 37.1707 38.2258 37.1702 34.078 37.1031C29.9887 37.0369 29.9127 37.0311 29.0465 36.7211C28.5628 36.5479 27.8046 36.191 27.3616 35.928C26.318 35.3084 25.8048 35.098 24.6304 34.8081C23.6935 34.577 21.1055 34.4117 20.2978 34.5315ZM1.82386 44.6423V52.536H3.74948H5.67511V44.6423V36.7485H3.74948H1.82386V44.6423Z" fill="white"/>
</svg>
