<svg width="79.933594" height="80.492188" viewBox="0 0 79.9336 80.4922" fill="none" xmlns="http://www.w3.org/2000/svg" xmlns:xlink="http://www.w3.org/1999/xlink">
	<desc>
			Created with Pixso.
	</desc>
	<defs/>
	<path id="Union" d="M39.2222 1.02271C39.2222 0.449951 39.6724 0 40.2451 0C40.8174 0 41.2676 0.449951 41.2676 1.02271L41.2676 11.0127C41.3677 11.0676 41.4648 11.1299 41.5586 11.1995L45.7407 14.3118C46.2783 14.7114 46.9531 14.8794 47.6147 14.7778L52.7446 13.9907C53.8325 13.8237 54.9019 14.3872 55.3794 15.3787L57.6704 20.1362C57.9585 20.7341 58.4722 21.1931 59.0981 21.4124L59.689 21.6194C59.7344 21.5471 59.7891 21.4795 59.854 21.4175L67.1152 14.4802C67.5293 14.0847 68.1611 14.1035 68.5518 14.5227C68.7397 14.7244 68.833 14.9773 68.833 15.2295C68.833 15.5012 68.7246 15.7722 68.5103 15.9773L61.8223 22.3665L64.0347 23.1411C65.0405 23.4934 65.71 24.4424 65.71 25.5029C65.71 25.5273 65.71 25.552 65.709 25.5764L65.5537 30.907C65.5527 30.9314 65.5522 30.9558 65.5522 30.98C65.5522 31.6108 65.7905 32.2192 66.2212 32.6829L69.8262 36.5664C70.2666 37.041 70.4946 37.6526 70.4946 38.27C70.4946 38.6074 70.4268 38.9465 70.2881 39.2661L78.9111 39.2661C79.4839 39.2661 79.9336 39.7158 79.9336 40.2886C79.9336 40.8613 79.4839 41.3113 78.9111 41.3113L69.1641 41.3113L67.5913 44.1399C67.3828 44.5151 67.2759 44.9343 67.2759 45.3564C67.2759 45.5784 67.3052 45.8013 67.3652 46.019L68.7783 51.166C68.8389 51.3857 68.8677 51.6084 68.8677 51.8286C68.8677 52.6577 68.4546 53.4514 67.7373 53.9219L63.3345 56.8086C62.7827 57.1707 62.396 57.7356 62.2588 58.3811L61.1597 63.5505L67.9951 70.4731C68.123 70.6023 68.1865 70.7686 68.1865 70.9346C68.1865 71.1008 68.123 71.2668 67.9951 71.3962C67.7402 71.6545 67.3389 71.6545 67.084 71.3962L60.5352 64.7646C60.1265 65.2026 59.563 65.4907 58.9365 65.5488L53.7559 66.0293C53.0918 66.0908 52.4795 66.415 52.0552 66.9297L48.7197 70.9773C48.0176 71.8293 46.8398 72.1208 45.8213 71.6943L42.1094 70.1401L42.1094 79.4695C42.1094 80.0422 41.6597 80.4922 41.0869 80.4922C40.5142 80.4922 40.0645 80.0422 40.0645 79.4695L40.0645 69.4944C39.7354 69.4944 39.4067 69.5591 39.0977 69.6885L34.3066 71.6943C33.2886 72.1208 32.1108 71.8293 31.4087 70.9773L28.0732 66.9297C27.6489 66.415 27.0366 66.0908 26.3726 66.0293L21.1919 65.5488C20.73 65.5061 20.3027 65.3384 19.9463 65.0776L12.8794 71.7026C12.4619 72.0942 11.8257 72.0737 11.4341 71.656C11.2461 71.4558 11.1533 71.2053 11.1533 70.9558C11.1533 70.6848 11.2632 70.4146 11.4805 70.2107L18.9048 63.2502L17.8696 58.3811C17.7324 57.7356 17.3457 57.1707 16.7939 56.8086L12.3911 53.9219C11.6738 53.4514 11.2603 52.6577 11.2603 51.8286C11.2603 51.6084 11.2896 51.3857 11.3501 51.166L12.7632 46.019C12.8228 45.8013 12.8525 45.5784 12.8525 45.3564C12.8525 44.9343 12.7456 44.5151 12.5371 44.1399L10.9639 41.3113L1.02246 41.3113C0.449707 41.3113 0 40.8613 0 40.2886C0 39.7158 0.449707 39.2661 1.02246 39.2661L9.84033 39.2661C9.70166 38.9465 9.6333 38.6074 9.6333 38.27C9.6333 37.6526 9.86182 37.041 10.3022 36.5664L13.9072 32.6829C14.3374 32.2192 14.5757 31.6108 14.5757 30.98C14.5757 30.9558 14.5757 30.9314 14.5747 30.907L14.4194 25.5764C14.4185 25.552 14.418 25.5273 14.418 25.5029C14.418 24.4424 15.0879 23.4934 16.0938 23.1411L20.688 21.5322L14.8379 15.6851C14.7095 15.5566 14.645 15.3914 14.645 15.2263C14.645 15.0613 14.7095 14.8962 14.8374 14.7678C15.0942 14.5107 15.498 14.5107 15.7549 14.7676L21.8896 20.8992C22.124 20.6855 22.3174 20.4275 22.458 20.1362L24.749 15.3787C25.2266 14.3872 26.2959 13.8237 27.3838 13.9907L32.5137 14.7778C33.1753 14.8794 33.8501 14.7114 34.3872 14.3118L38.5698 11.1995C38.7729 11.0486 38.9927 10.9321 39.2222 10.8503L39.2222 1.02271ZM44.52 15.9526L40.3374 12.8403Q40.2007 12.7388 40.064 12.7388Q39.9272 12.7388 39.791 12.8403L35.6084 15.9526Q34.8457 16.5203 33.9946 16.7319L33.9941 16.7319Q33.1431 16.9436 32.2031 16.7993L27.0737 16.0122Q26.9062 15.9866 26.7856 16.05Q26.665 16.1135 26.5918 16.2661L24.3003 21.0237Q23.8921 21.8718 23.2432 22.4517L23.2432 22.4517L23.2432 22.4519Q22.5947 23.0315 21.7061 23.3428L16.77 25.0713Q16.6118 25.1267 16.5352 25.238Q16.4634 25.3428 16.4634 25.4968Q16.4634 25.5068 16.4634 25.5168L16.6191 30.8472Q16.6216 30.9238 16.6216 30.9995Q16.6216 31.8445 16.3433 32.585L16.3428 32.5854Q16.0396 33.3918 15.4062 34.0742L11.8013 37.958Q11.688 38.0796 11.6719 38.2131Q11.6689 38.2354 11.6689 38.2581Q11.6689 38.3708 11.7363 38.4919L14.3242 43.146Q14.7759 43.9575 14.8784 44.8113L14.8784 44.8118Q14.9087 45.063 14.9087 45.3181Q14.9087 45.929 14.7354 46.5605L13.3223 51.7075Q13.3008 51.7847 13.3008 51.854Q13.3008 51.9287 13.3257 51.9941L13.3257 51.9941Q13.373 52.1201 13.5127 52.2114L17.915 55.0984Q18.6978 55.6116 19.1865 56.3259L19.1865 56.3262Q19.6753 57.0403 19.8701 57.9558L20.9595 63.0779C21.0088 63.1667 21.0439 63.2605 21.0645 63.3564Q21.0859 63.384 21.1113 63.4067Q21.2129 63.4968 21.3804 63.5125L26.5615 63.9927Q27.5039 64.0801 28.2759 64.4888L28.2769 64.4893Q29.0493 64.8982 29.6514 65.6292L32.9868 69.6768Q33.0952 69.8079 33.2275 69.8408Q33.3604 69.8735 33.5171 69.8079L38.3076 67.802Q39.1855 67.4343 40.064 67.4343L40.064 67.4343Q40.9424 67.4343 41.8208 67.802L46.6113 69.8079Q46.7681 69.8735 46.9009 69.8408Q47.0332 69.8079 47.1416 69.6768L50.4771 65.6292Q51.0791 64.8982 51.8516 64.4893L51.8521 64.489Q52.6245 64.0801 53.5669 63.9927L58.748 63.5125Q58.9155 63.4968 59.0171 63.4067Q59.1182 63.3167 59.1533 63.1519L60.2583 57.9558Q60.4531 57.0405 60.9414 56.3262L60.9419 56.3259L60.9419 56.3259Q61.4307 55.6116 62.2129 55.0984L66.6157 52.2114Q66.7549 52.1201 66.8027 51.9941Q66.8276 51.9287 66.8276 51.854Q66.8276 51.7847 66.8062 51.7075L65.3931 46.5605Q65.2197 45.929 65.2197 45.3181Q65.2197 45.0627 65.25 44.8113L65.25 44.811Q65.3525 43.9575 65.8037 43.146L67.3521 40.3616C67.3506 40.3376 67.3496 40.3132 67.3496 40.2886C67.3496 39.8877 67.5703 39.5471 67.8989 39.3787L68.3921 38.4919Q68.459 38.3708 68.459 38.2581Q68.459 38.2356 68.4565 38.2134L68.4565 38.2131Q68.4404 38.0796 68.3271 37.958L64.7222 34.0742Q64.0884 33.3918 63.7852 32.585Q63.5068 31.8445 63.5068 30.9995Q63.5068 30.9238 63.5093 30.8472L63.6646 25.5168Q63.665 25.5068 63.665 25.4968Q63.665 25.3428 63.5933 25.238Q63.5166 25.1267 63.3584 25.0713L58.4224 23.3428Q57.5337 23.0315 56.8853 22.4517L56.8848 22.4512Q56.2363 21.8716 55.8281 21.0237L53.5366 16.2661Q53.4634 16.1135 53.3428 16.05Q53.2222 15.9866 53.0547 16.0122L47.9248 16.7993Q46.9854 16.9436 46.1338 16.7319Q45.2827 16.5203 44.52 15.9526ZM28.0137 30.709C28.0137 28.3076 29.936 26.3608 32.3071 26.3608C34.6787 26.3608 36.6011 28.3076 36.6011 30.709C36.6011 33.1104 34.6787 35.0569 32.3071 35.0569C29.936 35.0569 28.0137 33.1104 28.0137 30.709ZM32.3071 28.4062C31.0654 28.4062 30.0591 29.437 30.0591 30.709C30.0591 31.9807 31.0654 33.0117 32.3071 33.0117C33.5488 33.0117 34.5557 31.9807 34.5557 30.709C34.5557 29.437 33.5488 28.4062 32.3071 28.4062ZM50.0176 38.4475C50.0176 36.4282 51.6338 34.7913 53.6279 34.7913C55.6221 34.7913 57.2383 36.4282 57.2383 38.4475C57.2383 40.4668 55.6221 42.1038 53.6279 42.1038C51.6338 42.1038 50.0176 40.4668 50.0176 38.4475ZM53.6279 36.8364C52.7637 36.8364 52.0625 37.5576 52.0625 38.4475C52.0625 39.3372 52.7637 40.0586 53.6279 40.0586C54.4922 40.0586 55.1934 39.3372 55.1934 38.4475C55.1934 37.5576 54.4922 36.8364 53.6279 36.8364ZM29.5557 52.4072C29.5557 48.8052 32.4395 45.8853 35.9961 45.8853C39.5532 45.8853 42.4365 48.8052 42.4365 52.4072C42.4365 56.0093 39.5532 58.9292 35.9961 58.9292C32.4395 58.9292 29.5557 56.0093 29.5557 52.4072ZM35.9961 47.9304C33.5688 47.9304 31.6011 49.9348 31.6011 52.4072C31.6011 54.8796 33.5688 56.884 35.9961 56.884C38.4233 56.884 40.3911 54.8796 40.3911 52.4072C40.3911 49.9348 38.4233 47.9304 35.9961 47.9304Z" clip-rule="evenodd" fill="#FFFFFF" fill-opacity="1.000000" fill-rule="evenodd"/>
</svg>
