<svg width="79.000000" height="81.000000" viewBox="0 0 79 81" fill="none" xmlns="http://www.w3.org/2000/svg" xmlns:xlink="http://www.w3.org/1999/xlink">
	<desc>
			Created with Pixso.
	</desc>
	<defs/>
	<path id="Vector" d="M31.4985 0.146484C30.6899 0.605957 30.6357 0.825684 30.6318 3.64087L30.6284 6.28442L30.1143 6.36963C28.6357 6.61475 28.8447 6.80835 27.5127 3.95605C25.8481 0.391602 25.7715 0.360596 22.4307 1.90259C20.1021 2.97729 19.6313 3.40454 19.7676 4.32178C19.8062 4.5835 20.3081 5.81348 20.8823 7.05518C21.457 8.29688 21.9272 9.36865 21.9272 9.4375C21.9272 9.50635 21.46 9.94873 20.8896 10.4209C20.3188 10.8933 19.4189 11.7969 18.8896 12.4292L17.9277 13.5784L12.5708 13.5784C7.4248 13.5784 7.20117 13.5911 6.89746 13.895C6.4707 14.3215 6.47949 15.1782 6.91357 15.5718C7.22217 15.8513 7.58203 15.8765 11.8706 15.9194L16.4946 15.9656L15.9395 17.4624L15.3843 18.959L11.3994 18.959C7.60742 18.959 7.39453 18.9749 6.99756 19.2871C6.47559 19.6982 6.42627 20.5452 6.89746 21.0164C7.19678 21.3159 7.4248 21.333 11.1084 21.333L15.0029 21.333L14.9072 21.689C14.855 21.885 14.811 22.7927 14.8096 23.7068L14.8071 25.3684L14.0566 25.8428C13.644 26.1035 12.7896 26.7275 12.1587 27.2292C11.0918 28.0771 11.0107 28.1846 11.0107 28.7483C11.0107 29.4856 11.3877 29.8787 12.0952 29.8787C12.4663 29.8787 12.9268 29.6333 13.8232 28.958C19.0039 25.0544 23.9292 23.5483 31.5132 23.5483C34.8198 23.5483 36.6104 23.7117 39.5483 24.2808C44.6465 25.2688 48.9229 27.3564 50.6025 29.6772C53.6733 33.9216 56.1499 41.6067 57.1436 49.9768C57.4731 52.7517 57.52 58.5425 57.2305 60.738C56.7368 64.4812 55.5269 67.8081 54.1626 69.1729C53.0981 70.2375 52.0435 70.5825 49.5767 70.6721C44.9985 70.8386 39.75 69.3931 32.8433 66.0637C26.5718 63.0403 20.2749 58.4106 15.9985 53.6785C14.4375 51.9509 12.751 49.7883 12.751 49.5139C12.751 49.4158 13.0786 49.3438 13.5244 49.3438C14.0361 49.3438 14.4043 49.25 14.6123 49.0669C14.7852 48.9146 15.7002 47.1343 16.6455 45.1106C17.5913 43.0869 18.4077 41.4312 18.4604 41.4312C18.5122 41.4312 20.1011 45.0808 21.9902 49.5417C25.4341 57.6716 25.7891 58.3643 26.5151 58.3643C27.2798 58.3643 27.5278 57.8164 29.7598 51.198C30.9565 47.6482 31.958 44.7656 31.9849 44.7922C32.0117 44.8191 32.3579 45.7239 32.7544 46.8027C33.1514 47.8818 33.5938 48.895 33.7378 49.0542C33.9702 49.3113 34.2773 49.3438 36.4712 49.3438C39.355 49.3438 39.6465 49.2437 39.6465 48.2515C39.6465 47.2441 39.2925 47.0625 37.1504 46.97L35.3198 46.8909L34.1172 43.5916C33.3828 41.5767 32.7969 40.2058 32.6113 40.0703C32.1851 39.7583 31.4731 39.7947 31.1216 40.1465C30.9497 40.3184 29.897 43.2285 28.6313 47.0305C27.4253 50.6528 26.4023 53.6145 26.3584 53.6118C26.314 53.6091 24.7847 50.0737 22.96 45.7549C21.1348 41.4363 19.5103 37.7354 19.3491 37.5305C18.9668 37.0444 18.2344 37.0371 17.7671 37.5144C17.5752 37.7102 16.457 39.9187 15.2822 42.4219L13.1465 46.9734L12.1182 46.9321L11.0898 46.8909L10.5903 45.8623C8.73242 42.0354 8.17822 37.73 9.18506 34.9426C9.79736 33.2478 9.85254 32.6768 9.44385 32.2676C9.0249 31.8486 8.15283 31.8264 7.79199 32.2256C7.37939 32.6816 6.78564 34.2859 6.49072 35.7427C6.16357 37.3567 6.2583 39.8401 6.72559 41.906C7.03369 43.2654 7.85498 45.7407 8.25928 46.5269L8.47949 46.9543L4.58936 47.0017L0.699219 47.0491L0.306152 47.5066C-0.12207 48.0051 -0.100586 48.5461 0.368652 49.0669C0.595215 49.3184 1.03516 49.3438 5.16504 49.3438L9.7124 49.3438L10.7422 50.8867C12.1865 53.0505 13.9482 55.1057 16.3682 57.45L18.4463 59.4631L18.4463 66.3401L18.4463 73.2173L18.8633 73.5452C19.4165 73.9802 19.9565 73.9595 20.4312 73.4846L20.8193 73.0962L20.8193 67.2185L20.8193 61.3408L21.5713 61.9106C21.9844 62.2241 23.3003 63.1392 24.4956 63.9436L26.668 65.4065L26.6709 69.3118L26.6733 73.2173L27.0903 73.5452C27.6431 73.9802 28.1836 73.9595 28.6582 73.4846C29.0444 73.0981 29.0464 73.0806 29.0464 69.9329L29.0464 66.7695L30.9844 67.7771C33.103 68.8789 36.8252 70.5042 38.2622 70.9551L39.1719 71.2405L39.1719 75.4609C39.1719 78.134 39.2358 79.8652 39.3467 80.1831C39.6479 81.0476 40.5938 81.2747 41.2007 80.6284C41.5356 80.2717 41.5449 80.1533 41.5449 76.1792L41.5449 72.0964L41.98 72.1714C42.2192 72.2124 43.1396 72.3989 44.0254 72.5857C45.6289 72.9236 49.2344 73.2976 49.4722 73.1506C49.5405 73.1082 49.6182 74.7197 49.6445 76.7317C49.6919 80.3586 49.6958 80.3926 50.0659 80.6924C50.5493 81.0833 51.0498 81.0757 51.5669 80.6689L51.981 80.343L52.0234 76.6262L52.0654 72.9092L53.1108 72.5439C55.1621 71.8271 56.4487 70.5996 57.6069 68.2551C59.3872 64.6504 60.1431 59.2791 59.7598 52.9468C59.6548 51.2065 59.5532 49.7017 59.5347 49.6028C59.5151 49.4966 59.7271 49.4229 60.0532 49.4229L60.605 49.4229L62.6885 53.2124C63.8345 55.2966 64.8989 57.0947 65.0542 57.2083C65.4839 57.5225 66.1318 57.4553 66.5034 57.0586C66.7822 56.7612 67.0122 55.6875 67.9014 50.5308C68.4868 47.1362 69.0112 44.3052 69.0669 44.2397C69.123 44.1743 69.8413 45.2056 70.6631 46.5312C71.4854 47.8569 72.2827 49.0679 72.4351 49.2219C72.6787 49.4688 73.0405 49.502 75.4629 49.502C78.4829 49.502 78.7554 49.4255 78.9702 48.5168C79.0522 48.1714 78.9775 47.9907 78.5938 47.6069L78.1152 47.1282L75.9824 47.1282L73.8496 47.1282L71.959 44.0818C70.9189 42.4065 69.9424 40.7861 69.7886 40.4817C69.3647 39.6414 69.0693 39.3738 68.5635 39.3738C67.8652 39.3738 67.5176 39.6348 67.3472 40.2864C67.2622 40.6113 66.7593 43.3696 66.23 46.416C65.7007 49.4624 65.2134 52.0874 65.147 52.2488C65.0537 52.4775 64.7197 51.981 63.6411 50.0071C62.8789 48.6123 62.1411 47.3762 62.001 47.2603C61.8501 47.1345 61.2231 47.0269 60.4526 46.9944L59.1582 46.9397L58.876 45.4119C58.146 41.4631 56.6914 36.4995 55.3208 33.281C54.5093 31.3745 53.9482 30.3501 52.8379 28.7451L51.999 27.5325L51.979 24.4724L51.9595 21.4121L54.2803 21.333C56.3423 21.2627 56.626 21.2195 56.8252 20.9465C57.1973 20.436 57.1074 19.6609 56.6323 19.2871C56.2266 18.968 56.0483 18.959 50.0039 18.959C44.127 18.959 43.7349 18.9771 42.7095 19.2937C41.7603 19.5872 41.4917 19.7651 40.5479 20.7266L39.4697 21.8242L37.7783 21.5391C36.4097 21.3081 35.2104 21.2551 31.4985 21.2603C28.8521 21.2639 26.5088 21.3408 25.9614 21.4419C25.4395 21.5381 24.9839 21.5901 24.9492 21.5571C24.9146 21.5242 25.1143 21.0349 25.3921 20.4697C26.292 18.6418 27.9268 17.1409 29.8208 16.4043C30.5278 16.1292 31.1772 16.0405 33.0244 15.9663C34.999 15.887 35.3911 15.8286 35.6748 15.5718C36.1089 15.1782 36.1177 14.3215 35.6909 13.895C35.4062 13.6101 35.1655 13.5786 33.2783 13.5808C29.5586 13.585 27.6587 14.3203 25.3262 16.6589C23.8032 18.1855 23.1372 19.2917 22.6201 21.1521L22.3564 22.1011L20.5991 22.6694C19.6328 22.9822 18.4575 23.4163 17.9878 23.6343L17.1333 24.0308L17.2236 22.6389C17.5083 18.2471 19.5234 14.5298 23.2207 11.5781C24.8506 10.2769 24.8638 10.0027 23.4409 6.91968C22.8691 5.68115 22.4019 4.63989 22.4019 4.6062C22.4019 4.5144 24.3521 3.60889 24.5503 3.60864C24.644 3.6084 25.209 4.64575 25.8052 5.91357C27.3408 9.17822 27.3867 9.20679 30.3877 8.7561C32.8008 8.39404 33.0015 8.07812 33.0015 4.64209L33.0015 2.34253L34.2671 2.34253L35.5327 2.34253L35.5327 4.88232C35.5327 8.25586 35.6846 8.53979 37.7158 8.96973C39.5386 9.35571 40.439 9.04004 40.9219 7.84497C41.0371 7.5603 41.5771 6.38135 42.1221 5.2251L43.1133 3.12305L44.2275 3.68408C44.8403 3.99292 45.3418 4.2749 45.3418 4.31079C45.3418 4.34668 44.8076 5.52612 44.1553 6.9314C43.5029 8.33691 42.9282 9.64966 42.8779 9.84863C42.7266 10.4529 43.1904 11.2427 44.186 12.075C44.7065 12.5103 45.2539 13.0266 45.4028 13.2224L45.6729 13.5784L42.8354 13.5784C40.3135 13.5784 39.9575 13.6108 39.6372 13.8704C39.1138 14.2944 39.1494 15.1011 39.7124 15.5857L40.1479 15.9604L48.2656 15.9167C55.9927 15.8752 56.3994 15.8586 56.7163 15.5718C57.1509 15.1782 57.1592 14.3215 56.7329 13.895C56.4341 13.5962 56.2056 13.5784 52.6406 13.5784L48.8647 13.5784L47.8984 12.4097C47.3667 11.7668 46.5801 10.9463 46.1504 10.5862L45.3687 9.93164L46.7002 7.07983C47.4321 5.51123 48.0312 4.08496 48.0312 3.9104C48.0312 3.73584 47.9185 3.375 47.7812 3.10864C47.5791 2.71777 47.1211 2.42993 45.4028 1.61328C43.1299 0.532715 42.3867 0.384277 41.7471 0.88208C41.5542 1.03271 40.8164 2.40186 40.1084 3.92505C39.3999 5.44824 38.8105 6.70605 38.7983 6.71997C38.7861 6.73413 38.5845 6.70874 38.3511 6.66382L37.9258 6.58228L37.8765 3.75317L37.8267 0.924561L37.3887 0.486084L36.9502 0.0478516L34.3828 0.00732422C32.6851 -0.0195312 31.7075 0.0275879 31.4985 0.146484ZM43.3784 21.5674C43.0386 21.6885 42.6206 21.9272 42.4502 22.0977C42.1426 22.4053 42.147 22.4094 43.0688 22.6748C44.6641 23.1345 47.1099 24.1465 48.3872 24.8755L49.6133 25.575L49.6113 23.8101C49.6079 21.0857 49.897 21.3315 46.7075 21.3398C44.8076 21.3447 43.812 21.4126 43.3784 21.5674Z" fill="#FFFFFF" fill-opacity="1.000000" fill-rule="evenodd"/>
</svg>
