<svg width="78.000000" height="67.000000" viewBox="0 0 78 67" fill="none" xmlns="http://www.w3.org/2000/svg" xmlns:xlink="http://www.w3.org/1999/xlink">
	<desc>
			Created with Pixso.
	</desc>
	<defs/>
	<path id="Vector" d="M36.5698 0.269287C34.6929 0.628174 33.5098 1.09985 30.3438 2.75122C25.7651 5.1394 25.3857 5.1814 21.0723 3.77686C17.7778 2.7041 16.5303 2.41724 14.5449 2.27612C10.125 1.96118 5.78027 3.40405 3.15625 6.05786C0.181152 9.06689 -0.860352 14.0713 0.765625 17.5449C2.14844 20.4985 4.80176 22.4475 8.35645 23.1208C9.25732 23.2915 10.5679 23.6863 11.2686 23.9983C12.3579 24.4832 12.7676 24.5667 14.0898 24.5723C15.4038 24.5781 15.7979 24.5029 16.6997 24.0754C17.2837 23.7986 18.0771 23.3193 18.4624 23.0105L19.1631 22.4492L20.2217 22.8044C20.8037 23.0002 21.6997 23.2163 22.2134 23.2852L23.1465 23.4104L23.2739 24.9155C23.5264 27.8975 23.9302 29.4717 25.2412 32.5845C26.3394 35.1926 26.4746 35.8721 26.6362 39.5889C26.8369 44.219 27.0894 44.9207 29.6514 47.9685C32.229 51.0344 32.4912 51.9175 32.5522 57.7292C32.6016 62.4592 32.7471 63.2646 33.8062 64.6736C35.6704 67.1543 40.0396 67.7676 42.8774 65.9465C43.9287 65.272 44.5762 64.4175 45.0767 63.0435C45.4326 62.0674 45.4727 61.5637 45.5034 57.7292C45.5483 51.9773 45.8242 51.0303 48.3184 48.0605C50.9502 44.926 51.2134 44.2107 51.4019 39.6809C51.5557 35.9768 51.748 35.022 52.8643 32.4189C53.9141 29.9712 54.4629 27.9131 54.7129 25.4883L54.9287 23.3945L55.7603 23.2869C56.2178 23.2275 57.1104 23.0159 57.7441 22.8164L58.8965 22.4539L59.5645 22.9858C61.9067 24.8521 64.1768 25.1177 67.0581 23.8623C67.6089 23.6226 68.7964 23.2866 69.6973 23.116C71.8901 22.7009 73.6699 21.8164 75.1694 20.397C77.2373 18.4402 78.0142 16.6814 78 13.9937C77.9692 8.34521 74.6812 4.29834 68.8496 2.73193C67.6221 2.40234 66.8257 2.32324 64.6919 2.31885C61.7432 2.31274 60.6719 2.51782 56.6875 3.85107C52.7139 5.18066 52.2822 5.12573 47.5747 2.69116C42.6309 0.134521 40.1411 -0.41333 36.5698 0.269287ZM37.0249 2.13281C35.6938 2.39087 33.8833 3.13989 31.02 4.6167C26.1406 7.13403 25.1616 7.22437 20.3062 5.60669C17.0342 4.51685 15.6401 4.23535 13.4907 4.23145C7.28369 4.22046 2.92578 7.33667 2.06445 12.4026C1.77393 14.1108 1.94141 15.4712 2.61133 16.8479C3.47998 18.6338 5.47754 20.3054 7.46631 20.9109C8.24268 21.1475 8.29248 21.1428 8.16748 20.8462C8.09326 20.6709 7.99365 20.0535 7.9458 19.4741C7.86084 18.4463 7.83984 18.4121 7.08301 18.0415C5.23682 17.1372 4.22363 15.5088 4.23633 13.4656C4.24951 11.3552 4.94287 9.86768 6.48975 8.63013C8.48535 7.03442 10.4424 6.3584 12.998 6.38281C17.2056 6.42285 20.46 8.49829 22.4917 12.4377C24.3018 15.9468 24.9575 18.6477 25.1929 23.5662C25.3726 27.3152 25.605 28.4438 26.749 31.1211C28.231 34.5903 28.4463 35.6069 28.6353 40.0476C28.7964 43.8369 28.8931 44.1018 31.0161 46.5872C31.8384 47.5493 32.7827 48.8811 33.1152 49.5466C34.1812 51.6797 34.3203 52.4978 34.4609 57.4531C34.5654 61.1301 34.6475 62.1011 34.9053 62.6992C35.5723 64.2468 36.4731 64.8164 38.4722 64.9551C40.3691 65.0864 41.7178 64.6907 42.4546 63.7864C43.3594 62.676 43.5776 61.4683 43.5776 57.5713C43.5776 51.6863 44.2017 49.7834 47.2949 46.2429C49.1646 44.103 49.2676 43.7913 49.4316 39.7776C49.5942 35.8096 49.8516 34.5808 51.1997 31.3376C52.5049 28.1987 52.6699 27.4231 52.855 23.5662C53.0342 19.8364 53.3213 18.1042 54.1636 15.6775C55.5029 11.8174 57.5146 8.95923 59.728 7.77197C64.0024 5.47925 68.9395 6.02173 72.0581 9.12671C73.6113 10.6738 74.2041 13.019 73.5767 15.1377C73.2964 16.0845 71.9971 17.5386 70.9927 18.0308C70.2212 18.4084 70.2002 18.4434 70.1035 19.4727C70.0488 20.0527 69.9478 20.6709 69.8784 20.8462C69.7607 21.1426 69.812 21.1472 70.5874 20.9109C72.6128 20.2942 74.5728 18.6367 75.478 16.7744C76.0063 15.6885 76.0674 15.3967 76.0615 13.9927C76.0356 8.10327 71.4878 4.22827 64.6011 4.22827C62.4688 4.22827 60.8574 4.55225 57.6895 5.61768C52.7896 7.26587 51.8057 7.16016 46.6528 4.43115C43.1416 2.57153 41.9482 2.18481 39.4819 2.10742C38.3809 2.073 37.2749 2.08447 37.0249 2.13281ZM11.1777 8.48242C9.99414 8.71631 8.29297 9.61768 7.40771 10.48C6.63525 11.2329 6.08105 12.542 6.08105 13.6155C6.08105 14.5259 6.83643 15.7063 7.70117 16.1477L8.50195 16.5564L9.56055 15.5647C12.3916 12.9126 16.3569 13.0542 19.5322 15.9211C20.7852 17.0522 21.0337 17.2053 21.8828 17.3682C22.585 17.5029 22.5845 17.4973 21.7388 15.4312C20.9321 13.4595 19.9102 11.7507 19.001 10.8552C17.0024 8.8855 13.8999 7.94434 11.1777 8.48242ZM63.3105 8.55347C60.5146 9.16895 58.5811 10.7776 57.1089 13.7131C56.0815 15.7622 55.4863 17.26 55.6387 17.4138C55.9097 17.6882 57.1621 17.0374 58.3457 16.0066C59.0713 15.3745 60.0884 14.6616 60.605 14.4219C63.3965 13.1289 66.3467 13.5537 68.4849 15.5569L69.5356 16.5408L70.2954 16.1965C72.2842 15.2957 72.4731 12.3337 70.6572 10.5127C69.3403 9.19141 66.9775 8.25244 65.0767 8.29468C64.7148 8.30273 63.9199 8.41919 63.3105 8.55347ZM36.6606 8.95605C36.4102 9.00732 35.0591 9.3479 33.6572 9.71265C31.3457 10.314 30.8682 10.3772 28.5186 10.3926C26.8398 10.4038 25.8545 10.4841 25.7197 10.6204C25.2476 11.0981 25.5132 11.6965 26.7666 12.9805C29.1616 15.4338 30.1743 18.5496 30.4761 24.3948C30.7344 29.405 31.3579 30.7964 34.9321 34.3398C36.0557 35.4541 37.1484 36.7109 37.3599 37.1326C37.5713 37.5544 37.8403 38.5076 37.9575 39.2507C38.2061 40.8235 38.3467 41.062 39.0269 41.062C39.7021 41.062 39.8696 40.7981 40.019 39.4966C40.2393 37.5864 40.8013 36.6484 43.1299 34.3052C44.2876 33.1404 45.5171 31.7566 45.8628 31.2305C47.0234 29.4614 47.5679 27.2102 47.582 24.1187C47.5957 21.125 48.2573 17.9565 49.3501 15.6467C49.8213 14.6523 50.3594 13.9058 51.2729 12.9805C52.5342 11.7034 52.8086 11.1003 52.3433 10.6299C52.2217 10.5066 51.1416 10.418 49.5449 10.4001C47.1655 10.3738 46.7207 10.3118 44.3057 9.66895C42.042 9.06641 41.3423 8.95898 39.3911 8.91431C38.1396 8.88574 36.9111 8.90454 36.6606 8.95605ZM36.9336 10.9365C36.2329 11.0742 34.6768 11.4392 33.4751 11.7476C32.2739 12.0562 30.7832 12.3652 30.1621 12.4351L29.0337 12.5615L29.6699 13.4053C31.5137 15.8484 32.4741 19.7363 32.4741 24.7576C32.4741 28.4431 32.999 29.6074 36.0435 32.6729C37.2559 33.8938 38.3843 35.1616 38.5508 35.491C38.7178 35.8203 38.9136 36.0894 38.9863 36.0891C39.0586 36.0889 39.3394 35.7368 39.6099 35.3064C39.8809 34.8762 40.9961 33.6326 42.0884 32.5427C45.0234 29.6147 45.5781 28.3232 45.5811 24.407C45.585 19.5913 46.5435 15.8435 48.4009 13.3826L49.0547 12.5159L48.3779 12.5159C48.0059 12.5159 46.1797 12.1477 44.3193 11.6973C40.4189 10.7527 38.7461 10.5806 36.9336 10.9365ZM12.6338 15.9187C9.88672 16.8188 8.99414 19.5598 10.8579 21.3701C11.6255 22.1152 13.0039 22.6418 14.1812 22.6394C15.439 22.6367 16.3232 22.2849 17.9199 21.1519L18.9976 20.3867L19.9565 20.8042C20.4839 21.0337 21.4307 21.2634 22.0596 21.3147L23.2036 21.4075L23.0913 20.5991C22.9219 19.3821 22.8867 19.3303 22.229 19.3303C20.8877 19.3303 19.7847 18.8152 18.6611 17.6643C18.0586 17.0469 17.2012 16.3916 16.7065 16.1702C15.5923 15.6714 13.7378 15.5569 12.6338 15.9187ZM62.2344 15.8191C61.2646 16.0579 60.437 16.5989 59.3667 17.6929C58.2705 18.8137 57.1533 19.3303 55.8252 19.3303C55.1675 19.3303 55.1318 19.3821 54.9629 20.5991L54.8506 21.4075L55.9941 21.3147C56.6235 21.2634 57.5723 21.033 58.1025 20.802L59.0669 20.3821L59.8315 20.9705C60.2524 21.2937 61.1143 21.8137 61.7476 22.1257C62.7749 22.6318 63.0293 22.6833 64.1152 22.6047C66.4956 22.4324 68.1514 20.9978 68.1494 19.1091C68.1475 16.7925 65.1201 15.1084 62.2344 15.8191Z" fill="#FFFFFF" fill-opacity="1.000000" fill-rule="evenodd"/>
</svg>
