<svg width="85.957520" height="78.881104" viewBox="0 0 85.9575 78.8811" fill="none" xmlns="http://www.w3.org/2000/svg" xmlns:xlink="http://www.w3.org/1999/xlink">
	<desc>
			Created with Pixso.
	</desc>
	<defs/>
	<path id="Vector" d="M28.0391 0.605225C19.624 1.3855 11.3677 5.79639 6.63721 12.0388C3.77637 15.8132 2.35596 19.5847 2.18604 23.8562C2.00732 28.3401 3.12793 32.2673 5.72168 36.2466C7.1709 38.4702 8.24365 39.6812 12.668 44.0901L16.7476 48.1548L8.7085 56.2092C3.35107 61.5764 0.631836 64.4158 0.556641 64.72C0.495117 64.9709 0.494629 65.3821 0.556152 65.6331C0.711426 66.2676 12.4824 78.0613 13.1948 78.2964C13.5566 78.4158 13.8594 78.4136 14.1943 78.2891C14.4678 78.1875 18.1284 74.6604 22.6851 70.1086L30.6953 62.1067L38.7886 70.1792C43.4028 74.7815 47.0498 78.2915 47.2729 78.344C47.4883 78.3945 47.8618 78.3628 48.103 78.2729C48.3447 78.1836 50.6338 76.0293 53.1904 73.4858L57.8389 68.8616L59.084 69.0876C60.7495 69.3901 64.666 69.3882 66.4106 69.084C73.1802 67.9033 78.8604 63.9797 82.3774 58.0544C84.5498 54.3943 85.6636 49.7683 85.4185 45.4207C84.9556 37.2095 80.1777 29.9773 72.7803 26.2903C70.1401 24.9746 67.7153 24.2991 64.5625 24.001C62.8047 23.8345 62.0552 23.8518 59.8726 24.1089L59.084 24.2019L59.084 23.3745C59.084 20.4851 57.4409 15.9907 55.2485 12.8816C53.8706 10.9282 50.0068 7.17358 48.0439 5.8811C44.0767 3.2688 39.4893 1.48926 35.0947 0.857422C32.8345 0.532471 29.9385 0.428955 28.0391 0.605225ZM28.272 3.92358C21.8926 4.52588 15.9985 7.22021 11.5239 11.5798L9.69434 13.3625L13.833 17.5112C17.2339 20.9197 18.0229 21.6326 18.2583 21.5068C20.0947 20.5242 24.2461 19.303 26.9941 18.9373C32.2256 18.2407 36.958 18.969 42.7759 21.366L43.3179 21.5894L47.3828 17.5273C49.6182 15.2932 51.4473 13.4126 51.4473 13.3481C51.4473 13.0808 48.5996 10.3909 47.23 9.3645C41.9131 5.3811 34.7158 3.31543 28.272 3.92358ZM7.05469 17.7024C5.95557 20.0281 5.61182 21.4006 5.50635 23.884C5.36816 27.1477 5.8623 29.4529 7.32959 32.3884C8.70654 35.1433 9.78516 36.4719 14.5396 41.2703L19.0635 45.8357L23.6758 41.2288L28.2876 36.6218L18.0425 26.3765L7.79736 16.1316L7.05469 17.7024ZM28.9521 40.7722L4.54834 65.1765L9.15527 69.783L13.7617 74.3896L26.877 61.2751L39.9922 48.1609L39.9922 46.6045C39.9922 42.4041 41.312 37.9395 43.606 34.3806C45.2637 31.8083 47.6392 29.3872 50.1191 27.7415C51.4189 26.8792 53.918 25.6133 54.894 25.3232C55.2832 25.2078 55.6675 25.0317 55.7485 24.9324C55.9858 24.6406 55.6523 21.8972 55.1841 20.2859C54.7241 18.7046 53.7148 16.3679 53.4917 16.3679C53.417 16.3679 42.3745 27.3499 28.9521 40.7722ZM27.1294 22.1873C25.0073 22.5186 20.5684 23.8438 20.5684 24.146C20.5684 24.2063 22.8286 26.5151 25.5913 29.2766L30.6143 34.2976L35.6353 29.2747C38.3965 26.512 40.6562 24.2034 40.6562 24.144C40.6562 23.9578 37.8271 22.9966 36.0078 22.5645C34.5571 22.22 33.7495 22.1406 31.1934 22.0913C29.5039 22.0586 27.6753 22.1018 27.1294 22.1873ZM61.1592 27.2751C48.9048 28.3884 40.7056 40.2783 44.0786 52.0427C44.6304 53.968 45.8979 56.5291 47.0923 58.1318C48.251 59.6875 50.3076 61.687 51.7705 62.6804C53.3184 63.7314 56.0146 64.9631 57.8657 65.4648C59.373 65.873 59.749 65.9075 62.7363 65.9075C65.7275 65.9075 66.0981 65.8735 67.6152 65.4626C73.9678 63.7419 79.1611 58.8459 81.1821 52.6724C84.6743 42.0044 78.3701 30.6116 67.4272 27.8127C66.1846 27.4949 63.2783 27.137 62.3452 27.1868C62.0581 27.2024 61.5244 27.2419 61.1592 27.2751ZM57.4741 34.4963C56.7671 34.8379 56.5938 35.564 56.5938 38.1826L56.5938 40.6062L53.96 40.6062C51.3481 40.6062 51.3228 40.6099 50.8965 41.0359C50.3037 41.6289 50.2539 42.1648 50.3149 47.3022L50.3682 51.7571L50.9102 52.2412L51.4526 52.7253L54.0117 52.7253L56.5708 52.7253L56.6235 55.3955L56.6768 58.0659L57.2188 58.5498L57.7612 59.0339L62.7363 59.0339L67.7114 59.0339L68.2534 58.5498L68.7959 58.0659L68.8486 55.3955L68.9019 52.7253L71.4766 52.7253L74.0508 52.7253L74.522 52.2544C75.1655 51.6108 75.2197 51.074 75.1577 45.9709L75.1045 41.6235L74.6167 41.115L74.1294 40.6062L71.5156 40.6062L68.9019 40.6062L68.8486 37.936L68.7959 35.2656L68.2534 34.7817L67.7114 34.2976L62.7749 34.3088C59.6562 34.3159 57.7046 34.385 57.4741 34.4963ZM59.9141 40.1885L59.9141 42.759L59.4297 43.3013L58.9458 43.8435L56.2754 43.8997L53.6055 43.9558L53.6055 46.6804L53.6055 49.405L56.0879 49.405C59.8687 49.405 59.9141 49.4502 59.9141 53.2151L59.9141 55.7136L62.7363 55.7136L65.5586 55.7136L65.562 53.0989C65.5674 49.4282 65.5913 49.405 69.3657 49.405L71.8672 49.405L71.8672 46.6804L71.8672 43.9558L69.1968 43.8997L66.5269 43.8435L66.0425 43.3013L65.5586 42.759L65.5586 40.1885L65.5586 37.6179L62.7363 37.6179L59.9141 37.6179L59.9141 40.1885ZM36.792 56.0088L33.02 59.783L40.3242 67.0857L47.6279 74.3882L50.8657 71.1536C52.6465 69.3745 54.1035 67.8706 54.1035 67.8115C54.1035 67.7522 53.5264 67.4297 52.8208 67.0945C47.4546 64.5461 42.8457 59.2698 41.1396 53.7214C40.9292 53.0366 40.7134 52.4219 40.6602 52.3555C40.6069 52.2888 38.8662 53.9329 36.792 56.0088Z" fill="#FFFFFF" fill-opacity="1.000000" fill-rule="evenodd"/>
	<path id="Vector" d="M6.63721 12.0388C3.77637 15.8132 2.35596 19.5847 2.18604 23.8562C2.00732 28.3401 3.12793 32.2673 5.72168 36.2466C7.1709 38.4702 8.24365 39.6812 12.668 44.0901L16.7476 48.1548L8.7085 56.2092C3.35107 61.5764 0.631836 64.4158 0.556641 64.72C0.495117 64.9709 0.494629 65.3821 0.556152 65.6331C0.711426 66.2676 12.4824 78.0613 13.1948 78.2964C13.5566 78.4158 13.8594 78.4136 14.1943 78.2891C14.4678 78.1875 18.1284 74.6604 22.6851 70.1086L30.6953 62.1067L38.7886 70.1792C43.4028 74.7815 47.0498 78.2915 47.2729 78.344C47.4883 78.3945 47.8618 78.3628 48.103 78.2729C48.3447 78.1836 50.6338 76.0293 53.1904 73.4858L57.8389 68.8616L59.084 69.0876C60.7495 69.3901 64.666 69.3882 66.4106 69.084C73.1802 67.9033 78.8604 63.9797 82.3774 58.0544C84.5498 54.3943 85.6636 49.7683 85.4185 45.4207C84.9561 37.2095 80.1777 29.9773 72.7803 26.2903C70.1401 24.9746 67.7153 24.2991 64.5625 24.001C62.8047 23.8345 62.0552 23.8518 59.8726 24.1089L59.084 24.2019L59.084 23.3745C59.084 20.4851 57.4409 15.9907 55.2485 12.8816C53.8706 10.9282 50.0068 7.17358 48.0439 5.8811C44.0767 3.2688 39.4893 1.48926 35.0947 0.857422C32.8345 0.532471 29.9385 0.428955 28.0391 0.605225C19.624 1.3855 11.3677 5.79639 6.63721 12.0388ZM11.5239 11.5798L9.69434 13.3625L13.833 17.5112C17.2339 20.9197 18.0229 21.6326 18.2583 21.5068C20.0947 20.5242 24.2461 19.303 26.9941 18.9373C32.2256 18.2407 36.958 18.969 42.7759 21.366L43.3179 21.5894L47.3828 17.5273C49.6182 15.2932 51.4473 13.4126 51.4473 13.3481C51.4473 13.0808 48.5996 10.3909 47.23 9.3645C41.9131 5.3811 34.7158 3.31543 28.272 3.92358C21.8926 4.52588 15.9985 7.22021 11.5239 11.5798ZM5.50635 23.884C5.36816 27.1477 5.8623 29.4529 7.32959 32.3884C8.70654 35.1433 9.78516 36.4719 14.5396 41.2703L19.0635 45.8357L23.6758 41.2288L28.2876 36.6218L18.0425 26.3765L7.79736 16.1316L7.05469 17.7024C5.95557 20.0281 5.61182 21.4006 5.50635 23.884ZM4.54834 65.1765L9.15527 69.783L13.7617 74.3896L26.877 61.2751L39.9922 48.1609L39.9922 46.6045C39.9922 42.4041 41.312 37.9395 43.606 34.3806C45.2637 31.8083 47.6392 29.3872 50.1191 27.7415C51.4189 26.8792 53.918 25.6133 54.894 25.3232C55.2832 25.2075 55.6675 25.0317 55.7485 24.9324C55.9858 24.6406 55.6523 21.8972 55.1841 20.2859C54.7241 18.7046 53.7148 16.3679 53.4917 16.3679C53.417 16.3679 42.3745 27.3499 28.9521 40.7722L4.54834 65.1765ZM20.5684 24.146C20.5684 24.2063 22.8286 26.5151 25.5913 29.2766L30.6143 34.2976L35.6353 29.2747C38.3965 26.512 40.6562 24.2034 40.6562 24.144C40.6562 23.9578 37.8271 22.9966 36.0078 22.5645C34.5571 22.22 33.7495 22.1406 31.1934 22.0913C29.5039 22.0586 27.6753 22.1018 27.1294 22.1873C25.0073 22.5186 20.5684 23.8438 20.5684 24.146ZM44.0786 52.0427C44.6304 53.968 45.8979 56.5291 47.0923 58.1318C48.251 59.6875 50.3076 61.687 51.7705 62.6804C53.3184 63.7314 56.0146 64.9631 57.8657 65.4648C59.373 65.873 59.749 65.9075 62.7363 65.9075C65.7275 65.9075 66.0981 65.8735 67.6152 65.4626C73.9678 63.7419 79.1611 58.8459 81.1821 52.6724C84.6743 42.0044 78.3701 30.6116 67.4272 27.8127C66.1846 27.4949 63.2783 27.137 62.3452 27.1868C62.0581 27.2024 61.5244 27.2419 61.1592 27.2751C48.9048 28.3884 40.7056 40.2783 44.0786 52.0427ZM56.5938 38.1826L56.5938 40.6062L53.96 40.6062C51.3481 40.6062 51.3228 40.6099 50.8965 41.0359C50.3037 41.6289 50.2539 42.1648 50.3149 47.3022L50.3682 51.7571L50.9102 52.2412L51.4526 52.7253L54.0117 52.7253L56.5708 52.7253L56.6235 55.3955L56.6768 58.0659L57.2188 58.5498L57.7612 59.0339L62.7363 59.0339L67.7114 59.0339L68.2534 58.5498L68.7959 58.0659L68.8486 55.3955L68.9019 52.7253L71.4766 52.7253L74.0508 52.7253L74.522 52.2544C75.1655 51.6108 75.2197 51.074 75.1577 45.9709L75.1045 41.6235L74.6167 41.115L74.1294 40.6062L71.5156 40.6062L68.9019 40.6062L68.8486 37.936L68.7959 35.2656L68.2534 34.7817L67.7114 34.2976L62.7749 34.3088C59.6562 34.3159 57.7046 34.385 57.4741 34.4963C56.7671 34.8379 56.5938 35.564 56.5938 38.1826ZM59.9141 42.759L59.4297 43.3013L58.9458 43.8435L56.2754 43.8997L53.6055 43.9558L53.6055 46.6804L53.6055 49.405L56.0879 49.405C59.8687 49.405 59.9141 49.4502 59.9141 53.2151L59.9141 55.7136L62.7363 55.7136L65.5586 55.7136L65.562 53.0989C65.5674 49.4282 65.5913 49.405 69.3657 49.405L71.8672 49.405L71.8672 46.6804L71.8672 43.9558L69.1968 43.8997L66.5269 43.8435L66.0425 43.3013L65.5586 42.759L65.5586 40.1885L65.5586 37.6179L62.7363 37.6179L59.9141 37.6179L59.9141 40.1885L59.9141 42.759ZM33.02 59.783L40.3242 67.0857L47.6279 74.3882L50.8657 71.1536C52.6465 69.3745 54.1035 67.8706 54.1035 67.8115C54.1035 67.7522 53.5264 67.4297 52.8208 67.0945C47.4546 64.5461 42.8457 59.2698 41.1396 53.7214C40.9292 53.0366 40.7134 52.4219 40.6602 52.3555C40.6069 52.2888 38.8662 53.9329 36.792 56.0088L33.02 59.783Z" stroke="#688AC5" stroke-opacity="1.000000" stroke-width="1.000000"/>
</svg>
