<svg width="77.000000" height="77.000000" viewBox="0 0 77 77" fill="none" xmlns="http://www.w3.org/2000/svg" xmlns:xlink="http://www.w3.org/1999/xlink">
	<desc>
			Created with Pixso.
	</desc>
	<defs>
		<clipPath id="clip364_2201">
			<rect id="Traced Image" width="77.000000" height="77.000000" fill="white" fill-opacity="0"/>
		</clipPath>
	</defs>
	<rect id="Traced Image" width="77.000000" height="77.000000" fill="#FFFFFF" fill-opacity="0"/>
	<g clip-path="url(#clip364_2201)">
		<path id="Vector" d="M27.2241 0.297119C27.061 0.460449 26.8926 0.748047 26.8501 0.936279C26.8076 1.12451 24.7739 14.6445 22.3315 30.9807C19.8887 47.3169 17.8535 60.8645 17.8081 61.0867C17.7266 61.4888 17.7231 61.4871 16.8501 60.614C16.2739 60.0378 15.5718 59.5391 14.7998 59.1575C13.6411 58.585 13.6025 58.5774 11.8809 58.5774C10.1562 58.5774 10.1216 58.5845 8.95361 59.1616C6.76807 60.2417 5.05469 62.5051 4.44385 65.1194C4.11279 66.5352 4.14258 69.0151 4.50732 70.4419C5.16992 73.032 6.96533 75.3684 9.09521 76.4111C10.1055 76.9058 10.21 76.925 11.8809 76.925C13.5513 76.925 13.6558 76.9058 14.666 76.4111C16.1582 75.6804 17.6543 74.1514 18.4609 72.5317C19.3374 70.7722 19.6006 69.4377 19.5239 67.1375L19.4619 65.2698L22.1147 65.2698C25.0981 65.2698 25.2656 65.2124 25.2656 64.1909C25.2656 63.2422 25.0386 63.1643 22.2832 63.1643C20.4414 63.1643 19.8501 63.1187 19.8452 62.9763C19.8418 62.873 21.041 54.752 22.5098 44.9294L25.1807 27.0706L28.0054 27.0706C29.5586 27.0706 30.8301 27.0928 30.8301 27.1199C30.8301 27.147 32.0479 35.1499 33.5366 44.9036C35.0254 54.6575 36.2432 62.7563 36.2437 62.9011C36.2441 63.1428 36.0044 63.1643 33.3115 63.1643C30.5791 63.1643 30.3579 63.1848 30.0781 63.4651C29.6914 63.8516 29.6914 64.5823 30.0781 64.969C30.3589 65.25 30.5791 65.2698 33.4307 65.2698L36.4834 65.2698L36.4209 67.1375C36.3442 69.4377 36.6074 70.7722 37.4839 72.5317C38.2905 74.1514 39.7866 75.6804 41.2788 76.4111C42.2891 76.9058 42.3936 76.925 44.0645 76.925C45.7349 76.925 45.8394 76.9058 46.8496 76.4111C48.9795 75.3684 50.7749 73.032 51.4375 70.4419C51.8022 69.0151 51.832 66.5352 51.501 65.1194C50.8901 62.5051 49.1772 60.2417 46.9912 59.1616C45.8237 58.5845 45.7886 58.5774 44.0645 58.5774C42.3452 58.5774 42.3018 58.5859 41.1577 59.1511C40.4585 59.4968 39.6689 60.0452 39.1729 60.5295C38.4194 61.2649 38.3423 61.3062 38.2725 61.0083C38.2305 60.8293 36.1372 47.1582 33.6211 30.6282C30.0088 6.896 28.9917 0.513428 28.7866 0.286865C28.4414 -0.0949707 27.6108 -0.0893555 27.2241 0.297119ZM67.6006 1.18921C65.5654 2.18555 65.0747 2.49414 64.4189 3.1897C63.5356 4.12695 62.8979 5.30005 62.3892 6.92334C62.0889 7.88086 62.0376 8.3562 62.0415 10.1516C62.0474 12.9731 62.4995 15.0896 64.0903 19.7432C64.9746 22.3293 64.9727 22.4026 63.9834 24.1003L63.3042 25.2659L62.2798 25.2659C60.5728 25.2659 60.749 22.4265 60.7939 49.1914L60.833 72.5637L61.3101 73.5715C61.9175 74.8535 62.9043 75.8403 64.1865 76.4478C65.1196 76.8894 65.3115 76.925 66.7734 76.925C68.2354 76.925 68.4272 76.8894 69.3604 76.4478C70.6421 75.8403 71.6289 74.8535 72.2363 73.5715L72.7139 72.5637L72.7524 49.2168C72.7915 26.0085 72.79 25.8684 72.4893 25.5679C72.3232 25.4019 72.0181 25.2659 71.8115 25.2659L71.4355 25.2659L71.4355 12.8818C71.4355 1.07544 71.4224 0.486328 71.1602 0.249023C70.6831 -0.182617 70.0723 -0.0212402 67.6006 1.18921ZM67.7539 3.62671C67.0112 4.0376 66.2461 4.52173 66.0532 4.70288C65.5156 5.20801 64.6904 7.0166 64.4248 8.27173C63.9521 10.5068 64.2798 12.509 66.1606 18.8743C67.2163 22.4473 67.2231 22.5847 66.4424 24.2036L65.9297 25.2659L67.6299 25.2659L69.3301 25.2659L69.3301 14.0618C69.3301 7.89941 69.2793 2.86255 69.2173 2.86865C69.1548 2.87476 68.4966 3.21582 67.7539 3.62671ZM27.9287 9.02368C27.834 9.25903 25.5664 24.3477 25.5664 24.7405C25.5664 24.9307 25.9478 24.9651 28.0503 24.9651L30.5347 24.9651L30.4565 24.6267C30.4136 24.4404 29.8687 20.9045 29.2461 16.7688C27.9346 8.0625 28.0479 8.72656 27.9287 9.02368ZM62.8979 49.5916C62.9351 70.1245 62.9575 71.8545 63.1938 72.3757C63.8945 73.9219 65.1636 74.7744 66.7646 74.7744C67.8838 74.7744 68.7935 74.365 69.5605 73.5159C70.6987 72.2559 70.6035 74.3496 70.6484 49.5916L70.689 27.3713L66.7734 27.3713L62.8574 27.3713L62.8979 49.5916ZM65.0669 42.0837C64.8486 42.3252 64.8184 42.8469 64.8184 46.3467C64.8184 50.8162 64.8223 50.8323 65.897 50.8323C66.9092 50.8323 66.9238 50.7676 66.9238 46.2944C66.9238 42.6221 66.9019 42.2869 66.6484 42.0576C66.2769 41.7212 65.3818 41.7361 65.0669 42.0837ZM65.0669 53.363C64.8413 53.6125 64.8184 54.4624 64.8184 62.4617C64.8184 71.085 64.8247 71.292 65.1191 71.5862C65.2861 71.7532 65.6201 71.887 65.8711 71.887C66.1216 71.887 66.4556 71.7532 66.623 71.5862C66.917 71.292 66.9238 71.085 66.9238 62.4355C66.9238 54.0532 66.9092 53.5728 66.6484 53.3369C66.2769 53.0005 65.3818 53.0154 65.0669 53.363ZM11.1484 60.7756C10.1177 60.9688 9.271 61.4534 8.4541 62.3171C7.07666 63.7729 6.44141 65.4893 6.44629 67.7395C6.4541 71.6177 8.87842 74.7412 11.8809 74.7412C14.1392 74.7412 15.9785 73.1235 16.9248 70.3044C17.4009 68.8855 17.4614 66.8269 17.0674 65.4614C16.1577 62.3101 13.6313 60.3101 11.1484 60.7756ZM43.332 60.7756C42.3013 60.9688 41.4546 61.4534 40.6377 62.3171C39.2603 63.7729 38.625 65.4893 38.6299 67.7395C38.6377 71.6177 41.062 74.7412 44.0645 74.7412C46.3228 74.7412 48.1621 73.1235 49.1084 70.3044C49.5845 68.8855 49.645 66.8269 49.251 65.4614C48.3413 62.3101 45.8149 60.3101 43.332 60.7756Z" fill="#FFFFFF" fill-opacity="1.000000" fill-rule="evenodd"/>
	</g>
</svg>
