<svg width="34" height="35" viewBox="0 0 34 35" fill="none" xmlns="http://www.w3.org/2000/svg">
<path d="M14.6744 5.97698C14.6744 4.62007 14.1354 3.31872 13.1759 2.35924C12.2164 1.39975 10.9151 0.860718 9.55816 0.860718C8.20124 0.860718 6.8999 1.39975 5.94041 2.35924C4.98093 3.31872 4.4419 4.62007 4.4419 5.97698C4.4419 7.3339 4.98093 8.63524 5.94041 9.59473C6.8999 10.5542 8.20124 11.0932 9.55816 11.0932C10.9151 11.0932 12.2164 10.5542 13.1759 9.59473C14.1354 8.63524 14.6744 7.3339 14.6744 5.97698ZM6.30236 5.97698C6.30236 5.54943 6.38657 5.12605 6.55019 4.73104C6.71381 4.33603 6.95363 3.97711 7.25596 3.67478C7.55829 3.37245 7.91721 3.13263 8.31222 2.96901C8.70723 2.80539 9.1306 2.72118 9.55816 2.72118C9.98572 2.72118 10.4091 2.80539 10.8041 2.96901C11.1991 3.13263 11.558 3.37245 11.8604 3.67478C12.1627 3.97711 12.4025 4.33603 12.5661 4.73104C12.7298 5.12605 12.814 5.54943 12.814 5.97698C12.814 6.84048 12.4709 7.6686 11.8604 8.27919C11.2498 8.88977 10.4217 9.23279 9.55816 9.23279C8.69467 9.23279 7.86654 8.88977 7.25596 8.27919C6.64538 7.6686 6.30236 6.84048 6.30236 5.97698ZM3.04655 12.9537H10.8289C10.5237 13.5305 10.2968 14.1556 10.1628 14.8142H3.04655C2.79984 14.8142 2.56323 14.9122 2.38878 15.0866C2.21433 15.2611 2.11632 15.4977 2.11632 15.7444V16.6746C2.11632 19.0188 4.16097 21.5379 7.87631 22.1258C7.27724 22.5351 6.77863 23.0802 6.42329 23.7146C2.49771 22.6523 0.255859 19.6272 0.255859 16.6746V15.7444C0.255859 15.0043 0.549878 14.2944 1.07323 13.7711C1.59659 13.2477 2.30641 12.9537 3.04655 12.9537ZM13.054 12.9537C13.9916 11.8188 15.4112 11.0932 17 11.0932C18.1142 11.0913 19.1984 11.4539 20.0872 12.1257C20.976 12.7976 21.6207 13.7417 21.9228 14.8142C22.1921 15.7714 22.1769 16.7863 21.8791 17.735C21.5813 18.6837 21.0138 19.5252 20.2459 20.1569C19.4779 20.7885 18.5427 21.183 17.5544 21.2921C16.566 21.4012 15.5673 21.2203 14.68 20.7714C13.9969 20.4237 13.4006 19.9269 12.9352 19.3179C12.4699 18.7088 12.1473 18.0029 11.9914 17.2524C11.8355 16.5019 11.8502 15.726 12.0344 14.9819C12.2186 14.2379 12.5659 13.5447 13.054 12.9537ZM14.0605 14.8142C13.8772 15.2007 13.7719 15.6195 13.7505 16.0467C13.7292 16.4739 13.7921 16.9012 13.9359 17.304C14.2262 18.1177 14.8278 18.7827 15.6084 19.1528C16.389 19.5228 17.2846 19.5677 18.0983 19.2774C18.9119 18.9871 19.5769 18.3855 19.947 17.6049C20.317 16.824 20.3618 15.9281 20.0713 15.1143C19.7808 14.3005 19.179 13.6354 18.3981 13.2653C17.6173 12.8953 16.7214 12.8505 15.9076 13.141C15.0938 13.4315 14.4287 14.0333 14.0586 14.8142M27.5767 23.7146C27.2223 23.0798 26.7248 22.5365 26.1237 22.1276C29.8372 21.5379 31.8837 19.0169 31.8837 16.6746V15.7444C31.8837 15.4977 31.7857 15.2611 31.6112 15.0866C31.4368 14.9122 31.2002 14.8142 30.9535 14.8142H23.8372C23.7058 14.1655 23.4821 13.539 23.173 12.9537H30.9535C31.6936 12.9537 32.4034 13.2477 32.9268 13.7711C33.4501 14.2944 33.7441 15.0043 33.7441 15.7444V16.6746C33.7441 19.6272 31.5004 22.6504 27.5767 23.7146ZM25.3479 23.8765C24.8401 23.4307 24.1873 23.1853 23.5116 23.1862H10.4884C10.1216 23.1853 9.7583 23.2568 9.41928 23.3967C9.08025 23.5366 8.77222 23.7421 8.51289 24.0014C8.25355 24.2608 8.04803 24.5688 7.90813 24.9078C7.76823 25.2468 7.69672 25.6102 7.6977 25.9769V26.9072C7.6977 30.5741 11.1582 34.349 17 34.349C22.8418 34.349 26.3023 30.5741 26.3023 26.9072V25.9769C26.3023 25.1397 25.9339 24.3881 25.3479 23.8746M9.55816 25.9769C9.55816 25.7302 9.65617 25.4936 9.83062 25.3192C10.0051 25.1447 10.2417 25.0467 10.4884 25.0467H23.5116C23.7583 25.0467 23.9949 25.1447 24.1694 25.3192C24.3438 25.4936 24.4418 25.7302 24.4418 25.9769V26.9072C24.4418 29.5825 21.7777 32.4885 17 32.4885C12.2223 32.4885 9.55816 29.5825 9.55816 26.9072V25.9769ZM24.4418 0.860718C25.7988 0.860718 27.1001 1.39975 28.0596 2.35924C29.0191 3.31872 29.5581 4.62007 29.5581 5.97698C29.5581 7.3339 29.0191 8.63524 28.0596 9.59473C27.1001 10.5542 25.7988 11.0932 24.4418 11.0932C23.0849 11.0932 21.7836 10.5542 20.8241 9.59473C19.8646 8.63524 19.3256 7.3339 19.3256 5.97698C19.3256 4.62007 19.8646 3.31872 20.8241 2.35924C21.7836 1.39975 23.0849 0.860718 24.4418 0.860718ZM24.4418 2.72118C23.5784 2.72118 22.7502 3.0642 22.1396 3.67478C21.5291 4.28536 21.186 5.11349 21.186 5.97698C21.186 6.84048 21.5291 7.6686 22.1396 8.27919C22.7502 8.88977 23.5784 9.23279 24.4418 9.23279C25.3053 9.23279 26.1335 8.88977 26.744 8.27919C27.3546 7.6686 27.6976 6.84048 27.6976 5.97698C27.6976 5.11349 27.3546 4.28536 26.744 3.67478C26.1335 3.0642 25.3053 2.72118 24.4418 2.72118Z" fill="white"/>
</svg>
