<svg width="40" height="40" viewBox="0 0 40 40" fill="none" xmlns="http://www.w3.org/2000/svg">
<path d="M19.845 39.6398C19.6509 39.6398 19.4441 39.6199 19.2245 39.5803C19.0049 39.5406 18.7974 39.4853 18.6019 39.4145L7.40953 35.207C6.69553 34.9152 6.13169 34.4675 5.71803 33.864C5.30436 33.2605 5.09753 32.6018 5.09753 31.8878C5.09753 31.7928 5.1719 31.3926 5.32065 30.6871L10.9307 14.9175H8.28928L12.9005 8.06437C13.1314 7.74279 13.2136 7.38933 13.147 7.004C13.0804 6.6215 12.9175 6.30062 12.6583 6.04137L12.3247 5.70563L4.27515 12.6862C3.64615 13.2359 3.16024 13.8833 2.8174 14.6285C2.4774 15.3737 2.3074 16.1627 2.3074 16.9957V27.9523H0.384277V16.9957C0.384277 15.8936 0.613777 14.8389 1.07278 13.8316C1.53178 12.8258 2.18132 11.956 3.0214 11.2221L12.4394 3.06638L14.4305 5.09575L15.408 2.36725C15.6715 1.62633 16.1121 1.04692 16.7298 0.629C17.346 0.209667 18.0154 0 18.7379 0C18.9391 0 19.1551 0.0247918 19.386 0.0743752C19.6155 0.123959 19.8309 0.187708 20.032 0.265625L31.2265 4.47525C31.9405 4.76708 32.4973 5.21688 32.8968 5.82463C33.2977 6.43238 33.4981 7.09254 33.4981 7.80512C33.4981 8.04596 33.4231 8.44263 33.2729 8.99513L31.847 13.0496C32.9563 13.1176 33.8403 13.5001 34.499 14.1971C35.1578 14.8941 35.4872 15.679 35.4872 16.5516C35.4872 16.8378 35.4517 17.1169 35.3809 17.3889C35.3087 17.6609 35.1953 17.9265 35.0409 18.1858H36.1013C37.0788 18.1858 37.9089 18.5272 38.5918 19.21C39.2746 19.8928 39.616 20.723 39.616 21.7005C39.616 22.5222 39.3738 23.222 38.8893 23.8C38.4076 24.378 37.7984 24.803 37.0618 25.075C37.2417 25.3512 37.3649 25.6452 37.4315 25.9569C37.4981 26.2685 37.5314 26.566 37.5314 26.8494C37.5314 27.8269 37.1971 28.657 36.5284 29.3399C35.8597 30.0227 35.0359 30.3641 34.057 30.3641H32.9584C33.1114 30.595 33.2304 30.8607 33.3154 31.161C33.4004 31.4599 33.4429 31.739 33.4429 31.9983C33.4429 32.9758 33.1029 33.8059 32.4229 34.4888C31.7387 35.1716 30.9078 35.513 29.9303 35.513H23.789L23.1877 37.315C22.9327 38.0644 22.4992 38.6389 21.8872 39.0384C21.2752 39.4393 20.5944 39.6398 19.845 39.6398ZM22.0019 34.1275L30.3489 10.7971L16.5789 5.60787L8.23403 28.9382L22.0019 34.1275ZM24.4542 33.6324H29.9303C30.3765 33.6324 30.7604 33.4716 31.082 33.15C31.4036 32.8284 31.5644 32.4445 31.5644 31.9983C31.5644 31.552 31.4036 31.1681 31.082 30.8465C30.7604 30.5249 30.3765 30.3641 29.9303 30.3641H25.659L24.4542 33.6324ZM26.2859 28.4835H34.057C34.5047 28.4835 34.8822 28.3227 35.1897 28.0011C35.4971 27.6795 35.6508 27.2956 35.6508 26.8494C35.6508 26.4031 35.4971 26.0192 35.1897 25.6976C34.8822 25.376 34.5047 25.2152 34.057 25.2152H27.5333L26.2859 28.4835ZM28.1559 23.3346H36.1013C36.5475 23.3346 36.9314 23.1738 37.253 22.8522C37.5746 22.5307 37.7354 22.1468 37.7354 21.7005C37.7354 21.2528 37.5746 20.8689 37.253 20.5487C36.9314 20.2272 36.5475 20.0664 36.1013 20.0664H29.3076L28.1559 23.3346ZM30.028 18.1858H31.9745C32.4208 18.1858 32.8047 18.025 33.1263 17.7034C33.4479 17.3818 33.6087 16.9979 33.6087 16.5516C33.6087 16.104 33.4479 15.7193 33.1263 15.3977C32.8047 15.0776 32.4208 14.9175 31.9745 14.9175H31.1819L30.028 18.1858Z" fill="white"/>
</svg>
