<svg width="48" height="48" viewBox="0 0 48 48" fill="none" xmlns="http://www.w3.org/2000/svg">
<mask id="path-1-inside-1_364_1853" fill="white">
<path d="M47.9999 21.5957C48.0066 19.901 47.5669 18.2347 46.7254 16.7654C45.8838 15.2961 44.6702 14.076 43.2075 13.2287C43.2436 12.8128 43.2436 12.3945 43.2075 11.9785C43.2075 10.0655 42.4502 8.23088 41.102 6.8782C39.7539 5.52552 37.9255 4.76559 36.0189 4.76559H35.5876C35.1886 3.65556 34.5242 2.6607 33.6528 1.86828C32.7814 1.07586 31.7295 0.51006 30.5894 0.22051C29.4493 -0.0690406 28.2558 -0.0735018 27.1136 0.207518C25.9713 0.488538 24.9153 1.04645 24.038 1.83234C23.1607 1.04645 22.1046 0.488538 20.9624 0.207518C19.8202 -0.0735018 18.6267 -0.0690406 17.4866 0.22051C16.3465 0.51006 15.2946 1.07586 14.4231 1.86828C13.5517 2.6607 12.8873 3.65556 12.4883 4.76559H12.057C10.1505 4.76559 8.32201 5.52552 6.97389 6.8782C5.62577 8.23088 4.8684 10.0655 4.8684 11.9785C4.83234 12.3945 4.83234 12.8128 4.8684 13.2287C3.50847 14 2.35703 15.0931 1.51431 16.4129C0.671587 17.7327 0.163135 19.2392 0.0332104 20.8012C-0.0967143 22.3632 0.155826 23.9334 0.76885 25.3751C1.38187 26.8168 2.3368 28.0863 3.5505 29.0731C2.76519 30.5427 2.37424 32.192 2.41601 33.8591C2.45777 35.5261 2.93083 37.1536 3.78873 38.5818C4.64664 40.0101 5.85992 41.1899 7.30948 42.0056C8.75904 42.8213 10.3951 43.2447 12.057 43.2344H12.4883C12.8873 44.3444 13.5517 45.3393 14.4231 46.1317C15.2946 46.9241 16.3465 47.4899 17.4866 47.7795C18.6267 48.069 19.8202 48.0735 20.9624 47.7925C22.1046 47.5115 23.1607 46.9535 24.038 46.1677C24.9153 46.9535 25.9713 47.5115 27.1136 47.7925C28.2558 48.0735 29.4493 48.069 30.5894 47.7795C31.7295 47.4899 32.7814 46.9241 33.6528 46.1317C34.5242 45.3393 35.1886 44.3444 35.5876 43.2344H36.0189C37.6707 43.2239 39.2917 42.7853 40.7248 41.9611C42.1579 41.1369 43.3544 39.9551 44.1982 38.5303C45.042 37.1055 45.5045 35.486 45.5408 33.829C45.5772 32.1721 45.1861 30.5338 44.4056 29.0731C45.5233 28.1752 46.4263 27.0375 47.0483 25.7436C47.6703 24.4496 47.9954 23.0323 47.9999 21.5957ZM21.6418 15.7052C21.1199 15.4057 20.575 15.1484 20.0124 14.9358C19.4086 14.7317 18.7488 14.7767 18.1781 15.0607C17.6074 15.3448 17.1726 15.8447 16.9692 16.4505C16.7658 17.0563 16.8106 17.7183 17.0937 18.2909C17.3768 18.8636 17.8751 19.2999 18.4788 19.504C19.4012 19.8385 20.1991 20.4491 20.7647 21.2531C21.3303 22.0571 21.6364 23.0159 21.6418 24V27.7267C21.1199 27.4272 20.575 27.1699 20.0124 26.9573C19.4086 26.7532 18.7488 26.7982 18.1781 27.0823C17.6074 27.3663 17.1726 27.8662 16.9692 28.472C16.7658 29.0778 16.8106 29.7398 17.0937 30.3124C17.3768 30.8851 17.8751 31.3214 18.4788 31.5255C19.4012 31.8601 20.1991 32.4706 20.7647 33.2746C21.3303 34.0786 21.6364 35.0374 21.6418 36.0215V40.8301C21.6418 41.4678 21.3893 42.0793 20.9399 42.5302C20.4906 42.9811 19.8811 43.2344 19.2456 43.2344C18.782 43.2314 18.3292 43.0935 17.9422 42.8374C17.5552 42.5814 17.2505 42.2182 17.065 41.7918C17.4668 41.5553 17.8512 41.2901 18.2152 40.9984C18.4575 40.7963 18.6578 40.5484 18.8046 40.2686C18.9513 39.9889 19.0418 39.6829 19.0707 39.3681C19.0996 39.0533 19.0665 38.7359 18.9731 38.4339C18.8798 38.132 18.7281 37.8515 18.5267 37.6083C18.3253 37.3652 18.0782 37.1643 17.7994 37.017C17.5206 36.8697 17.2157 36.779 16.9019 36.75C16.5882 36.7209 16.2718 36.7542 15.9709 36.8479C15.67 36.9415 15.3904 37.0937 15.1481 37.2958C14.2829 38.0266 13.188 38.4269 12.057 38.4258C10.786 38.4258 9.56701 37.9192 8.66826 37.0174C7.76951 36.1156 7.2646 34.8925 7.2646 33.6172C7.27607 32.7122 7.54185 31.8288 8.03138 31.0686C8.56914 31.1654 9.11446 31.2137 9.6608 31.2129C10.2963 31.2129 10.9058 30.9596 11.3552 30.5087C11.8045 30.0578 12.057 29.4463 12.057 28.8086C12.057 28.1709 11.8045 27.5594 11.3552 27.1085C10.9058 26.6576 10.2963 26.4043 9.6608 26.4043C9.09478 26.4076 8.53344 26.3014 8.00742 26.0917C7.14561 25.7799 6.39096 25.2267 5.83285 24.4977C5.27474 23.7687 4.93658 22.8945 4.85841 21.9786C4.78024 21.0627 4.96535 20.1436 5.3918 19.33C5.81826 18.5164 6.46819 17.8425 7.2646 17.3882C7.6051 17.7025 7.97412 17.9842 8.36685 18.2297C8.91974 18.5485 9.57622 18.6339 10.1919 18.4671C10.8075 18.3002 11.3319 17.8948 11.6496 17.3401C11.9674 16.7853 12.0525 16.1266 11.8862 15.5089C11.72 14.8912 11.3159 14.365 10.763 14.0462C10.4257 13.8595 10.1444 13.5855 9.94834 13.2528C9.7268 12.8668 9.62658 12.4226 9.6608 11.9785C9.6608 11.3408 9.91325 10.7293 10.3626 10.2784C10.812 9.8275 11.4215 9.57419 12.057 9.57419C12.2239 9.55083 12.3933 9.55083 12.5602 9.57419C12.687 9.96049 12.8391 10.338 13.0155 10.7042C13.172 10.9797 13.3813 11.2214 13.6314 11.4154C13.8814 11.6094 14.1672 11.7518 14.4723 11.8345C14.7775 11.9172 15.0959 11.9385 15.4093 11.8972C15.7226 11.8559 16.0248 11.7528 16.2983 11.5938C16.8295 11.2731 17.2162 10.7582 17.377 10.1575C17.5379 9.55667 17.4604 8.91671 17.1609 8.37204C16.9598 8.00324 16.8528 7.59025 16.8494 7.16989C16.8494 6.53223 17.1018 5.92069 17.5512 5.46979C18.0006 5.0189 18.6101 4.76559 19.2456 4.76559C19.8811 4.76559 20.4906 5.0189 20.9399 5.46979C21.3893 5.92069 21.6418 6.53223 21.6418 7.16989V15.7052ZM40.0685 26.0917C39.5425 26.3014 38.9812 26.4076 38.4151 26.4043C37.7796 26.4043 37.1701 26.6576 36.7208 27.1085C36.2714 27.5594 36.0189 28.1709 36.0189 28.8086C36.0189 29.4463 36.2714 30.0578 36.7208 30.5087C37.1701 30.9596 37.7796 31.2129 38.4151 31.2129C38.9615 31.2137 39.5068 31.1654 40.0446 31.0686C40.5341 31.8288 40.7999 32.7122 40.8113 33.6172C40.8113 34.8925 40.3064 36.1156 39.4077 37.0174C38.5089 37.9192 37.29 38.4258 36.0189 38.4258C34.888 38.4269 33.7931 38.0266 32.9279 37.2958C32.4385 36.8877 31.8076 36.6913 31.174 36.75C30.5404 36.8086 29.9559 37.1173 29.5492 37.6083C29.1425 38.0993 28.9468 38.7324 29.0052 39.3681C29.0637 40.0039 29.3714 40.5903 29.8607 40.9984C30.2247 41.2901 30.6091 41.5553 31.0109 41.7918C30.8255 42.2182 30.5208 42.5814 30.1337 42.8374C29.7467 43.0935 29.2939 43.2314 28.8304 43.2344C28.1949 43.2344 27.5854 42.9811 27.136 42.5302C26.6866 42.0793 26.4342 41.4678 26.4342 40.8301V36.0215C26.4395 35.0374 26.7456 34.0786 27.3113 33.2746C27.8769 32.4706 28.6747 31.8601 29.5971 31.5255C30.2009 31.3214 30.6991 30.8851 30.9822 30.3124C31.2653 29.7398 31.3101 29.0778 31.1067 28.472C30.9034 27.8662 30.4685 27.3663 29.8978 27.0823C29.3271 26.7982 28.6673 26.7532 28.0636 26.9573C27.5009 27.1699 26.9561 27.4272 26.4342 27.7267V24C26.4395 23.0159 26.7456 22.0571 27.3113 21.2531C27.8769 20.4491 28.6747 19.8385 29.5971 19.504C29.8961 19.4029 30.1723 19.2438 30.4099 19.0357C30.6476 18.8275 30.842 18.5745 30.9822 18.2909C31.1224 18.0074 31.2055 17.6989 31.2269 17.3831C31.2483 17.0674 31.2074 16.7504 31.1067 16.4505C31.0061 16.1505 30.8475 15.8734 30.64 15.635C30.4326 15.3965 30.1804 15.2014 29.8978 15.0607C29.6152 14.9201 29.3078 14.8367 28.9931 14.8152C28.6784 14.7938 28.3625 14.8347 28.0636 14.9358C27.5009 15.1484 26.9561 15.4057 26.4342 15.7052V7.16989C26.4342 6.53223 26.6866 5.92069 27.136 5.46979C27.5854 5.0189 28.1949 4.76559 28.8304 4.76559C29.4659 4.76559 30.0754 5.0189 30.5247 5.46979C30.9741 5.92069 31.2266 6.53223 31.2266 7.16989C31.2231 7.59025 31.1161 8.00324 30.9151 8.37204C30.7556 8.64502 30.6515 8.94689 30.6085 9.26034C30.5656 9.57379 30.5848 9.89266 30.6649 10.1987C30.7451 10.5047 30.8846 10.7918 31.0756 11.0436C31.2665 11.2954 31.5051 11.5069 31.7777 11.6659C32.0512 11.8249 32.3533 11.928 32.6667 11.9693C32.98 12.0106 33.2985 11.9893 33.6036 11.9067C33.9087 11.824 34.1945 11.6815 34.4446 11.4875C34.6946 11.2936 34.9039 11.0518 35.0605 10.7763C35.2398 10.3867 35.3919 9.98502 35.5157 9.57419C35.6827 9.55083 35.852 9.55083 36.0189 9.57419C36.6545 9.57419 37.2639 9.8275 37.7133 10.2784C38.1627 10.7293 38.4151 11.3408 38.4151 11.9785C38.4115 12.4498 38.2698 12.9097 38.0078 13.3009C37.8118 13.6129 37.5396 13.8694 37.217 14.0462C36.6642 14.365 36.2601 14.8912 36.0939 15.5089C35.9276 16.1266 36.0127 16.7853 36.3304 17.3401C36.6482 17.8948 37.1726 18.3002 37.7882 18.4671C38.4039 18.6339 39.0603 18.5485 39.6132 18.2297C40.0435 17.9962 40.4455 17.7139 40.8113 17.3882C41.6105 17.8345 42.2656 18.5009 42.6995 19.3088C43.1333 20.1167 43.3277 21.0322 43.2596 21.9474C43.1916 22.8625 42.864 23.739 42.3155 24.4734C41.7671 25.2078 41.0206 25.7693 40.1644 26.0917H40.0685Z"/>
</mask>
<path d="M47.9999 21.5957C48.0066 19.901 47.5669 18.2347 46.7254 16.7654C45.8838 15.2961 44.6702 14.076 43.2075 13.2287C43.2436 12.8128 43.2436 12.3945 43.2075 11.9785C43.2075 10.0655 42.4502 8.23088 41.102 6.8782C39.7539 5.52552 37.9255 4.76559 36.0189 4.76559H35.5876C35.1886 3.65556 34.5242 2.6607 33.6528 1.86828C32.7814 1.07586 31.7295 0.51006 30.5894 0.22051C29.4493 -0.0690406 28.2558 -0.0735018 27.1136 0.207518C25.9713 0.488538 24.9153 1.04645 24.038 1.83234C23.1607 1.04645 22.1046 0.488538 20.9624 0.207518C19.8202 -0.0735018 18.6267 -0.0690406 17.4866 0.22051C16.3465 0.51006 15.2946 1.07586 14.4231 1.86828C13.5517 2.6607 12.8873 3.65556 12.4883 4.76559H12.057C10.1505 4.76559 8.32201 5.52552 6.97389 6.8782C5.62577 8.23088 4.8684 10.0655 4.8684 11.9785C4.83234 12.3945 4.83234 12.8128 4.8684 13.2287C3.50847 14 2.35703 15.0931 1.51431 16.4129C0.671587 17.7327 0.163135 19.2392 0.0332104 20.8012C-0.0967143 22.3632 0.155826 23.9334 0.76885 25.3751C1.38187 26.8168 2.3368 28.0863 3.5505 29.0731C2.76519 30.5427 2.37424 32.192 2.41601 33.8591C2.45777 35.5261 2.93083 37.1536 3.78873 38.5818C4.64664 40.0101 5.85992 41.1899 7.30948 42.0056C8.75904 42.8213 10.3951 43.2447 12.057 43.2344H12.4883C12.8873 44.3444 13.5517 45.3393 14.4231 46.1317C15.2946 46.9241 16.3465 47.4899 17.4866 47.7795C18.6267 48.069 19.8202 48.0735 20.9624 47.7925C22.1046 47.5115 23.1607 46.9535 24.038 46.1677C24.9153 46.9535 25.9713 47.5115 27.1136 47.7925C28.2558 48.0735 29.4493 48.069 30.5894 47.7795C31.7295 47.4899 32.7814 46.9241 33.6528 46.1317C34.5242 45.3393 35.1886 44.3444 35.5876 43.2344H36.0189C37.6707 43.2239 39.2917 42.7853 40.7248 41.9611C42.1579 41.1369 43.3544 39.9551 44.1982 38.5303C45.042 37.1055 45.5045 35.486 45.5408 33.829C45.5772 32.1721 45.1861 30.5338 44.4056 29.0731C45.5233 28.1752 46.4263 27.0375 47.0483 25.7436C47.6703 24.4496 47.9954 23.0323 47.9999 21.5957ZM21.6418 15.7052C21.1199 15.4057 20.575 15.1484 20.0124 14.9358C19.4086 14.7317 18.7488 14.7767 18.1781 15.0607C17.6074 15.3448 17.1726 15.8447 16.9692 16.4505C16.7658 17.0563 16.8106 17.7183 17.0937 18.2909C17.3768 18.8636 17.8751 19.2999 18.4788 19.504C19.4012 19.8385 20.1991 20.4491 20.7647 21.2531C21.3303 22.0571 21.6364 23.0159 21.6418 24V27.7267C21.1199 27.4272 20.575 27.1699 20.0124 26.9573C19.4086 26.7532 18.7488 26.7982 18.1781 27.0823C17.6074 27.3663 17.1726 27.8662 16.9692 28.472C16.7658 29.0778 16.8106 29.7398 17.0937 30.3124C17.3768 30.8851 17.8751 31.3214 18.4788 31.5255C19.4012 31.8601 20.1991 32.4706 20.7647 33.2746C21.3303 34.0786 21.6364 35.0374 21.6418 36.0215V40.8301C21.6418 41.4678 21.3893 42.0793 20.9399 42.5302C20.4906 42.9811 19.8811 43.2344 19.2456 43.2344C18.782 43.2314 18.3292 43.0935 17.9422 42.8374C17.5552 42.5814 17.2505 42.2182 17.065 41.7918C17.4668 41.5553 17.8512 41.2901 18.2152 40.9984C18.4575 40.7963 18.6578 40.5484 18.8046 40.2686C18.9513 39.9889 19.0418 39.6829 19.0707 39.3681C19.0996 39.0533 19.0665 38.7359 18.9731 38.4339C18.8798 38.132 18.7281 37.8515 18.5267 37.6083C18.3253 37.3652 18.0782 37.1643 17.7994 37.017C17.5206 36.8697 17.2157 36.779 16.9019 36.75C16.5882 36.7209 16.2718 36.7542 15.9709 36.8479C15.67 36.9415 15.3904 37.0937 15.1481 37.2958C14.2829 38.0266 13.188 38.4269 12.057 38.4258C10.786 38.4258 9.56701 37.9192 8.66826 37.0174C7.76951 36.1156 7.2646 34.8925 7.2646 33.6172C7.27607 32.7122 7.54185 31.8288 8.03138 31.0686C8.56914 31.1654 9.11446 31.2137 9.6608 31.2129C10.2963 31.2129 10.9058 30.9596 11.3552 30.5087C11.8045 30.0578 12.057 29.4463 12.057 28.8086C12.057 28.1709 11.8045 27.5594 11.3552 27.1085C10.9058 26.6576 10.2963 26.4043 9.6608 26.4043C9.09478 26.4076 8.53344 26.3014 8.00742 26.0917C7.14561 25.7799 6.39096 25.2267 5.83285 24.4977C5.27474 23.7687 4.93658 22.8945 4.85841 21.9786C4.78024 21.0627 4.96535 20.1436 5.3918 19.33C5.81826 18.5164 6.46819 17.8425 7.2646 17.3882C7.6051 17.7025 7.97412 17.9842 8.36685 18.2297C8.91974 18.5485 9.57622 18.6339 10.1919 18.4671C10.8075 18.3002 11.3319 17.8948 11.6496 17.3401C11.9674 16.7853 12.0525 16.1266 11.8862 15.5089C11.72 14.8912 11.3159 14.365 10.763 14.0462C10.4257 13.8595 10.1444 13.5855 9.94834 13.2528C9.7268 12.8668 9.62658 12.4226 9.6608 11.9785C9.6608 11.3408 9.91325 10.7293 10.3626 10.2784C10.812 9.8275 11.4215 9.57419 12.057 9.57419C12.2239 9.55083 12.3933 9.55083 12.5602 9.57419C12.687 9.96049 12.8391 10.338 13.0155 10.7042C13.172 10.9797 13.3813 11.2214 13.6314 11.4154C13.8814 11.6094 14.1672 11.7518 14.4723 11.8345C14.7775 11.9172 15.0959 11.9385 15.4093 11.8972C15.7226 11.8559 16.0248 11.7528 16.2983 11.5938C16.8295 11.2731 17.2162 10.7582 17.377 10.1575C17.5379 9.55667 17.4604 8.91671 17.1609 8.37204C16.9598 8.00324 16.8528 7.59025 16.8494 7.16989C16.8494 6.53223 17.1018 5.92069 17.5512 5.46979C18.0006 5.0189 18.6101 4.76559 19.2456 4.76559C19.8811 4.76559 20.4906 5.0189 20.9399 5.46979C21.3893 5.92069 21.6418 6.53223 21.6418 7.16989V15.7052ZM40.0685 26.0917C39.5425 26.3014 38.9812 26.4076 38.4151 26.4043C37.7796 26.4043 37.1701 26.6576 36.7208 27.1085C36.2714 27.5594 36.0189 28.1709 36.0189 28.8086C36.0189 29.4463 36.2714 30.0578 36.7208 30.5087C37.1701 30.9596 37.7796 31.2129 38.4151 31.2129C38.9615 31.2137 39.5068 31.1654 40.0446 31.0686C40.5341 31.8288 40.7999 32.7122 40.8113 33.6172C40.8113 34.8925 40.3064 36.1156 39.4077 37.0174C38.5089 37.9192 37.29 38.4258 36.0189 38.4258C34.888 38.4269 33.7931 38.0266 32.9279 37.2958C32.4385 36.8877 31.8076 36.6913 31.174 36.75C30.5404 36.8086 29.9559 37.1173 29.5492 37.6083C29.1425 38.0993 28.9468 38.7324 29.0052 39.3681C29.0637 40.0039 29.3714 40.5903 29.8607 40.9984C30.2247 41.2901 30.6091 41.5553 31.0109 41.7918C30.8255 42.2182 30.5208 42.5814 30.1337 42.8374C29.7467 43.0935 29.2939 43.2314 28.8304 43.2344C28.1949 43.2344 27.5854 42.9811 27.136 42.5302C26.6866 42.0793 26.4342 41.4678 26.4342 40.8301V36.0215C26.4395 35.0374 26.7456 34.0786 27.3113 33.2746C27.8769 32.4706 28.6747 31.8601 29.5971 31.5255C30.2009 31.3214 30.6991 30.8851 30.9822 30.3124C31.2653 29.7398 31.3101 29.0778 31.1067 28.472C30.9034 27.8662 30.4685 27.3663 29.8978 27.0823C29.3271 26.7982 28.6673 26.7532 28.0636 26.9573C27.5009 27.1699 26.9561 27.4272 26.4342 27.7267V24C26.4395 23.0159 26.7456 22.0571 27.3113 21.2531C27.8769 20.4491 28.6747 19.8385 29.5971 19.504C29.8961 19.4029 30.1723 19.2438 30.4099 19.0357C30.6476 18.8275 30.842 18.5745 30.9822 18.2909C31.1224 18.0074 31.2055 17.6989 31.2269 17.3831C31.2483 17.0674 31.2074 16.7504 31.1067 16.4505C31.0061 16.1505 30.8475 15.8734 30.64 15.635C30.4326 15.3965 30.1804 15.2014 29.8978 15.0607C29.6152 14.9201 29.3078 14.8367 28.9931 14.8152C28.6784 14.7938 28.3625 14.8347 28.0636 14.9358C27.5009 15.1484 26.9561 15.4057 26.4342 15.7052V7.16989C26.4342 6.53223 26.6866 5.92069 27.136 5.46979C27.5854 5.0189 28.1949 4.76559 28.8304 4.76559C29.4659 4.76559 30.0754 5.0189 30.5247 5.46979C30.9741 5.92069 31.2266 6.53223 31.2266 7.16989C31.2231 7.59025 31.1161 8.00324 30.9151 8.37204C30.7556 8.64502 30.6515 8.94689 30.6085 9.26034C30.5656 9.57379 30.5848 9.89266 30.6649 10.1987C30.7451 10.5047 30.8846 10.7918 31.0756 11.0436C31.2665 11.2954 31.5051 11.5069 31.7777 11.6659C32.0512 11.8249 32.3533 11.928 32.6667 11.9693C32.98 12.0106 33.2985 11.9893 33.6036 11.9067C33.9087 11.824 34.1945 11.6815 34.4446 11.4875C34.6946 11.2936 34.9039 11.0518 35.0605 10.7763C35.2398 10.3867 35.3919 9.98502 35.5157 9.57419C35.6827 9.55083 35.852 9.55083 36.0189 9.57419C36.6545 9.57419 37.2639 9.8275 37.7133 10.2784C38.1627 10.7293 38.4151 11.3408 38.4151 11.9785C38.4115 12.4498 38.2698 12.9097 38.0078 13.3009C37.8118 13.6129 37.5396 13.8694 37.217 14.0462C36.6642 14.365 36.2601 14.8912 36.0939 15.5089C35.9276 16.1266 36.0127 16.7853 36.3304 17.3401C36.6482 17.8948 37.1726 18.3002 37.7882 18.4671C38.4039 18.6339 39.0603 18.5485 39.6132 18.2297C40.0435 17.9962 40.4455 17.7139 40.8113 17.3882C41.6105 17.8345 42.2656 18.5009 42.6995 19.3088C43.1333 20.1167 43.3277 21.0322 43.2596 21.9474C43.1916 22.8625 42.864 23.739 42.3155 24.4734C41.7671 25.2078 41.0206 25.7693 40.1644 26.0917H40.0685Z" fill="white" stroke="#688AC5" stroke-width="2.6" mask="url(#path-1-inside-1_364_1853)"/>
</svg>
