<svg width="44" height="33" viewBox="0 0 44 33" fill="none" xmlns="http://www.w3.org/2000/svg">
<path d="M42.4699 23.7088H40.5016V4.41988C40.5016 3.27145 40.0454 2.17005 39.2334 1.35798C38.4213 0.54592 37.3199 0.0897064 36.1715 0.0897064H7.82851C6.68008 0.0897064 5.57868 0.54592 4.76662 1.35798C3.95455 2.17005 3.49834 3.27145 3.49834 4.41988V23.7088H1.53008C1.21687 23.7088 0.916487 23.8333 0.695015 24.0547C0.473543 24.2762 0.349121 24.5766 0.349121 24.8898V28.039C0.349121 29.1874 0.805335 30.2888 1.6174 31.1009C2.42946 31.913 3.53086 32.3692 4.67929 32.3692H39.3207C40.4691 32.3692 41.5705 31.913 42.3826 31.1009C43.1946 30.2888 43.6508 29.1874 43.6508 28.039V24.8898C43.6508 24.5766 43.5264 24.2762 43.305 24.0547C43.0835 23.8333 42.7831 23.7088 42.4699 23.7088ZM5.86025 4.41988C5.86025 3.89786 6.06762 3.39723 6.43674 3.02811C6.80586 2.65899 7.30649 2.45162 7.82851 2.45162H36.1715C36.6935 2.45162 37.1941 2.65899 37.5632 3.02811C37.9323 3.39723 38.1397 3.89786 38.1397 4.41988V23.7088H5.86025V4.41988ZM41.2889 28.039C41.2889 28.561 41.0816 29.0617 40.7124 29.4308C40.3433 29.7999 39.8427 30.0073 39.3207 30.0073H4.67929C4.15728 30.0073 3.65664 29.7999 3.28752 29.4308C2.9184 29.0617 2.71103 28.561 2.71103 28.039V26.0707H41.2889V28.039ZM26.3302 7.5691C26.3302 7.88231 26.2057 8.18269 25.9843 8.40416C25.7628 8.62563 25.4624 8.75005 25.1492 8.75005H18.8508C18.5376 8.75005 18.2372 8.62563 18.0157 8.40416C17.7942 8.18269 17.6698 7.88231 17.6698 7.5691C17.6698 7.25589 17.7942 6.95551 18.0157 6.73403C18.2372 6.51256 18.5376 6.38814 18.8508 6.38814H25.1492C25.4624 6.38814 25.7628 6.51256 25.9843 6.73403C26.2057 6.95551 26.3302 7.25589 26.3302 7.5691Z" fill="white"/>
</svg>
