<svg width="54.000000" height="53.000000" viewBox="0 0 54 53" fill="none" xmlns="http://www.w3.org/2000/svg" xmlns:xlink="http://www.w3.org/1999/xlink">
	<desc>
			Created with Pixso.
	</desc>
	<defs>
		<clipPath id="clip16_1274">
			<rect id="Сокращенный 1" width="54.000000" height="53.000000" fill="white" fill-opacity="0"/>
		</clipPath>
	</defs>
	<rect id="Сокращенный 1" width="54.000000" height="53.000000" fill="#FFFFFF" fill-opacity="0"/>
	<g clip-path="url(#clip16_1274)">
		<path id="Vector" d="M54 26.2979C54 40.1997 42.8672 51.6016 28.8306 52.5186L28.4287 52.5288L26.1787 52.5288L26.1787 42.0127C24.7676 41.8691 22.2603 41.4185 19.7935 39.979C18.1255 39.0112 16.7402 37.7407 15.6846 36.2041C14.3975 34.355 13.3882 32.127 13.2026 29.5352C12.9966 26.5693 13.1924 17.6255 13.1924 17.6255L13.1924 17.6152C13.1924 17.5796 13.2388 16.5757 13.8979 15.5356C14.4692 14.6138 15.6382 13.4766 17.9141 13.3076C17.9243 12.5088 18.5835 11.8579 19.397 11.8579L21.8892 11.8579C22.7031 11.8579 23.3726 12.5239 23.3726 13.333L23.3726 16.2119C23.3726 17.0215 22.7031 17.687 21.8892 17.687L19.397 17.687C18.5835 17.687 17.9141 17.0215 17.9141 16.2119L17.9141 15.5562C15.6743 15.7969 15.4683 17.4463 15.4424 17.6973C15.4424 17.6973 15.2368 26.436 15.4424 29.3403C16.0864 38.3911 24.2476 39.8818 27.0127 39.8818C29.7778 39.8818 38.5576 38.3911 39.2012 29.3403C39.4072 26.436 39.2012 17.6973 39.2012 17.6973C39.1753 17.4414 38.9692 15.7969 36.7295 15.5562L36.7295 16.2119C36.7295 17.0215 36.0601 17.687 35.2466 17.687L32.7544 17.687C31.9409 17.687 31.2715 17.0215 31.2715 16.2119L31.2715 13.333C31.2715 12.5239 31.9409 11.8579 32.7544 11.8579L35.2466 11.8579C36.0601 11.8579 36.7192 12.4985 36.7295 13.3076C39.0054 13.4766 40.1587 14.6035 40.7461 15.5356C41.4048 16.5908 41.4512 17.5796 41.4512 17.6152L41.4512 17.6255C41.4512 17.6255 41.647 26.5693 41.4409 29.5352C41.2607 32.1372 40.2363 34.3652 38.959 36.2041C37.8882 37.7407 36.5029 39.0112 34.8501 39.979C32.394 41.4185 29.876 41.8691 28.4648 42.0127L28.4395 42.0127L28.4395 49.9985L28.7432 49.9985C41.4307 49.1274 51.4771 38.8267 51.4771 26.2925C51.4771 13.7583 40.4937 2.51514 27.0078 2.51514C13.522 2.51514 2.54395 13.1899 2.54395 26.2979C2.54395 34.8418 7.20361 42.3457 14.1709 46.5308C14.7524 46.1206 15.4736 45.8647 16.2407 45.8647C18.2231 45.8647 19.8296 47.4629 19.8296 49.4351C19.8296 51.4072 18.2231 53.0054 16.2407 53.0054C14.2583 53.0054 12.6519 51.4072 12.6519 49.4351C12.6519 49.1431 12.6982 48.8765 12.7598 48.6104C5.09766 43.9644 0 35.6968 0 26.2979C0 11.7964 12.1162 0 27.0078 0C41.8838 -0.0102539 54 11.7861 54 26.2979Z" fill="#FFFFFF" fill-opacity="1.000000" fill-rule="nonzero"/>
		<path id="Vector" d="M23.9336 34.7085C23.4443 34.7085 22.96 34.5752 22.5225 34.3091C21.6523 33.7812 21.1426 32.8442 21.1938 31.8657C21.271 30.4878 21.2354 25.0068 21.2095 23.0093C21.1836 21.9336 21.6523 21.0732 22.5327 20.5967C23.4443 20.0845 24.438 20.1206 25.3853 20.7144L32.9443 25.4219C33.8403 25.9805 34.3398 26.8101 34.3247 27.7114C34.3091 28.603 33.7788 29.4121 32.8774 29.9297C31.5952 30.6772 30.3081 31.4302 29.021 32.1782L25.375 34.3037C24.917 34.5703 24.4175 34.7085 23.9282 34.7085L23.9336 34.7085ZM23.8511 22.2207C23.7222 22.2207 23.6143 22.2617 23.501 22.3281C23.3672 22.3999 23.1865 22.4971 23.1973 22.9785C23.1973 23.0659 23.2793 30.2573 23.1763 31.9785C23.1611 32.2241 23.3105 32.4805 23.5522 32.624C23.7275 32.7314 24.0156 32.8135 24.376 32.6035L28.022 30.4727C29.3091 29.7246 30.5967 28.9717 31.8838 28.2188C32.1724 28.0547 32.3423 27.8501 32.3472 27.6704C32.3472 27.4863 32.1826 27.271 31.8994 27.0918L24.3403 22.3843C24.1445 22.2617 23.9902 22.2153 23.856 22.2153L23.8511 22.2207Z" fill="#FFFFFF" fill-opacity="1.000000" fill-rule="nonzero"/>
	</g>
</svg>
