<svg width="37.375000" height="26.000000" viewBox="0 0 37.375 26" fill="none" xmlns="http://www.w3.org/2000/svg" xmlns:xlink="http://www.w3.org/1999/xlink">
	<desc>
			Created with Pixso.
	</desc>
	<defs>
		<clipPath id="clip364_2022">
			<rect id="ant-design:read-outlined" width="37.375000" height="26.000000" fill="white" fill-opacity="0"/>
		</clipPath>
	</defs>
	<rect id="ant-design:read-outlined" width="37.375000" height="26.000000" fill="#FFFFFF" fill-opacity="0"/>
	<g clip-path="url(#clip364_2022)">
		<path id="Vector" d="M33.6445 0.188477L25.2935 0.188477C23.5015 0.188477 21.7495 0.703125 20.2422 1.67395L18.4609 2.81641L16.6797 1.67395C15.1738 0.703247 13.4199 0.1875 11.6284 0.188477L3.27734 0.188477C2.63135 0.188477 2.10938 0.710449 2.10938 1.35645L2.10938 22.0879C2.10938 22.7339 2.63135 23.2559 3.27734 23.2559L11.6284 23.2559C13.4204 23.2559 15.1724 23.7705 16.6797 24.7413L18.3003 25.7853C18.3477 25.8145 18.4023 25.8326 18.4575 25.8326C18.5122 25.8326 18.5669 25.8181 18.6143 25.7853L20.2349 24.7413C21.7461 23.7705 23.5015 23.2559 25.2935 23.2559L33.6445 23.2559C34.2905 23.2559 34.8125 22.7339 34.8125 22.0879L34.8125 1.35645C34.8125 0.710449 34.2905 0.188477 33.6445 0.188477ZM11.6284 20.6279L4.7373 20.6279L4.7373 2.81641L11.6284 2.81641C12.9204 2.81641 14.1758 3.18506 15.2598 3.8822L17.041 5.02466L17.293 5.18884L17.293 22.0514C15.5557 21.1171 13.6138 20.6279 11.6284 20.6279ZM32.1846 20.6279L25.2935 20.6279C23.3081 20.6279 21.3662 21.1171 19.6289 22.0514L19.6289 5.18884L19.8809 5.02466L21.6621 3.8822C22.7461 3.18506 24.0015 2.81641 25.2935 2.81641L32.1846 2.81641L32.1846 20.6279ZM14.2598 7.48828L7.47852 7.48828C7.33594 7.48828 7.21924 7.61243 7.21924 7.76208L7.21924 9.40454C7.21924 9.55408 7.33594 9.67822 7.47852 9.67822L14.2563 9.67822C14.3984 9.67822 14.5156 9.55408 14.5156 9.40454L14.5156 7.76208C14.519 7.61243 14.4023 7.48828 14.2598 7.48828ZM22.4028 7.76208L22.4028 9.40454C22.4028 9.55408 22.5195 9.67822 22.6621 9.67822L29.4399 9.67822C29.582 9.67822 29.6992 9.55408 29.6992 9.40454L29.6992 7.76208C29.6992 7.61243 29.582 7.48828 29.4399 7.48828L22.6621 7.48828C22.5195 7.48828 22.4028 7.61243 22.4028 7.76208ZM14.2598 12.5981L7.47852 12.5981C7.33594 12.5981 7.21924 12.7223 7.21924 12.8719L7.21924 14.5144C7.21924 14.6639 7.33594 14.7881 7.47852 14.7881L14.2563 14.7881C14.3984 14.7881 14.5156 14.6639 14.5156 14.5144L14.5156 12.8719C14.519 12.7223 14.4023 12.5981 14.2598 12.5981ZM29.4434 12.5981L22.6621 12.5981C22.5195 12.5981 22.4028 12.7223 22.4028 12.8719L22.4028 14.5144C22.4028 14.6639 22.5195 14.7881 22.6621 14.7881L29.4399 14.7881C29.582 14.7881 29.6992 14.6639 29.6992 14.5144L29.6992 12.8719C29.7026 12.7223 29.5859 12.5981 29.4434 12.5981Z" fill="#282A62" fill-opacity="1.000000" fill-rule="nonzero"/>
	</g>
</svg>
