<svg width="60.064453" height="38.000000" viewBox="0 0 60.0645 38" fill="none" xmlns="http://www.w3.org/2000/svg" xmlns:xlink="http://www.w3.org/1999/xlink">
	<desc>
			Created with Pixso.
	</desc>
	<defs>
		<clipPath id="clip364_2091">
			<rect width="60.064518" height="38.000000" fill="white" fill-opacity="0"/>
		</clipPath>
		<linearGradient id="paint_linear_364_2092_0" x1="10.000011" y1="-3.500004" x2="43.500027" y2="47.499989" gradientUnits="userSpaceOnUse">
			<stop stop-color="#EFEFEF"/>
			<stop offset="1.000000" stop-color="#F0F0F0"/>
		</linearGradient>
	</defs>
	<rect width="60.064518" height="38.000000" fill="#FFFFFF" fill-opacity="0"/>
	<g clip-path="url(#clip364_2091)">
		<path d="M57.0581 19.272L57.0513 19.261C56.5498 18.4702 46.7373 3 29.9639 3C14.5298 3 3.91357 17.8374 2.97998 19.1416C2.95703 19.1736 2.93994 19.1975 2.92871 19.2129L2 20.5522L2.98779 21.8894C3.00146 21.9058 3.02246 21.9324 3.05127 21.9685C4.13379 23.3215 15.8638 37.9866 29.9639 37.9866C45.3979 37.9866 56.0142 23.1494 56.9478 21.845C56.9702 21.8132 56.9878 21.7888 56.9985 21.7737L57.812 20.5522L57.0581 19.272ZM29.9663 33.3945C20.0229 33.3945 10.8369 23.9807 7.75488 20.4343C10.603 16.8884 19.0923 7.58984 29.9639 7.58984C41.6514 7.58984 49.7314 17.0039 52.2886 20.4343C49.4995 23.9214 41.0127 33.3945 29.9663 33.3945ZM29.9668 10.033C24.2119 10.033 19.5015 14.7412 19.5015 20.4937C19.5015 26.2461 24.2119 30.9543 29.9668 30.9543C35.7217 30.9543 40.4321 26.2461 40.4321 20.4937C40.4321 14.7412 35.7217 10.033 29.9668 10.033ZM29.9668 26.3645C26.71 26.3645 24.0938 23.7493 24.0938 20.4937C24.0938 17.238 26.71 14.623 29.9668 14.623C33.2236 14.623 35.8403 17.238 35.8403 20.4937C35.8379 23.749 33.2217 26.3645 29.9668 26.3645Z" fill="#EBBE7B" fill-opacity="1.000000" fill-rule="evenodd"/>
		<path d="M57.0581 19.272L57.0513 19.261C56.5498 18.4702 46.7373 3 29.9639 3C14.5298 3 3.91357 17.8374 2.97998 19.1416C2.95703 19.1736 2.93994 19.1975 2.92871 19.2129L2 20.5522L2.98779 21.8894C3.00146 21.9058 3.02246 21.9324 3.05127 21.9685C4.13379 23.3215 15.8638 37.9866 29.9639 37.9866C45.3979 37.9866 56.0142 23.1494 56.9478 21.845C56.9702 21.8132 56.9878 21.7888 56.9985 21.7737L57.812 20.5522L57.0581 19.272ZM56.2036 19.7917Q53.4531 15.4578 48.9561 11.5908Q42.145 5.73438 34.5391 4.39624Q32.2861 4 29.9639 4Q29.2466 4 28.5317 4.04321Q19.9116 4.56299 11.6699 11.3535Q7.0708 15.1426 3.79346 19.7236L3.74121 19.7964L3.22949 20.5337L3.78027 21.2788L3.83105 21.3423Q7.50586 25.9365 12.248 29.7017Q21.4224 36.9866 29.9639 36.9866Q30.6812 36.9866 31.396 36.9434Q40.0161 36.4233 48.2573 29.6331Q52.8564 25.8442 56.1343 21.2629L56.1763 21.2048L56.6323 20.5198L56.2036 19.7917ZM26.9673 6.78711Q16.2949 8.20483 6.97559 19.8081L6.45215 20.4597L7.00049 21.0903Q18.563 34.3945 29.9663 34.3945Q31.4795 34.3945 32.9668 34.197Q43.7012 32.7717 53.0693 21.0591L53.5518 20.4561L53.0903 19.8367Q45.5815 9.76294 36.1187 7.34985Q33.1382 6.58984 29.9639 6.58984Q28.4526 6.58984 26.9673 6.78711ZM29.9663 33.3945C20.0229 33.3945 10.8369 23.9807 7.75488 20.4343C10.603 16.8884 19.0923 7.58984 29.9639 7.58984C41.6514 7.58984 49.7314 17.0039 52.2886 20.4343C49.4995 23.9214 41.0127 33.3945 29.9663 33.3945ZM29.9668 10.033C24.2119 10.033 19.5015 14.7412 19.5015 20.4937C19.5015 26.2461 24.2119 30.9543 29.9668 30.9543C35.7217 30.9543 40.4321 26.2461 40.4321 20.4937C40.4321 14.7412 35.7217 10.033 29.9668 10.033ZM21.1577 24.0181Q20.5015 22.3879 20.5015 20.4937Q20.5015 18.5994 21.1582 16.969Q21.8525 15.2432 23.2832 13.8135Q24.7114 12.3857 26.4351 11.6912Q28.0684 11.033 29.9668 11.033Q31.8652 11.033 33.4985 11.6912Q35.2222 12.3857 36.6504 13.8135Q38.0811 15.2432 38.7759 16.9692Q39.4321 18.5994 39.4321 20.4937Q39.4321 22.3879 38.7759 24.0181Q38.0811 25.7441 36.6504 27.1738Q35.2222 28.6016 33.4985 29.2961Q31.8652 29.9543 29.9668 29.9543Q28.0684 29.9543 26.4351 29.2964Q24.7114 28.6016 23.2832 27.1738Q21.8525 25.7441 21.1577 24.0181ZM23.6157 17.8018Q23.0938 19.0374 23.0938 20.4937Q23.0938 21.9497 23.6157 23.1853Q24.1177 24.3733 25.1021 25.3572Q26.0854 26.3401 27.272 26.8416Q28.5088 27.3645 29.9668 27.3645Q31.4214 27.3645 32.6562 26.8435Q33.8452 26.3418 34.8301 25.3572Q35.814 24.374 36.3159 23.187Q36.8394 21.9509 36.8403 20.4937Q36.8403 19.0376 36.3184 17.8022Q35.8164 16.6143 34.832 15.6301Q33.8486 14.6475 32.6621 14.146Q31.4253 13.623 29.9668 13.623Q28.5083 13.623 27.271 14.146Q26.085 14.6477 25.1021 15.6301Q24.1177 16.614 23.6157 17.8018ZM29.9668 26.3645C26.71 26.3645 24.0938 23.7493 24.0938 20.4937C24.0938 17.238 26.71 14.623 29.9668 14.623C33.2236 14.623 35.8403 17.238 35.8403 20.4937C35.8379 23.749 33.2217 26.3645 29.9668 26.3645Z" fill="url(#paint_linear_364_2092_0)" fill-opacity="1.000000" fill-rule="evenodd"/>
	</g>
</svg>
