<svg width="52" height="75" viewBox="0 0 52 75" fill="none" xmlns="http://www.w3.org/2000/svg">
<path fill-rule="evenodd" clip-rule="evenodd" d="M17.8904 0.191021C17.8924 0.339073 17.9583 1.25323 18.037 2.22262C18.2253 4.54327 17.9973 7.28252 17.4382 9.41957C16.6011 12.6193 15.6284 14.6958 9.9396 25.4291C6.69016 31.5601 3.44818 38.0564 2.69737 39.9417C-0.465834 47.8838 -0.211285 55.6997 3.4443 62.8827C5.52799 66.977 8.49587 70.7219 12.1367 73.8508C13.4751 75.0012 13.8229 75.2103 13.647 74.7591C13.5953 74.6265 13.353 73.7595 13.1085 72.8322C10.9724 64.7339 10.9565 57.4136 13.061 51.0482C13.7638 48.9226 15.501 45.5197 16.8043 43.7154C18.3261 41.6088 21.0963 38.8789 22.8107 37.7963L23.1837 37.5607L23.131 39.893C22.9908 46.1008 24.509 52.5192 27.5964 58.7701C28.4685 60.536 30.1601 63.4587 30.3912 63.5994C30.7635 63.8259 34.6388 61.7366 37.7807 59.6154C38.6695 59.0154 39.43 58.5572 39.4706 58.5971C39.5943 58.719 39.224 62.021 38.8334 64.278C38.4721 66.3656 37.7083 69.8439 36.8578 73.2742C36.6225 74.2233 36.4838 75 36.5494 75C36.7926 75 40.86 70.9068 42.1455 69.3685C47.4646 63.0021 50.8474 55.587 51.4386 48.9971C51.6042 47.1522 51.419 43.3645 51.0739 41.5352C50.0714 36.2212 48.1499 31.3198 45.1339 26.3838L44.3712 25.1354L44.2739 27.9995C44.161 31.33 43.8979 33.2707 43.1592 36.2246C42.2784 39.7468 40.9566 42.9686 39.1427 46.0145C38.2161 47.5703 36.5541 49.9318 35.7991 50.7654L35.3334 51.2794L35.691 50.545C37.1915 47.4636 37.9099 42.8205 37.9072 36.2246C37.9032 26.8797 37.1964 22.5333 34.824 17.2662C32.0783 11.1703 26.2923 4.85156 20.1654 1.25823C19.4456 0.836103 18.6384 0.36272 18.3718 0.206296C17.9074 -0.0658664 17.887 -0.0664539 17.8904 0.191021Z" fill="#F4F4F4"/>
</svg>
