<svg width="57" height="56" viewBox="0 0 57 56" fill="none" xmlns="http://www.w3.org/2000/svg">
<path fill-rule="evenodd" clip-rule="evenodd" d="M23.8451 0.135092C23.7084 0.20102 23.5723 0.335665 23.5428 0.434279C23.5132 0.532892 23.3334 1.81833 23.1432 3.29084C22.9529 4.76335 22.7627 6.00026 22.7204 6.03941C22.678 6.07868 22.3422 6.19436 21.9741 6.29665C20.819 6.61737 19.5641 7.12873 18.2845 7.79984L17.049 8.44786L14.9378 6.73015C13.7767 5.7854 12.7137 4.98355 12.5757 4.9483C12.4376 4.91305 12.2117 4.91283 12.0737 4.94797C11.9356 4.983 10.4297 6.40865 8.72709 8.11598C5.99012 10.8608 5.63147 11.2609 5.63147 11.5707C5.63147 11.844 5.99704 12.4312 7.29329 14.2404L8.95511 16.5599L8.39555 17.6748C7.83555 18.7909 7.00459 20.8245 6.73641 21.7358C6.64628 22.042 6.50896 22.2512 6.3636 22.3037C6.23699 22.3495 4.9636 22.5787 3.53382 22.813C1.15616 23.2026 0.915649 23.2626 0.717084 23.5151C0.510598 23.7776 0.5 23.9995 0.5 28.0656C0.5 32.4384 0.535586 32.8381 0.935283 32.9572C1.03334 32.9865 2.31833 33.1657 3.79084 33.3554C5.26335 33.5451 6.50014 33.7355 6.53941 33.7785C6.57868 33.8214 6.69436 34.1578 6.79665 34.5259C7.11737 35.6807 7.62862 36.9358 8.29906 38.2141L8.94629 39.448L7.28782 41.5607C6.37565 42.7226 5.59924 43.7862 5.56253 43.9243C5.52583 44.0623 5.52438 44.2882 5.55952 44.4263C5.59455 44.5644 7.02021 46.0703 8.72754 47.7729C11.4961 50.5338 11.8705 50.8685 12.1887 50.8685C12.5304 50.8685 13.576 50.1385 16.4358 47.9032L17.0329 47.4365L18.4995 48.1379C19.3062 48.5237 20.5685 49.054 21.3048 49.3163C22.041 49.5786 22.678 49.8218 22.7203 49.8567C22.786 49.9111 23.4801 54.8887 23.4801 55.3055C23.4801 55.3862 23.6033 55.5755 23.7539 55.7261L24.0277 56H28.3585C32.9698 56 33.0001 55.9967 33.2891 55.4567C33.3471 55.3483 33.5508 54.0582 33.7417 52.5899C33.9326 51.1216 34.124 49.891 34.1669 49.8549C34.2099 49.819 34.8474 49.5996 35.5837 49.3675C36.341 49.1287 37.5573 48.6205 38.3846 48.197L39.8468 47.4486L41.9543 49.1608C43.1134 50.1024 44.1746 50.9024 44.3128 50.9386C44.4509 50.9747 44.6766 50.9756 44.8147 50.9405C44.9528 50.9054 46.4587 49.4798 48.1614 47.7725C50.8723 45.0538 51.257 44.6254 51.257 44.3246C51.257 44.0622 50.8792 43.4461 49.658 41.7165L48.0591 39.4522L48.7088 38.1524C49.2961 36.9776 50.253 34.3805 50.253 33.9613C50.253 33.8692 50.3174 33.7691 50.3961 33.7389C50.4749 33.7087 51.7881 33.4674 53.3142 33.2028C55.7471 32.781 56.1145 32.6904 56.2946 32.468C56.4862 32.2315 56.5 31.9249 56.5 27.9245C56.5 25.2139 56.4579 23.5563 56.3859 23.4215C56.3231 23.3043 56.1833 23.1609 56.0751 23.103C55.9669 23.0451 54.6503 22.8402 53.1494 22.6476C51.6484 22.4551 50.3909 22.2629 50.3549 22.2205C50.3189 22.1781 50.0996 21.541 49.8675 20.8048C49.6285 20.0468 49.1204 18.8309 48.696 18.002L47.9466 16.5377L49.6596 14.4323C50.6017 13.2742 51.4022 12.2138 51.4385 12.0757C51.4746 11.9377 51.4756 11.7118 51.4405 11.5737C51.4054 11.4357 49.9798 9.92963 48.2725 8.22709C45.5494 5.51176 45.1258 5.13147 44.8234 5.13147C44.4785 5.13147 44.2217 5.30204 40.9948 7.67434L39.9357 8.45288L38.8485 7.90727C37.7226 7.34225 36.0359 6.64515 34.9701 6.30424C34.6327 6.19637 34.3188 6.07388 34.2725 6.03205C34.2262 5.99033 33.9835 4.72888 33.7331 3.22904C33.3231 0.773291 33.2504 0.477004 33.0022 0.250996L32.7266 0L28.4101 0.00758564C25.5746 0.012494 24.0084 0.0562231 23.8451 0.135092ZM25.1116 1.76222C25.0813 1.81119 24.8998 3.02846 24.7082 4.46739C24.4465 6.43241 24.3127 7.1313 24.1709 7.2752C24.0671 7.38051 23.5052 7.5909 22.9223 7.74261C21.0887 8.22029 19.636 8.848 17.9811 9.87786C17.5422 10.1509 17.0959 10.3745 16.9892 10.3745C16.8826 10.3745 15.7822 9.61627 14.544 8.68959L12.2927 7.0048L9.89305 9.40443L7.49342 11.8041L8.95042 13.8503C9.75183 14.9757 10.4961 16.0511 10.6043 16.2402L10.8012 16.5839L10.2161 17.6064C9.44204 18.9591 8.86943 20.2991 8.29761 22.0965C8.03925 22.9082 7.73895 23.6614 7.63018 23.7702C7.52142 23.879 7.21543 24 6.95026 24.0393C6.6851 24.0784 5.51434 24.2452 4.34861 24.4099L2.22908 24.7092L2.19952 27.9928C2.18324 29.7987 2.20833 31.3134 2.2553 31.3588C2.30226 31.4042 3.52032 31.5972 4.96215 31.7876C7.41109 32.111 7.60018 32.1524 7.83466 32.4157C7.97276 32.5708 8.08566 32.7888 8.08566 32.9001C8.08566 33.0114 8.23949 33.6235 8.42746 34.2604C8.81154 35.5616 9.57635 37.238 10.3539 38.4832C10.6402 38.9418 10.8745 39.4041 10.8745 39.5108C10.8745 39.6174 10.1163 40.7178 9.18959 41.956L7.5048 44.2073L9.89874 46.6013L12.2927 48.9952L14.544 47.3104C15.7822 46.3837 16.8518 45.6255 16.9207 45.6255C16.9898 45.6255 17.5777 45.9235 18.2273 46.2876C19.4869 46.9938 20.7195 47.5221 22.253 48.0134C23.8656 48.5299 24.1482 48.6498 24.2644 48.8669C24.3262 48.9825 24.5265 50.1954 24.7093 51.5624C24.8922 52.9294 25.0654 54.1106 25.0942 54.1873C25.1343 54.2945 25.9062 54.3267 28.4342 54.3267C30.2424 54.3267 31.7467 54.2866 31.7769 54.2378C31.8071 54.1888 31.9886 52.9715 32.1803 51.5326C32.442 49.5676 32.5757 48.8687 32.7175 48.7248C32.8214 48.6195 33.3833 48.4091 33.9661 48.2574C35.8156 47.7756 37.0876 47.2275 38.8561 46.1501C39.6745 45.6516 39.8215 45.5975 40.0832 45.6989C40.2467 45.7621 41.3277 46.531 42.4855 47.4072L44.5904 49.0006L46.9918 46.5991L49.3932 44.1977L47.9125 42.0949C47.098 40.9383 46.3808 39.8815 46.3188 39.7463C46.225 39.5419 46.3 39.3351 46.7635 38.5192C47.6646 36.9328 48.3031 35.3844 48.7553 33.6892C48.9107 33.1064 49.1231 32.5444 49.2271 32.4403C49.37 32.2974 50.0555 32.1668 52.0265 31.9068C53.4621 31.7174 54.6794 31.536 54.7317 31.5037C54.784 31.4714 54.8267 29.9655 54.8267 28.1573C54.8267 25.6281 54.7946 24.858 54.6873 24.8194C54.6106 24.7918 53.3932 24.6142 51.9821 24.4247C50.0262 24.162 49.369 24.0339 49.2172 23.8857C49.1078 23.7787 48.8974 23.2175 48.7499 22.6385C48.2904 20.8358 47.6576 19.368 46.6221 17.7043C46.3491 17.2653 46.1255 16.8177 46.1255 16.7096C46.1255 16.6017 46.885 15.5025 47.8131 14.2672L49.5007 12.0213L47.0986 9.61906L44.6964 7.21697L42.6093 8.74816C41.4614 9.59039 40.4067 10.332 40.2654 10.3964C40.0467 10.4961 39.8582 10.4274 38.9957 9.93375C37.6693 9.17474 36.2939 8.58451 34.6704 8.0775C32.9116 7.52832 32.7698 7.449 32.6402 6.94344C32.5814 6.71375 32.3753 5.47372 32.1822 4.18784C31.989 2.90196 31.8065 1.81007 31.7764 1.76155C31.7048 1.64575 25.1832 1.64642 25.1116 1.76222ZM26.6036 9.82889C23.5338 10.1766 20.3891 11.3725 17.9043 13.1372C16.5537 14.0964 14.6026 16.0461 13.6342 17.4043C12.7209 18.6851 11.569 20.9805 11.1158 22.4223C9.68322 26.9796 10.0042 31.6248 12.0447 35.8681C13.8638 39.6506 16.8365 42.622 20.6355 44.455C25.6099 46.8552 31.2505 46.87 36.3002 44.4961C40.0424 42.7369 43.12 39.6675 44.955 35.8645C47.4173 30.7614 47.3736 25.0351 44.8333 19.9124C43.894 18.0183 42.8945 16.6293 41.3826 15.1174C39.8597 13.5947 38.4671 12.5919 36.5877 11.6644C33.366 10.0749 29.9604 9.44872 26.6036 9.82889ZM25.8227 11.6499C22.1772 12.3017 19.1917 13.879 16.6426 16.4996C14.3802 18.8255 12.9501 21.5192 12.2473 24.7789C11.9598 26.1122 11.9598 29.8878 12.2473 31.2211C12.9802 34.6205 14.3959 37.2264 16.8347 39.6653C19.2553 42.0858 21.9248 43.5381 25.2649 44.2516C26.6154 44.5401 30.3853 44.5407 31.7211 44.2527C35.1205 43.5198 37.7264 42.1041 40.1653 39.6653C42.5858 37.2447 44.0381 34.5752 44.7516 31.2351C45.0406 29.8819 45.0406 26.1181 44.7516 24.7649C44.0381 21.4248 42.5858 18.7553 40.1653 16.3347C37.7609 13.9304 35.1978 12.5237 31.8445 11.7681C30.714 11.5134 26.9945 11.4404 25.8227 11.6499ZM19.7765 17.6534C19.6405 17.7608 15.9911 23.1747 15.2501 24.3684C15.0503 24.6903 15.1735 25.2012 15.5468 25.5986C15.7213 25.7843 18.5377 29.7012 21.8053 34.3028C25.0728 38.9044 27.8462 42.7572 27.9682 42.8645C28.2762 43.1356 28.7504 43.1105 29.0204 42.8088C29.144 42.6708 31.9201 38.8179 35.1898 34.247C38.4593 29.6761 41.2872 25.7743 41.474 25.5763C42.0985 24.9144 42.0733 24.8543 39.6133 21.1394C38.3944 19.2988 37.3183 17.7301 37.2221 17.6534C37.0854 17.5446 35.1699 17.5139 28.5 17.5139C21.8309 17.5139 19.9143 17.5446 19.7765 17.6534ZM21.9429 19.5498C22.0319 19.6879 22.5499 20.5664 23.0943 21.502C23.6386 22.4376 24.1203 23.2032 24.1647 23.2032C24.2091 23.2032 24.8088 22.3875 25.4973 21.3904C26.1859 20.3935 26.7979 19.515 26.8574 19.4382C26.9433 19.3276 26.4305 19.2988 24.3733 19.2988H21.7811L21.9429 19.5498ZM30.1426 19.4382C30.2021 19.515 30.8141 20.3935 31.5027 21.3904C32.1912 22.3875 32.7909 23.2032 32.8353 23.2032C32.8797 23.2032 33.3614 22.4376 33.9057 21.502C34.4501 20.5664 34.9681 19.6879 35.0571 19.5498L35.2189 19.2988H32.6267C30.5695 19.2988 30.0567 19.3276 30.1426 19.4382ZM27.0884 21.8919L25.7358 23.8167L28.4173 23.8466C29.8922 23.8631 31.1179 23.8576 31.1411 23.8344C31.1921 23.7834 28.634 20.0361 28.5206 19.9955C28.4769 19.9798 27.8325 20.8332 27.0884 21.8919ZM18.9339 21.979L17.6786 23.8725H20.0774C21.3967 23.8725 22.4761 23.8452 22.4761 23.8117C22.4761 23.7056 20.3097 20.0796 20.2481 20.0826C20.2158 20.0843 19.6243 20.9376 18.9339 21.979ZM35.6084 21.9153C35.012 22.9249 34.5239 23.7782 34.5239 23.8117C34.5239 23.8452 35.6033 23.8725 36.9226 23.8725H39.3214L38.0661 21.979C37.3757 20.9376 36.7842 20.0843 36.7519 20.0826C36.7194 20.081 36.2049 20.9057 35.6084 21.9153ZM18.2004 26.367C21.5972 31.1227 26.4361 37.7982 26.4654 37.769C26.4862 37.7481 25.8143 35.0396 24.9722 31.75L23.4411 25.7689H20.6071H17.7732L18.2004 26.367ZM25.1794 25.9084C25.2068 25.9851 25.9491 28.8464 26.8289 32.2669C27.7086 35.6875 28.4606 38.4861 28.5 38.4861C28.5394 38.4861 29.2914 35.6875 30.1711 32.2669C31.0509 28.8464 31.7932 25.9851 31.8206 25.9084C31.8598 25.7988 31.1486 25.7689 28.5 25.7689C25.8514 25.7689 25.1402 25.7988 25.1794 25.9084ZM32.027 31.749C31.1842 35.038 30.5121 37.7465 30.5332 37.7675C30.563 37.7973 35.2925 31.2744 38.7997 26.3666L39.2268 25.7689H36.393H33.5592L32.027 31.749Z" fill="white"/>
</svg>
