<svg width="63" height="63" viewBox="0 0 63 63" fill="none" xmlns="http://www.w3.org/2000/svg">
<path d="M31.5 0C48.0602 0 62.5 13.8915 62.5 29.925C62.5 45.6876 48.3857 58.0923 31.5 58.0923C27.8884 58.0942 24.2995 57.5137 20.867 56.3724C19.4286 57.7899 18.9357 58.2718 15.8822 61.2643C13.6812 62.9527 11.6104 63.526 9.7597 62.4613C7.8935 61.3904 7.3324 59.305 7.7137 56.5582L8.9537 49.2534C3.569 44.1063 0.5 37.3023 0.5 29.925C0.5 13.8915 14.9367 0 31.5 0ZM31.5 4.41C17.2834 4.41 4.84 16.38 4.84 29.925C4.84 36.3667 7.6672 42.2982 12.652 46.7145L12.714 46.768L13.6347 47.5807L13.427 48.8092L12.9992 51.3418L12.8845 52.0159L12.001 57.2386C11.9489 57.5903 11.9178 57.9448 11.908 58.3002V58.5994C11.908 58.6152 11.9049 58.6215 11.9018 58.6246C11.9235 58.5931 12.3451 58.4577 13.0674 57.9222L19.7944 51.2883L21.0778 51.7797C24.4116 53.0437 27.9417 53.6892 31.5 53.6854C46.1196 53.6854 58.16 43.1014 58.16 29.925C58.16 16.3832 45.7166 4.41 31.5 4.41ZM16.7037 24.611C17.3282 24.5878 17.9509 24.6927 18.5346 24.9196C19.1183 25.1464 19.651 25.4905 20.1009 25.9313C20.5508 26.372 20.9087 26.9004 21.1531 27.4848C21.3975 28.0693 21.5235 28.6978 21.5235 29.3328C21.5235 29.9678 21.3975 30.5963 21.1531 31.1808C20.9087 31.7652 20.5508 32.2936 20.1009 32.7343C19.651 33.1751 19.1183 33.5192 18.5346 33.746C17.9509 33.9729 17.3282 34.0778 16.7037 34.0546C15.5006 34.01 14.3615 33.493 13.5259 32.6123C12.6904 31.7317 12.2235 30.5561 12.2235 29.3328C12.2235 28.1095 12.6904 26.9339 13.5259 26.0533C14.3615 25.1726 15.5006 24.6556 16.7037 24.611ZM32.1975 24.611C32.822 24.5878 33.4447 24.6927 34.0284 24.9196C34.6121 25.1464 35.1448 25.4905 35.5947 25.9313C36.0446 26.372 36.4025 26.9004 36.6469 27.4848C36.8913 28.0693 37.0173 28.6978 37.0173 29.3328C37.0173 29.9678 36.8913 30.5963 36.6469 31.1808C36.4025 31.7652 36.0446 32.2936 35.5947 32.7343C35.1448 33.1751 34.6121 33.5192 34.0284 33.746C33.4447 33.9729 32.822 34.0778 32.1975 34.0546C30.9944 34.01 29.8553 33.493 29.0197 32.6123C28.1842 31.7317 27.7173 30.5561 27.7173 29.3328C27.7173 28.1095 28.1842 26.9339 29.0197 26.0533C29.8553 25.1726 30.9944 24.6556 32.1975 24.611ZM47.6882 24.611C48.3127 24.5878 48.9354 24.6927 49.5191 24.9196C50.1028 25.1464 50.6355 25.4905 51.0854 25.9313C51.5353 26.372 51.8932 26.9004 52.1376 27.4848C52.382 28.0693 52.508 28.6978 52.508 29.3328C52.508 29.9678 52.382 30.5963 52.1376 31.1808C51.8932 31.7652 51.5353 32.2936 51.0854 32.7343C50.6355 33.1751 50.1028 33.5192 49.5191 33.746C48.9354 33.9729 48.3127 34.0778 47.6882 34.0546C46.4851 34.01 45.346 33.493 44.5104 32.6123C43.6749 31.7317 43.208 30.5561 43.208 29.3328C43.208 28.1095 43.6749 26.9339 44.5104 26.0533C45.346 25.1726 46.4851 24.6556 47.6882 24.611Z" fill="white"/>
</svg>
