<svg width="76.000000" height="85.000000" viewBox="0 0 76 85" fill="none" xmlns="http://www.w3.org/2000/svg" xmlns:xlink="http://www.w3.org/1999/xlink">
	<desc>
			Created with Pixso.
	</desc>
	<defs/>
	<path id="Vector" d="M38.8364 0.275391C38.6787 0.432617 38.4995 0.800293 38.439 1.0918C38.1914 2.27954 37.7559 5.56567 37.6431 7.09741C37.4844 9.26318 37.4434 9.36523 36.9756 8.77173C36.4019 8.04419 34.8984 7.11987 33.7461 6.7854C32.8208 6.51733 32.6782 6.51758 32.2646 6.78809C31.2769 7.43359 31.5659 8.65942 32.7622 8.89819C34.3857 9.22217 35.6123 10.4365 36.5059 12.6047C37.1099 14.0691 37.1045 14.3691 36.3149 23.5645C35.8438 29.0591 35.5674 31.4429 35.356 31.8506C34.6978 33.1206 33.0903 33.833 31.7729 33.4395C30.5034 33.0601 24.1396 27.407 20.5439 23.4644C17.6128 20.25 15.9307 16.5518 15.6777 12.7651C15.5352 10.6265 15.4844 10.4604 14.8955 10.1929C14.4482 9.98926 14.3052 10.0085 13.8799 10.3291C13.4028 10.6885 13.3862 10.7703 13.415 12.5979C13.4424 14.2944 13.8462 16.5037 14.3545 17.7344C14.4849 18.0498 14.4541 18.0671 14.1011 17.8787C13.416 17.5129 10.5454 16.8984 9.51514 16.897C8.40137 16.8955 7.896 17.2712 7.896 18.1006C7.896 18.7607 8.54639 19.2004 9.52783 19.2041C10.7554 19.2085 12.6157 19.7197 14.187 20.4841C15.4937 21.1196 15.7798 21.3687 17.1104 23.0286C17.9214 24.0405 20.5957 27.6782 23.0537 31.1123C28.0444 38.0864 28.1895 38.3711 27.6611 40.1826C27.3447 41.2695 26.5732 42.165 25.481 42.7134C25.0894 42.9102 22.4937 43.3169 18.3379 43.8325L11.8096 44.6421L10.9751 43.9829C10.5166 43.6206 9.6001 42.6416 8.93896 41.8071L7.73633 40.29L8.01514 39.502C8.64209 37.7285 9.86279 36.0986 10.9951 35.5225C12.2856 34.8657 12.4863 33.6904 11.3862 33.2358C10.9082 33.0381 10.7129 33.0625 10.041 33.4048C8.87695 33.9971 7.99072 34.8477 7.09082 36.2358C6.14551 37.6938 6.15088 37.6982 5.48438 35.0151C5.23242 33.999 4.95703 33.104 4.87256 33.0264C4.43652 32.626 3.86768 32.6543 3.34473 33.103L2.80029 33.5703L3.22412 35.4336C3.93945 38.5767 5.31201 41.3604 7.34131 43.7822L8.42334 45.0742L6.64746 45.501C3.45947 46.2676 0 48.333 0 49.4692C0 49.8477 0.855469 50.709 1.23145 50.709C1.38867 50.709 1.9082 50.3716 2.38574 49.959C3.47803 49.0161 4.89844 48.3413 6.85254 47.8374C8.92041 47.3047 12.0938 46.874 13.9629 46.8721C15.9976 46.8706 23.8936 47.915 24.5879 48.2783C25.3677 48.6855 26.3164 49.7275 26.6641 50.5586C27.0835 51.5615 27.0444 53.1108 26.5767 54.0581C26.1201 54.9824 17.0957 66.4746 14.6323 69.269C10.4893 73.9688 8.28125 76.834 8.28125 77.5127C8.28125 78.1206 8.76953 78.5664 9.43604 78.5664C9.90576 78.5664 10.21 78.2764 11.5347 76.564C12.3872 75.4629 13.1626 74.5137 13.2583 74.4546C13.354 74.3955 13.4937 75.0518 13.5693 75.9121C13.8174 78.75 14.75 81.5708 15.5879 82.0181C16.1235 82.3042 16.9102 81.9531 17.0591 81.3613C17.1362 81.0552 16.9971 80.3613 16.6816 79.481C16.0801 77.8003 15.7949 76.0845 15.7959 74.1475C15.7974 71.2988 15.2021 72.0542 23.2422 64.7012C27.209 61.0737 30.7305 57.9487 31.0679 57.7578C31.5171 57.5024 31.9722 57.4287 32.7695 57.4805C34.0366 57.5625 35.0054 58.1763 35.4951 59.2065C35.9355 60.1318 37.4932 75.1606 37.1606 75.2715C36.6533 75.4399 35.3379 76.7925 34.6455 77.8574C34.2461 78.4712 33.7329 79.5332 33.5049 80.2173C33.1265 81.3516 33.1157 81.5005 33.3843 81.9092C34.0776 82.9653 35.0601 82.6338 35.6138 81.1577C36.1738 79.6631 36.5015 79.0669 37.1934 78.2803L37.7881 77.6055L38.4087 79.3828C38.7505 80.3604 39.2886 81.5923 39.6045 82.1206C40.1055 82.958 40.2686 83.0889 40.8779 83.1401C41.4531 83.189 41.6343 83.1104 41.9062 82.6963C42.2295 82.2041 42.2197 82.1606 41.4341 80.6201C40.5342 78.856 39.9604 76.8115 39.6436 74.2378C39.4697 72.8276 39.4902 71.8921 39.7534 69.2427C39.9316 67.4497 40.1997 65.5503 40.3491 65.022C41.1792 62.0884 43.6104 60.3877 46.7573 60.5381C48.9961 60.645 49.6982 61.0688 52.894 64.2397C55.8325 67.1558 56.8223 68.499 58.6313 72.0269L59.7134 74.1372L59.1533 75.2471C58.8447 75.8574 58.353 77.0918 58.0596 77.9902C57.6035 79.3882 57.5239 79.9604 57.5073 81.9692C57.4922 83.8232 57.5488 84.373 57.7769 84.5903C58.2808 85.0698 58.8486 85.1318 59.311 84.7583C59.707 84.4385 59.7466 84.2285 59.7876 82.2085C59.8218 80.543 59.9385 79.6797 60.2676 78.6626C60.5063 77.9229 60.7666 77.2495 60.8452 77.166C60.9243 77.083 61.3594 78.1201 61.812 79.4717C62.3574 81.1001 62.7935 82.0742 63.1055 82.3608C63.6943 82.9014 63.7944 82.8994 64.4526 82.3345C64.9844 81.8779 64.9858 81.8716 64.7266 80.8457C64.0073 78.001 61.5679 72.3359 59.5801 68.895C59.1016 68.0669 58.7461 67.3535 58.79 67.3096C58.9858 67.1138 61.1465 66.8325 62.0474 66.8853L63.041 66.9429L63.2788 68.0957C63.7793 70.5249 65.0254 72.7563 66.3306 73.561C67.1211 74.0483 67.6357 74.0615 68.0508 73.604C68.6016 72.9976 68.436 72.4248 67.4346 71.4668C66.4985 70.5718 65.8643 69.3076 65.5728 67.7563L65.4424 67.0645L66.6562 67.3467C67.3237 67.502 68.563 67.9414 69.4097 68.3228C70.8291 68.9619 70.9873 68.9946 71.4395 68.7412C71.9702 68.4443 72.125 68.0239 71.9541 67.3447C71.8159 66.7969 69.4941 65.6787 67.3101 65.1084C65.0684 64.5234 61.6377 64.4014 59.1401 64.8179C58.0537 64.999 57.1416 65.1191 57.1138 65.0845C55.8784 63.5679 49.5342 54.418 49.3438 53.8789C49.0264 52.98 49.1299 51.4072 49.562 50.5747C50.002 49.7256 51.0083 48.8301 51.9077 48.4873C52.4092 48.2964 55.4238 47.9097 59.9019 47.4624L67.0913 46.7441L68.7412 48.1177C70.5728 49.6421 71.5786 50.6934 72.311 51.8511C72.9697 52.8921 73.6655 53.0688 74.2837 52.3521C74.7983 51.7554 74.7563 51.4019 74.0386 50.2905C73.4302 49.3477 71.4956 47.3164 70.4126 46.4824C69.9326 46.1123 69.5366 45.7402 69.5322 45.6553C69.5225 45.4414 71.4663 44.5737 72.6719 44.2534C73.2183 44.1079 74.0752 43.9883 74.5762 43.9868C75.3281 43.9849 75.54 43.9028 75.7959 43.5137C76.1748 42.9365 76.021 42.3564 75.377 41.9351C74.3643 41.2734 70.707 42.1631 68.2017 43.6816L67.0747 44.3643L60.6831 43.707C54.7827 43.1001 54.2261 43.0112 53.4395 42.5513C52.2905 41.8799 51.54 40.5977 51.5273 39.2861C51.5088 37.3848 51.752 37.0972 57.7646 31.9043C60.7905 29.291 64.3926 26.2773 65.7695 25.207C71.0249 21.1221 74.1821 17.8342 75.3262 15.2546C75.6567 14.509 75.6738 14.325 75.4556 13.8682C75.2759 13.4919 75.0391 13.3271 74.6274 13.2913C73.8667 13.2253 73.7632 13.3176 72.9497 14.7822C72.1235 16.27 70.4258 18.2322 68.4102 20.0298C66.9907 21.2959 66.937 21.324 66.771 20.8943C66.4854 20.1555 66.7651 16.3684 67.2227 14.7822C67.8335 12.6633 67.8774 12.2058 67.5063 11.8357C67.3306 11.6599 66.9316 11.5164 66.6196 11.5164C65.8843 11.5164 65.417 12.2629 64.9712 14.1489C64.7334 15.1541 64.5547 15.5505 64.3379 15.5498C63.7764 15.5481 62.9683 14.6919 62.3452 13.4375C61.7993 12.3389 61.6523 12.1816 61.123 12.1304C60.415 12.0615 59.8955 12.4922 59.8955 13.1472C59.8955 13.7561 60.5435 15.2244 61.1797 16.0562C61.7256 16.7705 63.4136 17.8516 63.9883 17.8545C64.2773 17.8562 64.3257 18.0527 64.3291 19.249C64.3311 20.0154 64.4463 21.1797 64.584 21.8367L64.835 23.031L56.7544 28.2727C52.3105 31.1553 48.3677 33.6748 47.9937 33.8716C45.6167 35.1187 42.1802 33.7734 41.0889 31.1694C40.7495 30.3579 39.9932 21.8081 40.1069 20.0657C40.2041 18.5779 41.0898 16.4812 42.4624 14.4893C43.0435 13.6467 43.6636 12.6814 43.8408 12.3447C44.1421 11.7717 44.1421 11.7004 43.8398 11.24C43.6006 10.8755 43.3506 10.7478 42.8779 10.7478C42.3013 10.7478 42.1362 10.8921 41.1758 12.2368C40.5908 13.0557 40.0161 13.8987 39.8989 14.1099C39.3911 15.0234 39.6992 8.30908 40.375 3.73535C40.7817 0.984619 40.7778 0.567139 40.3428 0.25C39.8726 -0.0930176 39.1943 -0.081543 38.8364 0.275391ZM38.0791 30.1118C38.0083 30.9941 37.7861 32.0767 37.582 32.5371C36.6797 34.5723 34.7866 35.8008 32.5479 35.8042C30.9458 35.8071 29.8242 35.3105 28.3735 33.957C27.1978 32.8599 27.2012 32.9092 28.4229 34.667C29.5181 36.2422 29.8345 36.9067 30.0537 38.0903C30.3989 39.9526 29.75 41.9971 28.3423 43.479C27.5342 44.3306 25.5996 45.3276 24.748 45.3325C24.4302 45.334 24.04 45.4194 23.8813 45.5215C23.6489 45.6714 23.6792 45.7085 24.0376 45.7109C24.8955 45.7163 26.5405 46.6763 27.5151 47.7402C28.7012 49.0352 29.2739 50.4609 29.2739 52.1221C29.2739 53.9385 28.8408 55.1006 27.5308 56.7988C25.5 59.4321 25.4941 59.481 27.4204 57.7515C29.7188 55.688 30.8081 55.1313 32.5479 55.1313C34.7446 55.1313 36.5439 56.2437 37.5298 58.2114C37.9805 59.1113 38.1338 59.7319 38.2397 61.0898C38.3145 62.042 38.4512 62.8672 38.5435 62.9243C38.6353 62.981 38.7104 62.9453 38.7104 62.8447C38.7104 62.7446 39.0879 62.1509 39.5493 61.5259C40.5352 60.1904 42.1367 59.062 43.7632 58.5571C45.1362 58.1309 47.5151 58.0879 48.7764 58.4668L49.6592 58.7314L48.5337 57.0737C47.1558 55.0439 46.7026 53.6436 46.8643 51.916C47.0132 50.3281 47.522 49.2197 48.6597 48.0063C50.0986 46.4717 51.4873 45.9331 54.6958 45.6665C55.3403 45.6128 55.3252 45.5996 54.3521 45.3745C52.2031 44.8765 50.6064 43.6113 49.7236 41.7075C49.3218 40.8413 49.2197 40.3262 49.2163 39.1538C49.2124 37.8428 49.2856 37.541 49.8994 36.3477L50.5874 35.0107L49.7046 35.5537C46.9155 37.2705 43.2876 36.9067 40.8618 34.666C39.4971 33.4058 38.8042 32.0728 38.4658 30.0562L38.2075 28.519L38.0791 30.1118ZM37.0737 39.6299C35.2344 40.2349 33.98 41.2612 33.124 42.8638C32.5781 43.8853 32.4614 44.3276 32.396 45.6177C32.2949 47.6084 32.7705 48.9458 34.0942 50.3901C36.6997 53.2344 41.0122 53.2568 43.6826 50.4399C45.0142 49.0356 45.5146 47.6338 45.4048 45.6177C45.2637 43.04 44.0869 41.2075 41.8745 40.1211C40.4204 39.4072 38.3848 39.1987 37.0737 39.6299ZM36.9546 42.2158C35.5376 42.9541 34.813 44.0122 34.7051 45.5005C34.606 46.8701 34.896 47.8291 35.6792 48.7192C37.29 50.5498 39.8677 50.7373 41.6694 49.1548C42.7852 48.1753 43.2163 47.085 43.1035 45.5273C42.9912 43.9839 42.2754 42.9326 40.8413 42.2075C39.4453 41.5015 38.3213 41.5034 36.9546 42.2158Z" fill="#FFFFFF" fill-opacity="1.000000" fill-rule="evenodd"/>
</svg>
