<svg width="66.000000" height="75.000000" viewBox="0 0 66 75" fill="none" xmlns="http://www.w3.org/2000/svg" xmlns:xlink="http://www.w3.org/1999/xlink">
	<desc>
			Created with Pixso.
	</desc>
	<defs/>
	<path id="Vector" d="M19.042 0.210205C17.7524 0.679199 16.71 2.03369 16.71 3.24097L16.71 3.79834L10.9644 3.79834C4.83057 3.79834 4.33008 3.84741 3.09277 4.56763C2.35547 4.99658 1.21387 6.11523 0.811523 6.80273C-0.0805664 8.32788 -0.0219727 5.90747 0.0200195 39.645L0.0581055 70.4246L0.615723 71.5413C1.49463 73.302 3.0293 74.4858 4.94287 74.8789C5.44043 74.9812 13.1548 75.0181 28.4775 74.9917L51.2725 74.9526L52.0449 74.6387C53.6855 73.9719 55.0181 72.6523 55.6919 71.0276C56.0059 70.2695 56.0093 70.1431 56.083 56.7061L56.1567 43.1494L61.0786 32.5149C65.5449 22.864 66 21.8093 66 21.114C66 19.6279 65.2603 18.7542 63.2529 17.8694C61.2529 16.9883 59.9941 17.0789 58.9409 18.1804C58.6631 18.4712 57.9795 19.7285 57.2788 21.2388L56.0889 23.8037L56.0859 16.5432C56.0825 8.85083 56.0474 8.38989 55.3555 7.04712C54.8164 6.00171 53.7612 5.00977 52.564 4.42358L51.4365 3.87158L45.416 3.82886L39.3955 3.78613L39.3047 3.13232C39.1265 1.84351 38.3618 0.841797 37.1367 0.292969C36.4907 0.00341797 36.2129 -0.00561523 28.0337 0.00146484C21.2529 0.00708008 19.4878 0.0480957 19.042 0.210205ZM19.3633 2.61475C18.9307 3.04297 18.9307 3.04346 18.9307 4.896C18.9307 5.94287 19 6.87769 19.0903 7.04468C19.4619 7.73218 19.7515 7.75537 27.918 7.75464C32.772 7.75415 35.7856 7.698 36.1372 7.60132C37.0171 7.35938 37.1694 6.90918 37.1113 4.72266C37.0635 2.92554 37.0552 2.88672 36.6475 2.53955L36.2319 2.18628L28.0137 2.18628L19.7959 2.18628L19.3633 2.61475ZM7.23682 31.8538L7.23682 57.7107L6.84717 58.0144C6.63232 58.1814 6.36914 58.3184 6.26172 58.3184C5.87061 58.3184 5.34131 57.9841 5.18115 57.6357C5.0625 57.3784 5.0166 50.1367 5.0166 31.7109C5.0166 17.6487 4.98096 6.14331 4.93701 6.14331C4.64795 6.14331 3.65381 6.80103 3.21436 7.28271C2.10645 8.49707 2.19287 5.63721 2.23779 39.6321L2.27832 70.1162L2.69482 70.8176C3.18457 71.6423 4.24561 72.4541 5.11914 72.6724C5.53564 72.7766 10.6748 72.8276 20.7363 72.8276L35.7329 72.8276L35.9907 71.6917C36.3418 70.1465 36.3408 70.1414 35.7676 70.238C35.5029 70.283 29.0586 70.3374 21.4468 70.3596C8.27197 70.3979 7.58203 70.387 7.08887 70.1313C6.36816 69.7578 5.78564 69.1934 5.41016 68.5042C5.11426 67.9612 5.0874 67.6711 5.04395 64.5869L4.99658 61.2559L5.37012 60.8862C5.84229 60.4187 6.48486 60.4023 6.90674 60.8469C7.20264 61.1589 7.22266 61.353 7.26562 64.3606C7.30957 67.4485 7.32129 67.554 7.64844 67.8774L7.98535 68.2109L21.4141 68.1687C28.7993 68.1455 35.2881 68.0879 35.8335 68.0408L36.8247 67.9548L37.1396 66.5439C37.8159 63.5159 38.1016 62.821 43.3564 51.425L48.6763 39.8892L48.7163 29.2319L48.7559 18.575L49.1055 18.2947C49.5586 17.9314 50.2319 17.9373 50.606 18.3076C50.895 18.5938 50.9023 18.7961 50.9023 26.6909C50.9023 31.6218 50.9556 34.7266 51.0386 34.6416C51.1133 34.5649 51.7793 33.1865 52.5186 31.5784L53.8628 28.6541L53.8618 19.0476C53.8613 13.2131 53.8037 9.23755 53.7158 8.92285C53.3813 7.73169 52.2734 6.52441 51.2354 6.22095L50.9023 6.12354L50.9023 10.666L50.9023 15.2087L50.5122 15.5125C49.9814 15.926 49.626 15.8943 49.1147 15.3877L48.6821 14.9595L48.6821 10.478L48.6821 5.99683L44.04 5.99683L39.3979 5.99683L39.3086 6.74463C39.1279 8.25562 37.9814 9.49683 36.4814 9.80518C35.9541 9.91333 33.0552 9.9519 27.5742 9.92334C18.3579 9.87476 18.7051 9.91846 17.5977 8.67261C16.9907 7.98975 16.7124 7.29956 16.7109 6.47314L16.71 5.99683L11.9736 5.99683L7.23682 5.99683L7.23682 31.8538ZM60.5527 19.665C60.3779 19.8735 59.3257 22.0122 59.3789 22.0505C59.3979 22.0642 60.1675 22.4131 61.0898 22.8257L62.7666 23.5762L63.2817 22.4712C64.0122 20.906 63.9575 20.7061 62.6123 20.0298C61.4824 19.4619 60.8213 19.3447 60.5527 19.665ZM25.7393 22.2598C22.625 22.9214 20.3452 24.126 18.0171 26.3401C13.3037 30.8218 11.9058 37.4214 14.3843 43.4946C15.2993 45.7373 17.3291 48.3328 19.4048 49.9141C24.0298 53.4382 30.709 54.0503 35.9526 51.4309C41.7754 48.522 45.2437 42.2502 44.5386 35.9055C43.7686 28.9766 38.6567 23.4866 31.771 22.1934C30.1567 21.8901 27.332 21.9211 25.7393 22.2598ZM58.1333 24.698C57.9688 25.0659 57.8564 25.3877 57.8838 25.4131C57.9106 25.4385 58.6655 25.7869 59.561 26.1873L61.1895 26.915L61.5103 26.312C61.6865 25.9805 61.7866 25.6636 61.7324 25.6079C61.6782 25.5525 60.9131 25.1743 60.0327 24.7681L58.4321 24.0288L58.1333 24.698ZM26.1831 24.3977C23.3999 24.9885 21.0386 26.3062 19.0708 28.366C18.0127 29.4734 17.4297 30.3267 16.7056 31.8264C15.7466 33.8125 15.4834 35.0359 15.4834 37.5068C15.4834 39.2222 15.5449 39.8582 15.8022 40.8044C17.0933 45.5515 20.7412 49.1631 25.5913 50.4963C26.9248 50.8628 30.8862 50.8726 32.1865 50.5125C36.8608 49.218 40.3696 45.9312 41.7676 41.5374C44.1714 33.9827 39.4468 25.9978 31.6289 24.4028C30.2314 24.1177 27.5142 24.115 26.1831 24.3977ZM27.0244 27.3044C25.5757 27.8396 25.3027 28.52 25.2983 31.6079L25.2954 33.9895L22.8481 33.9895C20.0596 33.9895 19.6494 34.0916 18.9868 34.9519C18.5649 35.4995 18.5605 35.5271 18.5605 37.5068C18.5605 39.4543 18.5713 39.5222 18.959 40.0259C19.645 40.9163 20.0645 41.0244 22.8384 41.0244L25.2954 41.0244L25.2954 43.4114C25.2954 45.5959 25.3232 45.854 25.6284 46.4514C26.2412 47.6526 27.3975 48.052 29.7031 47.8591C30.9917 47.7515 31.6284 47.4275 32.1338 46.6228C32.4482 46.1218 32.4775 45.8894 32.5229 43.5615L32.5723 41.0425L35.1875 40.9968C37.6738 40.9531 37.8271 40.9338 38.3013 40.5991C39.1001 40.0347 39.3501 39.2974 39.3501 37.5068C39.3501 35.7163 39.1001 34.979 38.3013 34.4146C37.8271 34.0801 37.6738 34.0605 35.1875 34.0171L32.5723 33.9714L32.5225 31.4521C32.4663 28.5854 32.3652 28.2529 31.3496 27.5874C30.8125 27.2356 30.5908 27.1904 29.1704 27.1458C28.0576 27.1106 27.4224 27.1577 27.0244 27.3044ZM48.6128 45.3245C44.0693 55.1714 40.3247 63.3269 40.2915 63.4478C40.2178 63.7163 43.4395 65.188 43.6333 64.9741C43.8335 64.7529 60.2759 29.0056 60.208 28.9385C60.1392 28.8706 57.6729 27.731 57.1812 27.5403C56.894 27.4285 56.3301 28.5984 48.6128 45.3245ZM27.7007 29.3967C27.561 29.4524 27.5156 30.2029 27.5156 32.4468C27.5156 36.4456 27.8574 36.1016 23.8281 36.1594L20.7065 36.2043L20.7065 37.5068L20.7065 38.8096L23.8281 38.8542C27.8569 38.9124 27.5156 38.5686 27.5156 42.5637C27.5156 45.1392 27.5469 45.5481 27.7495 45.6252C28.1724 45.7859 29.9658 45.7209 30.1504 45.5383C30.2764 45.4136 30.3276 44.5256 30.3276 42.4768C30.3276 38.5918 29.999 38.9204 33.978 38.8259L37.0625 38.7527L37.105 37.4785L37.1479 36.2043L34.0205 36.1594C29.9917 36.1018 30.3276 36.4314 30.3276 32.5369C30.3276 30.488 30.2764 29.6003 30.1504 29.4756C29.9756 29.3027 28.0874 29.2419 27.7007 29.3967ZM52.3452 51.4785L50.9023 54.6121L50.8989 61.1184C50.895 68.4705 50.9146 68.3354 49.7393 69.3313C48.8477 70.0872 48.3213 70.1895 45.332 70.1895L42.6831 70.1895L41.7969 71.3931C41.3096 72.0554 40.8887 72.6489 40.8618 72.7122C40.7881 72.8838 50.2886 72.8521 50.9189 72.6787C52.1597 72.3376 53.3818 71.1194 53.7158 69.8909C53.8105 69.5432 53.8506 65.53 53.8267 58.845L53.7886 48.345L52.3452 51.4785ZM47.0488 62.9595C46.2036 64.7866 45.2607 66.6663 44.9536 67.1365L44.396 67.9912L46.1758 67.9912C47.8677 67.9912 47.9731 67.9734 48.3184 67.6313L48.6821 67.2717L48.6821 63.4543C48.6821 61.355 48.6602 59.6372 48.6338 59.6372C48.6074 59.6372 47.8945 61.1321 47.0488 62.9595ZM39.5767 65.9814C39.5425 66.0791 39.2095 67.5112 38.8374 69.1636C38.4648 70.8159 38.1235 72.3 38.0786 72.4612C38.0146 72.6919 40.3628 69.6768 42.0288 67.3892L42.3071 67.0071L40.9731 66.4053C40.0605 65.9934 39.6196 65.8596 39.5767 65.9814Z" fill="#FFFFFF" fill-opacity="1.000000" fill-rule="evenodd"/>
</svg>
