<svg width="73.371094" height="72.242188" viewBox="0 0 73.3711 72.2422" fill="none" xmlns="http://www.w3.org/2000/svg" xmlns:xlink="http://www.w3.org/1999/xlink">
	<desc>
			Created with Pixso.
	</desc>
	<defs/>
	<path id="Union" d="M22.9526 28.0095Q22.8442 28.0911 22.7319 28.167Q21.9272 28.709 20.9243 28.9563Q20.6089 29.0339 20.2891 29.0728Q19.9683 29.1118 19.6431 29.1118L19.3315 29.1118Q18.5195 29.1118 17.8013 28.8523Q17.0835 28.5925 16.459 28.0735Q15.8281 27.5488 15.4404 26.8828Q15.0527 26.2166 14.9087 25.4089L14.876 25.2251Q14.8228 24.9272 14.8149 24.6279Q14.8071 24.3289 14.8447 24.0286L14.8906 23.6658Q15.0552 22.3574 15.7896 21.6028Q16.5234 20.8484 17.8267 20.6477Q18.2466 20.5833 18.5308 20.3523Q18.8149 20.1213 18.9639 19.7239Q19.1343 19.2698 19.4038 18.8857Q19.6738 18.5017 20.043 18.1875L21.3281 17.0945Q21.9512 16.5647 22.6523 16.1758Q23.3535 15.7869 24.1328 15.5388L24.4854 15.4268Q25.437 15.1238 26.3955 15.1001Q27.354 15.0762 28.3193 15.3311Q29.7144 15.6997 30.7681 16.511Q30.8179 16.5496 30.8672 16.5889L30.6167 15.1611Q30.5815 14.9614 30.564 14.76Q30.5469 14.5591 30.5469 14.3567L30.5469 13.6775Q30.5469 12.4714 31.1025 11.6343Q31.6582 10.7974 32.7695 10.3293Q33.6626 9.95337 34.5137 10.0315Q35.3647 10.1094 36.1748 10.6414L36.8921 11.113Q37.1128 10.8628 37.355 10.636Q37.7168 10.2974 38.1279 10.011Q38.3335 9.86768 38.5488 9.73975Q38.7637 9.61206 38.9883 9.5L39.877 9.05566L40.1099 8.70947Q40.2549 8.4939 40.3276 8.25586Q40.4004 8.01807 40.4004 7.75781Q40.4004 7.09253 40.6104 6.50146Q40.8198 5.9104 41.2397 5.39404Q41.9712 4.4939 42.8232 3.729Q43.6758 2.96387 44.6494 2.33398L45.2944 1.9165Q46.0654 1.41772 46.894 1.04688Q47.7222 0.676025 48.6079 0.433105Q50.293 -0.0290527 51.9692 0.00195312Q53.6455 0.032959 55.313 0.556885L56.9375 1.06738Q58.7456 1.63574 60.1963 2.69409Q61.647 3.75244 62.7402 5.30078Q63.2017 5.95435 63.5625 6.65918Q63.9233 7.3645 64.1841 8.12134Q64.7871 9.87305 64.8135 11.6333Q64.8403 13.3938 64.291 15.1631L63.9658 16.2097L63.041 18.7947Q62.7725 19.5444 62.415 20.249Q62.0576 20.9531 61.6108 21.6118Q60.9058 22.6523 60.0273 23.5173Q59.1494 24.3823 58.0981 25.0715L56.7202 25.9749Q56.29 26.2571 55.8252 26.4595Q55.3604 26.6619 54.8608 26.7847L52.5371 27.3562Q52.1909 27.4414 52.0176 27.6621Q51.8447 27.8831 51.8447 28.2395Q51.8447 28.5881 51.7666 28.9187Q51.6885 29.249 51.5327 29.5608L49.7764 33.0735Q49.0928 34.4402 48.2256 35.6782Q47.3579 36.9163 46.3062 38.0254L45.7334 38.6294Q44.8779 39.5315 43.9023 40.2759Q42.9263 41.021 41.8301 41.6082L41.0376 42.0327Q39.1201 43.0601 37.0884 43.3948Q35.0566 43.7297 32.9106 43.3721L32.5249 43.3076Q30.167 42.9148 28.2783 41.7566Q26.3896 40.5986 24.9697 38.6753Q23.8169 37.113 23.2402 35.3608Q22.6636 33.6089 22.6636 31.6672Q22.6636 30.113 22.8682 28.5862Q22.9067 28.2974 22.9526 28.0095ZM25.9688 24.2124L25.4546 26.0977Q25.082 27.4651 24.8955 28.8574Q24.709 30.2498 24.709 31.6672Q24.709 33.2725 25.1855 34.7207Q25.6621 36.1692 26.6152 37.4607Q27.7891 39.0508 29.3506 40.0081Q30.9116 40.9656 32.8608 41.2903L33.2466 41.3547Q35.0488 41.655 36.7554 41.3738Q38.4614 41.0925 40.0723 40.2297L40.8643 39.8054Q41.8149 39.2961 42.6616 38.6499Q43.5073 38.0044 44.2495 37.2222L44.8218 36.6182Q45.769 35.6194 46.5508 34.5042Q47.3315 33.3896 47.9468 32.1589L49.7031 28.6462Q49.7515 28.5503 49.7754 28.4485Q49.7993 28.3469 49.7993 28.2395Q49.7993 27.0813 50.3618 26.364Q50.9238 25.6467 52.0483 25.3701L54.3726 24.7988Q54.7017 24.7178 55.0083 24.5842Q55.3149 24.4507 55.5986 24.2646L56.9766 23.3611Q57.8569 22.7842 58.5918 22.0601Q59.3276 21.3357 59.918 20.4644Q60.292 19.9126 60.5913 19.3232Q60.8906 18.7334 61.1152 18.1055L62.0254 15.5618L62.3379 14.5566Q62.7881 13.1069 62.7661 11.6643Q62.7441 10.2222 62.25 8.78687Q62.0371 8.16797 61.7417 7.59131Q61.4468 7.01489 61.0693 6.48047Q60.1753 5.21411 58.9893 4.34863Q57.8027 3.48315 56.3242 3.01855L54.6997 2.50806Q53.3193 2.07422 51.9316 2.04858Q50.5439 2.02295 49.1484 2.40552Q48.4155 2.60669 47.7295 2.91357Q47.0439 3.2207 46.4058 3.63354L45.7607 4.05103Q44.9229 4.59302 44.1895 5.25122Q43.4561 5.90942 42.8271 6.68359Q42.6362 6.91846 42.541 7.18701Q42.4458 7.45557 42.4458 7.75781Q42.4458 8.33032 42.2856 8.85376Q42.126 9.37744 41.8062 9.85205L41.356 10.5203L41.1387 10.7112L39.9028 11.3291Q39.7437 11.4087 39.5913 11.4993Q39.4409 11.5889 39.2969 11.6892Q39.0073 11.8906 38.7529 12.1292Q38.498 12.3677 38.2773 12.6431L38.125 12.8335L38.125 14.0024Q38.125 14.5498 38.2197 15.0806Q38.314 15.6113 38.5029 16.1252Q38.8984 17.2034 39.6001 18.0183Q40.3013 18.8333 41.3081 19.3855C41.8105 19.6606 41.9888 20.2717 41.7134 20.7737C41.438 21.2759 40.8271 21.4541 40.3247 21.1787Q38.9819 20.4421 38.0464 19.3552Q37.1108 18.2683 36.583 16.8306Q36.3315 16.1458 36.2056 15.4387Q36.0801 14.7319 36.0801 14.0024L36.0801 13.0266L35.0513 12.3506Q34.6978 12.1182 34.3257 12.084Q33.9536 12.0498 33.5635 12.2141Q33.0776 12.4187 32.835 12.7844Q32.5918 13.1504 32.5918 13.6775L32.5918 14.3567Q32.5918 14.4705 32.6016 14.5835Q32.6113 14.696 32.6313 14.8079L33.2993 18.6162L33.4331 18.8262Q33.6299 19.1357 34.0151 19.7676Q35.9961 23.0159 37.5054 23.6626Q37.7368 23.7617 39.3057 24.2217Q41.5132 24.8684 43.9243 24.8684C44.4971 24.8684 44.9468 25.3184 44.9468 25.8911C44.9468 26.4636 44.4971 26.9136 43.9243 26.9136Q41.2197 26.9136 38.7305 26.1843Q37.0439 25.6899 36.6997 25.5425Q35.1465 24.8767 33.4785 22.6382Q33.4741 23.6638 33.3579 24.677Q33.1426 26.5637 32.5415 28.4062C32.3638 28.9507 31.7969 29.239 31.2524 29.0615C30.708 28.8838 30.4194 28.3167 30.5972 27.7722Q31.1333 26.1279 31.3257 24.4446Q31.5181 22.7612 31.3672 21.0386L31.3281 20.5935L30.7563 19.5869Q30.2559 18.7063 29.5161 18.1367Q28.7764 17.5671 27.7974 17.3086Q27.1191 17.1294 26.4463 17.1462Q25.7734 17.1631 25.1055 17.3755L24.7529 17.4878Q24.1694 17.6733 23.6445 17.9646Q23.1196 18.2559 22.6533 18.6523L21.3682 19.7454Q21.2007 19.8877 21.0786 20.062Q20.9561 20.2361 20.8789 20.4419Q20.5195 21.3999 19.8345 21.9568Q19.1489 22.5137 18.1377 22.6692Q17.5972 22.7524 17.2925 23.0654Q16.9883 23.3784 16.9199 23.9211L16.874 24.2839Q16.856 24.4299 16.8594 24.5754Q16.8633 24.7207 16.8892 24.8655L16.9219 25.0493Q17.0005 25.4893 17.2119 25.8523Q17.4229 26.2151 17.7666 26.501Q18.1069 26.7837 18.498 26.9253Q18.8892 27.0667 19.3315 27.0667L19.6431 27.0667Q19.8442 27.0667 20.042 27.0425Q20.2397 27.0186 20.4351 26.9705Q21.0742 26.813 21.5864 26.4675Q22.0991 26.1221 22.4849 25.5889L24.1328 23.3115L24.5459 22.4905C24.8032 21.9788 25.4072 21.7791 25.9189 22.0364C26.4302 22.2937 26.6304 22.8977 26.373 23.4094L25.9688 24.2124ZM19.3271 71.1392L19.3271 69.5586Q19.3271 65.0522 17.5229 61.4495Q15.7188 57.8464 12.1104 55.147Q10.5005 53.9424 9.27246 52.4285L9.27246 52.4285Q8.04395 50.9146 7.19727 49.0908L3.11426 40.2969Q2.58496 38.6213 2.31738 36.905L2.31738 36.9043Q2.04541 35.1565 2.04541 33.3665L2.04541 27.9597Q2.04541 27.189 2.40088 26.6553Q2.75684 26.1216 3.46826 25.8252Q4.01807 25.5959 4.5459 25.6387Q5.07373 25.6816 5.57959 25.9963L5.94531 26.2239Q6.54395 26.5964 6.90381 27.1301Q7.26367 27.6638 7.38428 28.3584L7.6709 30.0046L8.27539 33.7083C8.36768 34.2734 8.88428 34.645 9.44922 34.5527C10.0146 34.4604 10.3862 33.9438 10.2939 33.3787L9.68555 29.6541L9.39941 28.0078Q9.2002 26.8621 8.60693 25.9819Q8.01318 25.1018 7.02588 24.4875L6.65967 24.2598Q5.70703 23.6667 4.7124 23.5862Q3.71777 23.5054 2.68164 23.9373Q1.34082 24.4958 0.67041 25.5015Q0 26.5071 0 27.9597L0 33.3665Q0 35.3154 0.296387 37.2185L0.296387 37.2188Q0.592773 39.1221 1.18555 40.9792L1.20508 41.0408L5.34229 49.9521Q6.29785 52.0095 7.68311 53.7175Q9.06885 55.4258 10.8853 56.7844Q14.0835 59.1772 15.6826 62.3708Q17.2817 65.5645 17.2817 69.5586L17.2817 71.1392C17.2817 71.7117 17.7319 72.1616 18.3047 72.1616C18.877 72.1616 19.3271 71.7117 19.3271 71.1392ZM54.0439 69.6394L54.0439 71.2197C54.0439 71.7925 54.4937 72.2422 55.0664 72.2422C55.6392 72.2422 56.0889 71.7925 56.0889 71.2197L56.0889 69.6394Q56.0889 65.6453 57.688 62.4517L57.688 62.4514Q59.2876 59.2578 62.4858 56.865Q64.3018 55.5063 65.6875 53.7981L65.688 53.7979L65.688 53.7979Q67.0737 52.0898 68.0288 50.0327L72.166 41.1213L72.1855 41.0601Q72.7778 39.2043 73.0742 37.3025L73.0747 37.2993Q73.3711 35.3962 73.3711 33.447L73.3711 28.0403Q73.3711 26.5876 72.7007 25.582Q72.0303 24.5764 70.6895 24.0178Q69.6533 23.5862 68.6592 23.6667L68.6587 23.6667L68.6587 23.6667Q67.6641 23.7473 66.7109 24.3403L66.3452 24.5681Q65.3574 25.1826 64.7642 26.0627L64.7642 26.0627Q64.1709 26.9429 63.9717 28.0886L63.6855 29.7349L63.0771 33.4592C62.9849 34.0244 63.3564 34.541 63.9219 34.6333C64.4868 34.7256 65.0034 34.354 65.0957 33.7888L65.7002 30.0852L65.9868 28.439Q66.1074 27.7446 66.4668 27.2114L66.4673 27.2107Q66.8271 26.677 67.4258 26.3047L67.7915 26.0769Q68.2974 25.7622 68.8252 25.7195Q69.353 25.6765 69.9028 25.9058Q70.6143 26.2021 70.9702 26.7358Q71.3257 27.2695 71.3257 28.0403L71.3257 33.447Q71.3257 35.2349 71.0542 36.9807L71.0537 36.9849L71.0532 36.9866L71.0532 36.9868Q70.7861 38.7026 70.2563 40.3774L66.1733 49.1714Q65.3271 50.9951 64.0986 52.509Q62.8706 54.0229 61.2607 55.2275Q57.6523 57.927 55.8481 61.53Q54.0439 65.1331 54.0439 69.6394ZM33.7285 71.1392L33.7285 57.7681Q33.7285 56.0183 33.2959 54.3833Q32.8628 52.7483 31.9971 51.2278Q31.1787 49.7908 30.0703 48.6311Q28.9619 47.4714 27.563 46.5891L25.9785 45.5896Q25.5352 45.3101 25.061 45.0991L25.061 45.0991Q24.5864 44.8882 24.0815 44.7461Q23.4312 44.563 22.8667 44.2327Q22.3022 43.9021 21.8242 43.4241L17.8447 39.4446L15.2261 37.4189Q14.2417 36.6575 13.1982 36.5649Q12.1548 36.4724 11.0518 37.0486Q10.1802 37.5037 9.66992 38.2173Q9.15967 38.9309 9.01074 39.9028Q8.8623 40.8745 9.13525 41.7083Q9.40869 42.5417 10.1035 43.2371L18.6426 51.7759C19.0474 52.1807 19.6836 52.1807 20.0889 51.7759C20.4937 51.3708 20.4937 50.7346 20.0889 50.3296L11.5498 41.7908Q11.2207 41.4617 11.0913 41.0671Q10.9619 40.6724 11.0327 40.2124Q11.103 39.7524 11.3447 39.4146Q11.5859 39.0767 11.9985 38.8613Q12.5205 38.5886 13.0146 38.6323Q13.5088 38.6763 13.9746 39.0366L16.4902 40.9827L20.3779 44.8701Q21.0449 45.5371 21.8325 45.9983Q22.6201 46.4595 23.5278 46.7148Q23.8896 46.8167 24.2295 46.9678L24.2295 46.9678Q24.5693 47.1189 24.8872 47.3196L26.4717 48.3188Q27.6543 49.0647 28.5913 50.0449L28.5913 50.0449Q29.5283 51.0251 30.2197 52.2397Q30.9517 53.5249 31.3174 54.907Q31.6836 56.2891 31.6836 57.7681L31.6836 71.1392C31.6836 71.7117 32.1333 72.1616 32.7061 72.1616C33.2788 72.1616 33.7285 71.7117 33.7285 71.1392ZM39.6421 57.8486L39.6421 71.2197C39.6421 71.7925 40.0923 72.2422 40.665 72.2422C41.2378 72.2422 41.6875 71.7925 41.6875 71.2197L41.6875 57.8486Q41.6875 56.3696 42.0532 54.9875L42.0537 54.9861Q42.4199 53.6047 43.1514 52.3203Q43.8428 51.1057 44.7798 50.1252L44.7803 50.1252Q45.7173 49.145 46.8994 48.3994L48.4834 47.4001Q48.8013 47.1995 49.1411 47.0483L49.1416 47.0483L49.1421 47.0481L49.1421 47.0481Q49.4814 46.8972 49.8433 46.7954Q50.751 46.54 51.5386 46.0789L51.5396 46.0784Q52.3267 45.6174 52.9932 44.9507L56.8804 41.0632L59.3965 39.1172Q59.8623 38.7568 60.3564 38.7129Q60.8501 38.6692 61.3726 38.9419Q61.7852 39.1575 62.0264 39.4951L62.0264 39.4951Q62.2681 39.833 62.3384 40.293Q62.4087 40.7532 62.2798 41.1477L62.2793 41.1477Q62.1504 41.5422 61.8213 41.8713L53.2822 50.4102C52.8774 50.8152 52.8774 51.4514 53.2822 51.8564C53.687 52.2612 54.3237 52.2612 54.7285 51.8564L63.2671 43.3176Q63.9624 42.6223 64.2358 41.7888L64.2358 41.7888Q64.5088 40.9553 64.3599 39.9834Q64.2109 39.0115 63.7012 38.2979Q63.1909 37.5842 62.3193 37.1292Q61.2163 36.553 60.1729 36.6455L60.1729 36.6455Q59.1289 36.738 58.145 37.4995L55.5264 39.5251L51.5469 43.5046Q51.0688 43.9824 50.5049 44.313L50.5044 44.3132L50.5044 44.3132Q49.9399 44.6438 49.2896 44.8267Q48.7847 44.9688 48.3105 45.1794Q47.8359 45.3904 47.3926 45.6702L45.8081 46.6697Q44.4092 47.552 43.3008 48.7114L43.3008 48.7117Q42.1924 49.8713 41.374 51.3083Q40.5083 52.8286 40.0752 54.4634L40.0752 54.4639L40.0747 54.4651Q39.6421 56.0996 39.6421 57.8486Z" clip-rule="evenodd" fill="#FFFFFF" fill-opacity="1.000000" fill-rule="evenodd"/>
</svg>
