<svg width="70" height="71" viewBox="0 0 70 71" fill="none" xmlns="http://www.w3.org/2000/svg">
<path fill-rule="evenodd" clip-rule="evenodd" d="M45.717 1.0516C43.0496 1.38738 40.3424 2.18743 38.1426 3.28999C35.171 4.77956 35.5136 4.4641 19.7426 20.2351C7.30174 32.6759 4.98804 35.0512 4.27291 36.1167C-2.47706 46.1724 0.0708005 59.643 9.98227 66.3033C17.3469 71.2521 26.7633 71.2307 34.3082 66.2479C35.4704 65.4803 37.2721 63.7347 49.7313 51.3046C57.4903 43.5639 64.2002 36.7919 64.6422 36.2559C70.0085 29.7493 71.0245 20.5152 67.2153 12.8683C64.2816 6.97883 58.7624 2.76154 52.1903 1.38766C50.8291 1.10311 46.9198 0.900139 45.717 1.0516ZM45.4984 4.45241C42.4462 4.85111 39.5016 6.05167 36.9466 7.93925C36.449 8.30677 33.1673 11.4857 29.654 15.0033L23.2664 21.3988L33.8191 31.9401L44.3719 42.4813L50.8578 35.9579C57.5332 29.244 57.8618 28.865 58.6069 27.0203C59.2773 25.3606 59.4231 24.5389 59.4135 22.4739C59.4056 20.7786 59.3561 20.3663 59.034 19.3048C58.5632 17.7533 58.5611 17.2575 59.0233 16.7083C59.8368 15.7414 61.2013 15.9644 61.8226 17.1657C62.214 17.9228 62.7103 20.2436 62.7937 21.7083C62.9921 25.1883 61.9387 28.7385 59.9055 31.4416C59.4689 32.0222 56.3483 35.2533 52.9712 38.622C49.5939 41.9905 46.8307 44.7891 46.8307 44.8408C46.8307 44.8926 47.3458 45.4446 47.9753 46.0673L49.1198 47.1996L55.7433 40.5445C60.491 35.774 62.5524 33.6066 63.0224 32.8912C66.2533 27.9725 67.0289 22.1634 65.1922 16.6404C62.7556 9.31355 55.5864 4.23566 47.8052 4.32531C47.0012 4.3345 45.9633 4.39171 45.4984 4.45241ZM14.239 30.4438C7.22866 37.4808 6.78972 37.9898 5.62243 40.4353C4.97036 41.8016 4.49273 43.2224 4.14665 44.8248C3.79221 46.4659 3.78832 50.2559 4.13941 51.9173C5.2318 57.0877 8.02467 61.1192 12.4465 63.9088C17.7433 67.2505 24.6118 67.5707 30.2678 64.7398C32.6417 63.5516 33.1125 63.1422 40.0789 56.2086L46.7611 49.5579L45.6506 48.4406C45.0399 47.8261 44.4758 47.3233 44.3971 47.3233C44.3185 47.3233 41.4979 50.0865 38.1294 53.4638C34.7607 56.8409 31.5292 59.9618 30.9481 60.3987C28.5008 62.2394 25.1647 63.3338 22.0061 63.3321C20.091 63.3311 17.0402 62.6577 16.2951 62.0718C15.4675 61.4207 15.5095 60.2271 16.3863 59.4894C16.8912 59.0647 17.3413 59.0796 19.0579 59.5782C19.9905 59.8491 20.4885 59.9013 22.1206 59.8994C23.8301 59.8972 24.2202 59.8512 25.2956 59.5249C28.394 58.5848 28.5299 58.4693 38.963 47.9107L42.0233 44.8136L31.5154 34.305C25.7362 28.5253 20.9746 23.7965 20.9343 23.7965C20.894 23.7965 17.881 26.7878 14.239 30.4438Z" fill="#688AC5" stroke="#F4F7FB"/>
</svg>
