<svg width="37" height="37" viewBox="0 0 37 37" fill="none" xmlns="http://www.w3.org/2000/svg">
<path d="M18.1529 0C27.8501 0 36.3057 8.00542 36.3057 17.2452C36.3057 26.3289 28.0407 33.4775 18.1529 33.4775C16.038 33.4786 13.9364 33.1441 11.9264 32.4864C11.0841 33.3033 10.7955 33.581 9.00745 35.3055C7.7186 36.2785 6.50599 36.6089 5.42226 35.9953C4.32946 35.3781 4.00089 34.1764 4.22417 32.5935L4.95029 28.3838C1.79713 25.4177 0 21.4966 0 17.2452C0 8.00542 8.45379 0 18.1529 0ZM18.1529 2.5414C9.82796 2.5414 2.5414 9.43949 2.5414 17.2452C2.5414 20.9575 4.19694 24.3757 7.11593 26.9207L7.15223 26.9516L7.69137 27.4199L7.56975 28.1279L7.31924 29.5874L7.25207 29.9758L6.73472 32.9856C6.7042 33.1882 6.68602 33.3925 6.68026 33.5973V33.7698C6.68026 33.7789 6.67844 33.7825 6.67663 33.7843C6.68933 33.7662 6.93621 33.6881 7.35917 33.3795L11.2983 29.5565L12.0499 29.8397C14.0021 30.5681 16.0692 30.9401 18.1529 30.9379C26.7138 30.9379 33.7643 24.8386 33.7643 17.2452C33.7643 9.44131 26.4778 2.5414 18.1529 2.5414ZM9.48851 14.1828C9.85421 14.1695 10.2189 14.23 10.5607 14.3607C10.9025 14.4914 11.2144 14.6897 11.4778 14.9437C11.7413 15.1977 11.9508 15.5022 12.094 15.839C12.2371 16.1758 12.3108 16.538 12.3108 16.904C12.3108 17.2699 12.2371 17.6321 12.094 17.9689C11.9508 18.3057 11.7413 18.6102 11.4778 18.8642C11.2144 19.1182 10.9025 19.3165 10.5607 19.4472C10.2189 19.5779 9.85421 19.6384 9.48851 19.6251C8.78402 19.5993 8.11698 19.3014 7.62768 18.7939C7.13839 18.2864 6.86499 17.6089 6.86499 16.904C6.86499 16.199 7.13839 15.5215 7.62768 15.014C8.11698 14.5065 8.78402 14.2086 9.48851 14.1828ZM18.5613 14.1828C18.927 14.1695 19.2917 14.23 19.6335 14.3607C19.9753 14.4914 20.2872 14.6897 20.5507 14.9437C20.8141 15.1977 21.0236 15.5022 21.1668 15.839C21.3099 16.1758 21.3837 16.538 21.3837 16.904C21.3837 17.2699 21.3099 17.6321 21.1668 17.9689C21.0236 18.3057 20.8141 18.6102 20.5507 18.8642C20.2872 19.1182 19.9753 19.3165 19.6335 19.4472C19.2917 19.5779 18.927 19.6384 18.5613 19.6251C17.8568 19.5993 17.1898 19.3014 16.7005 18.7939C16.2112 18.2864 15.9378 17.6089 15.9378 16.904C15.9378 16.199 16.2112 15.5215 16.7005 15.014C17.1898 14.5065 17.8568 14.2086 18.5613 14.1828ZM27.6323 14.1828C27.998 14.1695 28.3627 14.23 28.7045 14.3607C29.0463 14.4914 29.3582 14.6897 29.6216 14.9437C29.8851 15.1977 30.0946 15.5022 30.2378 15.839C30.3809 16.1758 30.4546 16.538 30.4546 16.904C30.4546 17.2699 30.3809 17.6321 30.2378 17.9689C30.0946 18.3057 29.8851 18.6102 29.6216 18.8642C29.3582 19.1182 29.0463 19.3165 28.7045 19.4472C28.3627 19.5779 27.998 19.6384 27.6323 19.6251C26.9278 19.5993 26.2608 19.3014 25.7715 18.7939C25.2822 18.2864 25.0088 17.6089 25.0088 16.904C25.0088 16.199 25.2822 15.5215 25.7715 15.014C26.2608 14.5065 26.9278 14.2086 27.6323 14.1828Z" fill="white"/>
</svg>
