<svg width="52.524902" height="74.747070" viewBox="0 0 52.5249 74.7471" fill="none" xmlns="http://www.w3.org/2000/svg" xmlns:xlink="http://www.w3.org/1999/xlink">
	<desc>
			Created with Pixso.
	</desc>
	<defs/>
	<path id="Vector" d="M9.93945 9.14355C9.39551 8.22266 9.10498 7.1748 9.09668 6.10547C9.08887 5.03662 9.36377 3.98438 9.89404 3.05566C10.4243 2.12695 11.1904 1.35547 12.1152 0.818848C13.04 0.282227 14.0903 -0.000488281 15.1597 0L37.3652 0C38.4346 -0.000488281 39.4849 0.282227 40.4097 0.818848C41.3345 1.35547 42.1006 2.12695 42.6309 3.05566C43.1611 3.98438 43.436 5.03662 43.4282 6.10547C43.4199 7.1748 43.1294 8.22266 42.5854 9.14355L35.7451 20.7231L32.2666 18.6704L39.103 7.08691C39.2837 6.78027 39.3804 6.43115 39.3828 6.0752C39.3853 5.71924 39.2939 5.36914 39.1177 5.05957C38.9414 4.75049 38.6865 4.49365 38.3784 4.31445C38.0708 4.13525 37.7212 4.04102 37.3652 4.04053L15.1597 4.04053C14.8037 4.04102 14.4541 4.13525 14.1465 4.31445C13.8389 4.49365 13.5835 4.75049 13.4072 5.05957C13.231 5.36914 13.1396 5.71924 13.1421 6.0752C13.1445 6.43115 13.2412 6.78027 13.4224 7.08691L20.2627 18.6704L16.7798 20.7231L9.93945 9.14355ZM42.5854 43.3818C43.1294 44.3022 43.4199 45.3501 43.4282 46.4194C43.436 47.4888 43.1611 48.541 42.6309 49.4692C42.1006 50.3979 41.3345 51.1694 40.4097 51.7061C39.4849 52.2432 38.4346 52.5254 37.3652 52.5249L15.1597 52.5249C14.0903 52.5254 13.04 52.2432 12.1152 51.7061C11.1904 51.1694 10.4243 50.3979 9.89404 49.4692C9.36377 48.541 9.08887 47.4888 9.09668 46.4194C9.10498 45.3501 9.39551 44.3022 9.93945 43.3818L16.7798 31.8018L20.2627 33.8545L13.418 45.438C13.2373 45.7451 13.1406 46.0942 13.1382 46.4507C13.1357 46.8071 13.2275 47.1577 13.4043 47.4668C13.5811 47.7764 13.8364 48.0332 14.145 48.2119C14.4531 48.3906 14.8032 48.4849 15.1597 48.4849L37.3652 48.4849C37.7212 48.4844 38.0708 48.3896 38.3784 48.2104C38.6865 48.0317 38.9414 47.7744 39.1177 47.4653C39.2939 47.1558 39.3853 46.8057 39.3828 46.4497C39.3804 46.0938 39.2837 45.7446 39.103 45.438L32.2622 33.8545L35.7451 31.8018L42.5854 43.3818Z" fill="#FFFFFF" fill-opacity="1.000000" fill-rule="evenodd"/>
	<path id="Vector" d="M9.93945 9.14355C9.39551 8.22266 9.10498 7.1748 9.09668 6.10547C9.08887 5.03662 9.36377 3.98438 9.89404 3.05566C10.4243 2.12695 11.1904 1.35547 12.1152 0.818848C13.04 0.282227 14.0903 -0.000488281 15.1597 0L37.3652 0C38.4346 -0.000488281 39.4849 0.282227 40.4097 0.818848C41.3345 1.35547 42.1006 2.12695 42.6309 3.05566C43.1611 3.98438 43.436 5.03662 43.4282 6.10547C43.4199 7.1748 43.1294 8.22266 42.5854 9.14355L35.7461 20.7222L35.7451 20.7231L33.1279 19.1787L32.2739 18.6748L32.2666 18.6704L32.2739 18.6582L32.7749 17.8096L39.103 7.08691C39.2837 6.78027 39.3804 6.43115 39.3828 6.0752C39.3853 5.71924 39.2939 5.36914 39.1177 5.05957C38.9414 4.75049 38.6865 4.49365 38.3784 4.31445C38.0708 4.13525 37.7212 4.04102 37.3652 4.04053L15.1597 4.04053C14.8037 4.04102 14.4541 4.13525 14.1465 4.31445C13.8389 4.49365 13.5835 4.75049 13.4072 5.05957C13.231 5.36914 13.1396 5.71924 13.1421 6.0752C13.1445 6.43115 13.2412 6.78027 13.4224 7.08691L19.7539 17.8096L20.2627 18.6704L19.4009 19.1782L16.7798 20.7231L9.93945 9.14355ZM17.1328 19.3545L18.8926 18.3174L12.5605 7.59473Q12.3545 7.24512 12.2495 6.8667Q12.145 6.48877 12.1421 6.08252Q12.1392 5.67627 12.2383 5.29688Q12.3374 4.91748 12.5386 4.56445Q12.7397 4.21143 13.0161 3.93311Q13.2925 3.6543 13.6436 3.4502Q13.9902 3.24805 14.3643 3.146Q14.7476 3.04102 15.1597 3.04053L37.3667 3.04053Q37.7729 3.04102 38.1519 3.14355Q38.5303 3.24561 38.8813 3.4502Q39.2324 3.6543 39.5088 3.93311Q39.7852 4.21143 39.9863 4.56445Q40.1875 4.91748 40.2866 5.29688Q40.3857 5.67627 40.3828 6.08252Q40.3799 6.48779 40.2759 6.86523Q40.1709 7.24414 39.9639 7.59521L33.6362 18.3174L35.3926 19.354L41.7246 8.63477Q42.0713 8.04785 42.2471 7.41357Q42.4229 6.77979 42.4282 6.09814Q42.4331 5.4165 42.2666 4.78027Q42.1006 4.14355 41.7627 3.55127Q41.4248 2.95947 40.9609 2.49268Q40.4971 2.02588 39.9077 1.68359Q39.3193 1.34229 38.6855 1.17139Q38.0483 0.999512 37.3652 1L15.1592 1Q14.4775 0.999512 13.8423 1.1709Q13.2065 1.3418 12.6172 1.68359Q12.0278 2.02588 11.564 2.49268Q11.1006 2.95947 10.7627 3.55127Q10.4248 4.14355 10.2583 4.77979Q10.0918 5.4165 10.0967 6.09814Q10.1021 6.7793 10.2778 7.41357Q10.4536 8.04785 10.8003 8.63477L17.1328 19.3545ZM42.2476 45.1118Q42.4229 45.7456 42.4282 46.4268Q42.4331 47.1084 42.2666 47.7451Q42.1006 48.3818 41.7627 48.9736Q41.4243 49.5654 40.9609 50.0322Q40.4971 50.4995 39.9077 50.8413Q39.3184 51.1836 38.6831 51.3545Q38.0474 51.5254 37.3657 51.5249L15.1597 51.5249Q14.4761 51.5254 13.8394 51.3535Q13.2056 51.1826 12.6172 50.8413Q12.0278 50.4995 11.564 50.0322Q11.1006 49.5654 10.7627 48.9736Q10.4248 48.3818 10.2583 47.7451Q10.0918 47.1084 10.0967 46.4268Q10.1021 45.7451 10.2778 45.1113Q10.4536 44.4771 10.8003 43.8901L17.1328 33.1704L18.8921 34.2075L12.5571 44.9297Q12.3486 45.2827 12.2441 45.6641Q12.1406 46.04 12.1382 46.4438Q12.1353 46.8506 12.2349 47.2305Q12.3345 47.6104 12.5361 47.9634Q12.7378 48.3164 13.0146 48.5947Q13.2915 48.873 13.6436 49.0771Q13.9951 49.2812 14.374 49.3828Q14.7534 49.4849 15.1602 49.4844L37.3652 49.4844Q37.7773 49.4839 38.1606 49.3789Q38.5347 49.2769 38.8813 49.0747Q39.2324 48.8706 39.5088 48.5923Q39.7852 48.3135 39.9863 47.9604Q40.1875 47.6079 40.2866 47.228Q40.3857 46.8486 40.3828 46.4424Q40.3799 46.0361 40.2754 45.6582Q40.1704 45.2803 39.9644 44.9302L33.6323 34.2075L35.3926 33.1704L41.7246 43.8901Q42.0713 44.4775 42.2476 45.1118ZM35.7432 31.8032L35.7451 31.8018L35.7471 31.8047L42.5854 43.3818C43.1294 44.3022 43.4199 45.3501 43.4282 46.4194C43.436 47.4888 43.1611 48.541 42.6309 49.4692C42.1006 50.3979 41.3345 51.1694 40.4097 51.7061C39.4849 52.2432 38.4346 52.5254 37.3652 52.5249L15.1597 52.5249C14.0903 52.5254 13.04 52.2432 12.1152 51.7061C11.1904 51.1694 10.4243 50.3979 9.89404 49.4692C9.36377 48.541 9.08887 47.4888 9.09668 46.4194C9.10498 45.3501 9.39551 44.3022 9.93945 43.3818L16.7788 31.8032L16.7798 31.8018L16.7827 31.8037L19.4009 33.3467L20.2627 33.8545L19.7539 34.7153L13.418 45.438C13.2373 45.7451 13.1406 46.0942 13.1382 46.4507C13.1357 46.8071 13.2275 47.1577 13.4043 47.4668C13.5811 47.7764 13.8364 48.0332 14.145 48.2119C14.4531 48.3906 14.8032 48.4849 15.1597 48.4849L37.3652 48.4849C37.7212 48.4844 38.0708 48.3896 38.3784 48.2104C38.6865 48.0317 38.9414 47.7744 39.1177 47.4653C39.2939 47.1558 39.3853 46.8057 39.3828 46.4497C39.3804 46.0938 39.2837 45.7446 39.103 45.438L32.771 34.7153L32.2632 33.856L32.2622 33.8545L32.2632 33.854L33.124 33.3467L35.7432 31.8032Z" fill="#7C5A9E" fill-opacity="1.000000" fill-rule="evenodd"/>
	<path id="Vector" d="M9.48682 39.7534C5.4668 42.5088 0 39.6323 0 34.7554L0 17.7695C0 12.8931 5.4668 10.0122 9.48682 12.772L20.8403 20.5576L18.5532 23.8867L7.2002 16.105C6.89648 15.8979 6.54248 15.7773 6.17578 15.7563C5.80908 15.7354 5.44385 15.8149 5.11914 15.9858C4.79395 16.1572 4.52197 16.4136 4.33203 16.728C4.1416 17.0425 4.04102 17.4023 4.04053 17.7695L4.04053 34.7554C4.04053 35.1235 4.14111 35.4844 4.33154 35.7993C4.52148 36.1143 4.79443 36.3711 5.11963 36.5425C5.44531 36.7139 5.81152 36.793 6.1792 36.7715C6.54639 36.75 6.90088 36.6284 7.2041 36.4199L18.5576 28.6382L20.8403 31.9678L9.48682 39.7534ZM43.0381 12.772C47.0586 10.0161 52.5249 12.8931 52.5249 17.7695L52.5249 34.7554C52.5249 39.6323 47.0586 42.5132 43.0381 39.7534L31.6846 31.9678L33.9717 28.6382L45.3252 36.4199C45.6284 36.6274 45.9824 36.748 46.3491 36.7686C46.7158 36.7896 47.0811 36.7104 47.4062 36.5391C47.731 36.3682 48.0029 36.1113 48.1934 35.7974C48.3833 35.4829 48.4839 35.1226 48.4849 34.7554L48.4849 17.7695C48.4844 17.4019 48.3838 17.041 48.1938 16.7261C48.0034 16.4111 47.731 16.1538 47.4053 15.9829C47.0796 15.8115 46.7134 15.7324 46.3462 15.7539C45.9785 15.7754 45.6245 15.897 45.3208 16.105L33.9673 23.8867L31.6846 20.5576L43.0381 12.772ZM46.2905 71.5269C46.1831 71.7695 46.0288 71.9883 45.8364 72.1714C45.644 72.354 45.4175 72.4971 45.1699 72.5928C44.9224 72.688 44.6582 72.7334 44.3931 72.7266C44.1279 72.7197 43.8667 72.6611 43.624 72.5532L28.2827 65.7329L28.2827 72.7271C28.2827 73.2627 28.0698 73.7769 27.6909 74.1553C27.312 74.5342 26.7983 74.7471 26.2627 74.7471C25.7266 74.7471 25.2129 74.5342 24.834 74.1553C24.4551 73.7769 24.2422 73.2627 24.2422 72.7271L24.2422 65.7373L8.90088 72.5532C8.65869 72.6611 8.39697 72.7197 8.13184 72.7266C7.8667 72.7334 7.60254 72.6875 7.35498 72.5923C7.10742 72.4971 6.88086 72.354 6.68896 72.1714C6.49658 71.9883 6.3418 71.7695 6.23438 71.5269C6.12646 71.2847 6.06787 71.0234 6.06104 70.7578C6.0542 70.4927 6.1001 70.229 6.19531 69.981C6.29053 69.7334 6.43359 69.5073 6.61621 69.3149C6.79932 69.1226 7.01807 68.9683 7.26074 68.8604L24.2422 61.313L24.2422 50.5049C24.2422 49.9692 24.4551 49.4551 24.834 49.0762C25.2129 48.6978 25.7266 48.4849 26.2627 48.4849C26.7983 48.4849 27.312 48.6978 27.6909 49.0762C28.0698 49.4551 28.2827 49.9692 28.2827 50.5049L28.2827 61.313L45.2646 68.8604C45.5068 68.9683 45.7261 69.1226 45.9087 69.3149C46.0913 69.5068 46.2349 69.7334 46.3301 69.981C46.4253 70.2285 46.4707 70.4927 46.4639 70.7578C46.4575 71.0234 46.3984 71.2847 46.2905 71.5269Z" fill="#FFFFFF" fill-opacity="1.000000" fill-rule="evenodd"/>
	<path id="Vector" d="M9.48682 39.7534C5.4668 42.5088 0 39.6323 0 34.7554L0 17.7695C0 12.8931 5.4668 10.0122 9.48682 12.772L20.0156 19.9922L20.8384 20.5562L20.8403 20.5576L20.8394 20.5586L20.2739 21.3818L18.5532 23.8867L18.5518 23.8857L7.2002 16.105C6.89648 15.8979 6.54248 15.7773 6.17578 15.7563C5.80908 15.7354 5.44385 15.8149 5.11914 15.9858C4.79395 16.1572 4.52197 16.4136 4.33203 16.728C4.1416 17.0425 4.04102 17.4023 4.04053 17.7695L4.04053 34.7554C4.04053 35.1235 4.14111 35.4844 4.33154 35.7993C4.52148 36.1143 4.79443 36.3711 5.11963 36.5425C5.44531 36.7139 5.81152 36.793 6.1792 36.7715C6.54639 36.75 6.90088 36.6284 7.2041 36.4199L18.5576 28.6382L20.8403 31.9678L20.8335 31.9722L9.48682 39.7534ZM19.4502 31.7085L8.92139 38.9287Q7.66309 39.791 6.35889 39.8672Q5.05322 39.9434 3.70166 39.2319Q2.35107 38.5205 1.67529 37.4014Q1 36.2822 1 34.7554L1 17.7695Q1 16.2422 1.67578 15.123Q2.35107 14.0034 3.70215 13.292Q5.05322 12.5796 6.3584 12.6562Q7.6626 12.7324 8.9209 13.5962L19.4492 20.8164L18.2949 22.4971L7.76514 15.2803Q7.41357 15.04 7.02441 14.9092Q6.64648 14.7817 6.23291 14.7578Q5.81396 14.7339 5.41895 14.8198Q5.02393 14.9058 4.65283 15.1011Q4.28174 15.2969 3.9873 15.5742Q3.69336 15.8516 3.47607 16.2104Q3.25879 16.5698 3.1499 16.959Q3.04102 17.3481 3.04053 17.7681L3.04053 34.7554Q3.04053 35.1777 3.1499 35.5688Q3.25879 35.9575 3.47559 36.3164Q3.69287 36.6763 3.9873 36.9541Q4.28223 37.2314 4.6543 37.4272Q5.02637 37.623 5.42188 37.7085Q5.81787 37.7944 6.23779 37.7695Q6.65723 37.7451 7.04004 37.6138Q7.42334 37.4824 7.77002 37.2446L18.2983 30.0283L19.4502 31.7085ZM43.0381 12.772C47.0586 10.0161 52.5249 12.8931 52.5249 17.7695L52.5249 34.7554C52.5249 39.6323 47.0586 42.5132 43.0381 39.7534L32.5093 32.5332L31.6846 31.9678L32.251 31.1436L33.9717 28.6382L45.3252 36.4199C45.6284 36.6274 45.9824 36.748 46.3491 36.7686C46.7158 36.7896 47.0811 36.7104 47.4062 36.5391C47.731 36.3682 48.0029 36.1113 48.1934 35.7974C48.3833 35.4829 48.4839 35.1226 48.4849 34.7554L48.4849 17.7695C48.4844 17.4019 48.3838 17.041 48.1938 16.7261C48.0034 16.4111 47.731 16.1538 47.4053 15.9829C47.0796 15.8115 46.7134 15.7324 46.3462 15.7539C45.9785 15.7754 45.6245 15.897 45.3208 16.105L33.9673 23.8867L33.9561 23.8701L32.25 21.3823L31.6846 20.5576L32.5093 19.9922L43.0381 12.772ZM33.0747 20.8169L43.6035 13.5967Q44.8618 12.7339 46.166 12.6577Q47.4717 12.5815 48.8232 13.2935Q50.1743 14.0049 50.8496 15.124Q51.5249 16.2432 51.5249 17.7695L51.5249 34.7554Q51.5249 36.2827 50.8496 37.4023Q50.1738 38.5215 48.8232 39.2334Q47.4717 39.9453 46.1665 39.8691Q44.8623 39.7925 43.604 38.9292L33.0757 31.709L34.23 30.0278L44.7598 37.2451Q45.1118 37.4854 45.5005 37.6162Q45.8789 37.7437 46.292 37.7671Q46.7109 37.791 47.106 37.7051Q47.501 37.6196 47.8721 37.4238Q48.2432 37.2285 48.5376 36.9512Q48.8315 36.6738 49.0488 36.3145Q49.2661 35.9556 49.375 35.5659Q49.4839 35.1768 49.4844 34.7573L49.4844 17.7695Q49.4844 17.3477 49.375 16.9561Q49.2661 16.5674 49.0493 16.209Q48.832 15.8491 48.5376 15.5713Q48.2427 15.2935 47.8706 15.0977Q47.4985 14.9019 47.103 14.8164Q46.707 14.731 46.2876 14.7554Q45.8677 14.7803 45.4849 14.9116Q45.1016 15.043 44.7549 15.2808L34.2271 22.4966L33.0747 20.8169ZM29.2827 66.1777L43.624 72.5532C43.8667 72.6611 44.1279 72.7197 44.3931 72.7266C44.6582 72.7334 44.9224 72.688 45.1699 72.5928C45.4175 72.4971 45.644 72.354 45.8364 72.1714C46.0288 71.9883 46.1831 71.7695 46.2905 71.5269C46.3984 71.2847 46.4575 71.0234 46.4639 70.7578C46.4707 70.4927 46.4253 70.2285 46.3301 69.981C46.2349 69.7334 46.0913 69.5068 45.9087 69.3149C45.7261 69.1226 45.5068 68.9683 45.2646 68.8604L28.2827 61.313L28.2827 50.5049C28.2827 49.9692 28.0698 49.4551 27.6909 49.0762C27.312 48.6978 26.7983 48.4849 26.2627 48.4849C25.7266 48.4849 25.2129 48.6978 24.834 49.0762C24.4551 49.4551 24.2422 49.9692 24.2422 50.5049L24.2422 61.313L7.26074 68.8604C7.01807 68.9683 6.79932 69.1226 6.61621 69.3149C6.43359 69.5073 6.29053 69.7334 6.19531 69.981C6.1001 70.229 6.0542 70.4927 6.06104 70.7578C6.06787 71.0234 6.12646 71.2847 6.23438 71.5269C6.3418 71.7695 6.49658 71.9883 6.68896 72.1714C6.88086 72.354 7.10742 72.4971 7.35498 72.5923C7.60254 72.6875 7.8667 72.7334 8.13184 72.7266C8.39697 72.7197 8.65869 72.6611 8.90088 72.5532L23.2422 66.1816L24.2422 65.7373L24.2422 72.7271C24.2422 73.2627 24.4551 73.7769 24.834 74.1553C25.2129 74.5342 25.7266 74.7471 26.2627 74.7471C26.7983 74.7471 27.312 74.5342 27.6909 74.1553C28.0698 73.7769 28.2827 73.2627 28.2827 72.7271L28.2827 65.7329L29.2827 66.1777ZM45.2764 71.2979Q45.2197 71.3779 45.1475 71.4463Q45.0737 71.5166 44.9893 71.5698Q44.9053 71.623 44.8105 71.6592Q44.7158 71.6958 44.6172 71.7129Q44.5195 71.7295 44.4185 71.7271Q44.3164 71.7246 44.2188 71.7021Q44.1226 71.6807 44.0303 71.6396L27.2827 64.1943L27.2827 72.7271Q27.2827 72.9385 27.208 73.1187Q27.1333 73.2988 26.9839 73.4482Q26.8345 73.5977 26.6543 73.6724Q26.4736 73.7471 26.2627 73.7471Q26.0513 73.7471 25.8706 73.6724Q25.6904 73.5977 25.541 73.4482Q25.3916 73.2988 25.3169 73.1187Q25.2422 72.9385 25.2422 72.7271L25.2422 64.1987L8.49512 71.6396Q8.40283 71.6802 8.30615 71.7021Q8.2085 71.7241 8.10645 71.7271Q8.00488 71.7295 7.90723 71.7124Q7.80908 71.6958 7.71436 71.6592Q7.61914 71.6226 7.53516 71.5693Q7.45117 71.5161 7.37793 71.4463Q7.3042 71.3765 7.24707 71.2954Q7.18945 71.2139 7.14844 71.1211Q7.10693 71.0283 7.08496 70.9312Q7.06348 70.834 7.06055 70.7324Q7.05811 70.6313 7.0752 70.5332Q7.0918 70.4351 7.12842 70.3403Q7.16504 70.2456 7.21777 70.1616Q7.271 70.0776 7.34131 70.0039Q7.41113 69.9302 7.49268 69.8726Q7.57373 69.8154 7.6665 69.7744L25.2422 61.9629L25.2422 50.5049Q25.2422 50.2935 25.3169 50.1133Q25.3916 49.9331 25.541 49.7837Q25.6904 49.6343 25.8706 49.5596Q26.0513 49.4849 26.2627 49.4849Q26.4736 49.4849 26.6543 49.5596Q26.8345 49.6343 26.9839 49.7837Q27.1333 49.9331 27.208 50.1133Q27.2827 50.2935 27.2827 50.5049L27.2827 61.9629L44.8584 69.7744Q44.9531 69.8164 45.0361 69.8755Q45.1157 69.9316 45.1841 70.0039Q45.2539 70.0771 45.3066 70.1611Q45.3604 70.2456 45.3965 70.3403Q45.4331 70.4351 45.4502 70.5332Q45.4668 70.6313 45.4644 70.7324Q45.4619 70.8345 45.4399 70.9316Q45.418 71.0283 45.377 71.1211Q45.335 71.2153 45.2764 71.2979Z" fill="#7C5A9E" fill-opacity="1.000000" fill-rule="evenodd"/>
	<path id="Vector" d="M26.2627 32.3228C27.0586 32.3228 27.8467 32.166 28.582 31.8613C29.3174 31.5566 29.9854 31.1104 30.5479 30.5474C31.1108 29.9849 31.5571 29.3169 31.8618 28.5815C32.1665 27.8462 32.3232 27.0581 32.3232 26.2622C32.3232 25.4663 32.1665 24.6782 31.8618 23.9429C31.5571 23.2075 31.1108 22.5396 30.5479 21.9766C29.9854 21.4141 29.3174 20.9673 28.582 20.6631C27.8467 20.3584 27.0586 20.2017 26.2627 20.2017C24.6553 20.2017 23.1138 20.8398 21.9771 21.9766C20.8403 23.1133 20.2021 24.6548 20.2021 26.2622C20.2021 27.8696 20.8403 29.4111 21.9771 30.5474C23.1138 31.6841 24.6553 32.3228 26.2627 32.3228ZM26.2627 36.3633C28.9414 36.3633 31.5107 35.2988 33.4053 33.4048C35.2993 31.5103 36.3638 28.9409 36.3638 26.2622C36.3638 23.583 35.2993 21.0142 33.4053 19.1196C31.5107 17.2251 28.9414 16.1611 26.2627 16.1611C23.5835 16.1611 21.0146 17.2251 19.1201 19.1196C17.2256 21.0142 16.1616 23.583 16.1616 26.2622C16.1616 28.9409 17.2256 31.5103 19.1201 33.4048C21.0146 35.2988 23.5835 36.3633 26.2627 36.3633Z" fill="#FFFFFF" fill-opacity="1.000000" fill-rule="evenodd"/>
	<path id="Vector" d="M26.2627 36.3633C28.9414 36.3633 31.5107 35.2988 33.4053 33.4048C35.2993 31.5103 36.3638 28.9409 36.3638 26.2622C36.3638 23.583 35.2993 21.0142 33.4053 19.1196C31.5107 17.2251 28.9414 16.1611 26.2627 16.1611C23.5835 16.1611 21.0146 17.2251 19.1201 19.1196C17.2256 21.0142 16.1616 23.583 16.1616 26.2622C16.1616 28.9409 17.2256 31.5103 19.1201 33.4048C21.0146 35.2988 23.5835 36.3633 26.2627 36.3633ZM34.6973 29.7559Q34.0308 31.3647 32.6978 32.6973Q31.3652 34.0303 29.7563 34.6968Q28.1475 35.3633 26.2627 35.3633Q24.3779 35.3633 22.769 34.6968Q21.1602 34.0303 19.8271 32.6973Q18.4946 31.3647 17.8281 29.7559Q17.1616 28.147 17.1616 26.2622Q17.1616 24.3774 17.8281 22.7686Q18.4946 21.1597 19.8271 19.8267Q21.1602 18.4941 22.769 17.8276Q24.3779 17.1611 26.2627 17.1611Q28.1475 17.1611 29.7563 17.8276Q31.3652 18.4941 32.6978 19.8267Q34.0308 21.1597 34.6973 22.7686Q35.3638 24.3774 35.3638 26.2622Q35.3638 28.147 34.6973 29.7559ZM27.6401 33.1885Q28.3159 33.0542 28.9644 32.7852Q29.6133 32.5166 30.186 32.1338Q30.7588 31.7515 31.2554 31.2549Q31.752 30.7583 32.1343 30.1855Q32.5171 29.6128 32.7856 28.9639Q33.0547 28.3154 33.189 27.6396Q33.3232 26.9644 33.3232 26.2622Q33.3232 25.5601 33.189 24.8843Q33.0547 24.209 32.7856 23.5601Q32.5171 22.9111 32.1343 22.3384Q31.7515 21.7661 31.2554 21.2695Q30.7588 20.7729 30.186 20.3901Q29.6133 20.0078 28.9644 19.7388Q28.3159 19.4702 27.6401 19.3359Q26.9648 19.2017 26.2627 19.2017Q24.8003 19.2017 23.5522 19.7188Q22.3042 20.2354 21.27 21.2695Q20.2358 22.3037 19.7192 23.5518Q19.2021 24.7998 19.2021 26.2622Q19.2021 27.7246 19.7192 28.9727Q20.2358 30.2207 21.27 31.2549Q22.3042 32.2886 23.5522 32.8057Q24.8003 33.3228 26.2627 33.3228Q26.9648 33.3228 27.6401 33.1885ZM26.2627 32.3228C27.0586 32.3228 27.8467 32.166 28.582 31.8613C29.3174 31.5566 29.9854 31.1104 30.5479 30.5474C31.1108 29.9849 31.5571 29.3169 31.8618 28.5815C32.1665 27.8462 32.3232 27.0581 32.3232 26.2622C32.3232 25.4663 32.1665 24.6782 31.8618 23.9429C31.5571 23.2075 31.1108 22.5396 30.5479 21.9766C29.9854 21.4141 29.3174 20.9673 28.582 20.6631C27.8467 20.3584 27.0586 20.2017 26.2627 20.2017C24.6553 20.2017 23.1138 20.8398 21.9771 21.9766C20.8403 23.1133 20.2021 24.6548 20.2021 26.2622C20.2021 27.8696 20.8403 29.4111 21.9771 30.5474C23.1138 31.6841 24.6553 32.3228 26.2627 32.3228Z" fill="#7C5A9E" fill-opacity="1.000000" fill-rule="evenodd"/>
</svg>
