<svg width="79.000000" height="73.000000" viewBox="0 0 79 73" fill="none" xmlns="http://www.w3.org/2000/svg" xmlns:xlink="http://www.w3.org/1999/xlink">
	<desc>
			Created with Pixso.
	</desc>
	<defs/>
	<path id="Path 0" d="M11.8501 0.0148926C12.4673 0 12.8682 0.104736 13.6089 0.493652C14.1338 0.748047 14.7046 1.18164 14.9053 1.42114C15.0903 1.6604 15.3682 2.10913 15.5225 2.39355C15.7075 2.73755 15.7998 3.24609 15.7998 3.8894C15.7998 4.69702 15.7075 5.01123 15.3369 5.68433C15.0439 6.19312 14.6118 6.68677 14.1797 6.97095C13.8096 7.2251 13.1309 7.50952 12.6987 7.59912C12.1123 7.73389 11.665 7.73389 11.1558 7.62915C10.7393 7.53931 10.0908 7.27002 9.68994 7.03076C9.25781 6.77637 8.79492 6.32764 8.60986 5.98364C8.40918 5.65454 8.14697 5.38525 8.02344 5.38525C7.8999 5.37036 7.45264 5.59473 7.02051 5.86401C6.48047 6.20801 6.11035 6.61182 5.32324 8.00317L5.24609 25.5801L9.25781 25.5801L9.25781 27.375C9.25781 28.5117 9.35059 29.5742 9.52002 30.2622C9.65918 30.8457 9.93652 31.7129 10.1528 32.1621C10.3535 32.6108 10.7852 33.3584 11.1094 33.8076C11.418 34.2563 12.1279 35.019 12.668 35.4976C13.208 35.9766 14.0718 36.5898 14.5811 36.8589C15.0903 37.1431 15.9233 37.4873 16.4326 37.6519C16.9419 37.8164 17.8521 38.041 18.4385 38.1455C19.1328 38.2651 20.0742 38.3101 21.0615 38.25C21.9102 38.2056 23.021 38.0557 23.5303 37.9209C24.0396 37.7866 24.9497 37.4575 25.5361 37.188C26.1226 36.9189 27.002 36.4102 27.4648 36.0811C27.9277 35.7373 28.6836 35.0342 29.1313 34.5254C29.5786 34.002 30.1807 33.1045 30.458 32.5356C30.7515 31.9673 31.1064 31.085 31.2451 30.5913C31.3838 30.0977 31.5381 28.7661 31.708 25.5801L34.2539 25.5801L34.2383 18.1304C34.2383 14.0466 34.1924 10.0076 34.1304 9.18481C34.0381 7.82349 33.9761 7.59912 33.5596 7.01587C33.2974 6.67163 32.8496 6.19312 32.5566 5.96875C32.2637 5.74414 31.8315 5.51978 31.6001 5.4751C31.2759 5.40015 31.1523 5.44507 31.0908 5.63965C31.0601 5.78906 30.7666 6.17798 30.4429 6.49219C30.1187 6.82129 29.5786 7.21021 29.2393 7.35986C28.8691 7.50952 28.2363 7.62915 27.6963 7.62915C27.187 7.62915 26.5083 7.53931 26.1997 7.40479C25.8755 7.28516 25.3662 6.95605 25.0576 6.68677C24.749 6.43237 24.3481 5.93872 24.1631 5.60962C23.9316 5.16089 23.8389 4.74194 23.8389 3.8894C23.8389 3.03662 23.916 2.63281 24.1782 2.16895C24.3633 1.83984 24.7031 1.39111 24.9497 1.16675C25.1812 0.942383 25.7832 0.598389 26.2769 0.388916C26.7549 0.164551 27.3569 0 27.6191 0C27.8813 0 28.4521 0.134521 28.8999 0.299072C29.332 0.463623 29.9028 0.762939 30.165 0.957275C30.4272 1.13696 30.7979 1.61548 31.0137 2.00439C31.353 2.60278 31.5073 2.73755 32.1709 2.93188C32.603 3.05176 33.2202 3.30591 33.5596 3.50049C33.8989 3.69482 34.5469 4.2334 34.9946 4.69702C35.4268 5.16089 35.9668 5.8938 36.1826 6.31274C36.3833 6.74658 36.6299 7.56934 36.707 8.15259C36.7998 8.76587 36.877 12.6553 36.877 25.5801L39.5 25.5801L39.5 27.4795C39.5 28.542 39.3921 30.0229 39.2529 30.8154C39.1143 31.5933 38.8364 32.7451 38.6206 33.3584C38.4199 33.9722 37.8955 35.1235 37.4785 35.9019C37.062 36.6797 36.4297 37.6968 36.0747 38.1606C35.7041 38.624 35.1641 39.2676 34.8555 39.5815C34.5625 39.9106 33.8682 40.5688 33.3125 41.0474C32.7725 41.541 31.7388 42.3042 31.0137 42.7681C30.2886 43.2168 29.2085 43.8149 28.6221 44.0693C28.0356 44.3384 26.9712 44.7275 24.9961 45.3257L24.9497 47.8242C24.9033 49.9482 24.8418 50.4565 24.564 51.1597C24.3633 51.6836 23.9932 52.207 23.5767 52.5811C23.2061 52.9102 22.7124 53.269 22.4502 53.3589C22.188 53.4487 21.7866 53.5684 21.0615 53.7329L21.1543 56.2158C21.2466 58.3101 21.3237 58.9385 21.6631 60.0605C21.8945 60.7935 22.373 61.9751 22.728 62.6782C23.0981 63.3813 23.7925 64.4883 24.3018 65.1313C24.811 65.7896 25.6748 66.7021 26.2305 67.166C26.7861 67.6299 27.6807 68.2578 28.2363 68.5723C28.792 68.8862 29.5942 69.2754 30.0107 69.4399C30.4429 69.6045 31.0908 69.8286 31.4766 69.9482C31.8623 70.0532 32.7573 70.2178 33.4824 70.2925C34.3467 70.397 35.2568 70.397 36.1826 70.2925C36.9385 70.2178 37.957 70.0381 38.4199 69.9033C38.8828 69.7837 39.6851 69.4849 40.1943 69.2754C40.7036 69.0508 41.5674 68.5723 42.123 68.2129C42.6787 67.854 43.4961 67.2109 43.959 66.8071C44.4067 66.3882 45.1475 65.5806 45.5947 64.9971C46.042 64.4136 46.6748 63.4111 47.0142 62.7529C47.3535 62.0947 47.7549 61.2124 47.8936 60.8086C48.0327 60.3896 48.2485 59.5967 48.4028 59.0132C48.6343 58.0859 48.665 56.291 48.835 28.6465L49.2051 27.5996C49.4058 27.0308 49.8223 26.0435 50.1621 25.4302C50.4858 24.8169 51.1338 23.8599 51.6123 23.291C52.0752 22.7378 52.8931 21.9746 53.4331 21.6008C53.9575 21.2119 54.8682 20.6733 55.4697 20.4041C56.0713 20.1348 57.0283 19.8057 57.6299 19.6711C58.4478 19.4766 59.1265 19.4319 60.4072 19.4917C61.5645 19.5515 62.4287 19.6711 63.1074 19.8955C63.6631 20.075 64.5269 20.449 65.0361 20.7183C65.5454 21.0024 66.3477 21.541 66.8413 21.9448C67.3198 22.334 67.9062 22.9023 68.1685 23.1865C68.415 23.4707 68.8628 24.084 69.1558 24.5327C69.4644 24.9814 69.8809 25.7744 70.1123 26.2832C70.3286 26.8066 70.6216 27.644 70.7451 28.1528C70.8838 28.6763 71.0381 30.0527 71.208 33.3438L71.9795 33.5229C72.4116 33.6128 73.2754 33.9419 73.9082 34.2412C74.7568 34.6299 75.374 35.064 76.2227 35.9019C77.0713 36.7095 77.5498 37.3379 77.9507 38.1455C78.2749 38.7588 78.6299 39.7612 78.7686 40.3442C78.8921 40.9429 79 41.7954 79 42.2144C79 42.6479 78.8921 43.4707 78.7686 44.0542C78.645 44.6377 78.3057 45.5649 78.0127 46.1484C77.7192 46.7319 77.0713 47.6294 76.5776 48.1528C76.084 48.6768 75.2661 49.3647 74.7568 49.6787C74.2476 50.0078 73.3066 50.4268 72.6738 50.6211C72.041 50.8159 71.0693 51.0254 70.5137 51.0703C69.8657 51.1299 69.0479 51.085 68.1992 50.9355C67.4741 50.8159 66.4712 50.5166 65.9619 50.2773C65.4526 50.0527 64.6348 49.5591 64.126 49.2002C63.6318 48.8413 62.9067 48.1382 62.521 47.6445C62.1509 47.1509 61.6724 46.4028 61.4717 45.999C61.2715 45.5801 61.0088 44.8472 60.8701 44.3535C60.7466 43.8599 60.6387 42.8428 60.6387 42.0649C60.6387 41.0327 60.7314 40.4043 61.0088 39.5215C61.2402 38.8037 61.7031 37.9209 62.2124 37.188C62.6602 36.5151 63.4004 35.707 63.8789 35.333C64.3418 34.959 65.2061 34.4355 65.8076 34.1665C66.4092 33.8823 67.2578 33.5679 68.5542 33.2837L68.4614 31.3394C68.3999 30.2622 68.2456 28.9907 68.1064 28.4971C67.9834 28.0034 67.5977 27.0908 67.2734 26.4775C66.8413 25.6694 66.3477 25.0562 65.5454 24.3086C64.9282 23.7251 64.0332 23.0669 63.5703 22.8423C63.1074 22.6182 62.3359 22.334 61.873 22.2144C61.4102 22.0942 60.5459 21.9897 59.9443 21.9897C59.3428 21.9897 58.4478 22.0942 57.9385 22.229C57.4292 22.3486 56.5962 22.6777 56.0869 22.9321C55.5776 23.2017 54.7139 23.8447 54.1582 24.3833C53.5718 24.9517 52.9238 25.8042 52.5845 26.4028C52.2759 26.9858 51.8745 27.9883 51.6895 28.6465C51.3809 29.8135 51.3809 30.2021 51.3809 42.9326C51.3809 50.9653 51.3193 56.6348 51.2266 57.5923C51.1338 58.46 50.8872 59.8062 50.6709 60.584C50.4551 61.3618 49.9458 62.708 49.5137 63.5757C49.082 64.4434 48.4185 65.5806 48.0171 66.1187C47.6162 66.6572 46.8755 67.5249 46.3662 68.0483C45.8569 68.5723 44.8848 69.4097 44.2061 69.9033C43.5273 70.397 42.3389 71.0854 41.583 71.4443C40.8271 71.7881 39.6699 72.207 39.0371 72.3716C38.4043 72.5215 37.5557 72.731 37.1548 72.8354C36.7383 72.9253 35.7661 73 34.9946 73C34.1611 73 32.9731 72.8804 32.1709 72.7158C31.415 72.5513 30.4429 72.312 30.0107 72.1772C29.5942 72.0278 28.8228 71.7437 28.3135 71.519C27.8042 71.2949 26.832 70.7563 26.1533 70.3076C25.4746 69.8735 24.3633 68.9609 23.6689 68.3027C22.9902 67.6299 22.0181 66.478 21.5244 65.7451C21.0151 65.0117 20.3516 63.8301 20.0278 63.127C19.7036 62.4238 19.2715 61.1826 19.0557 60.3599C18.7778 59.3125 18.5928 58.0859 18.4692 56.2759C18.2842 53.7026 18.2842 53.688 17.8984 53.6133C17.6826 53.5684 17.312 53.4487 17.0498 53.3589C16.7876 53.269 16.2939 52.9102 15.9233 52.5811C15.5068 52.207 15.1367 51.6836 14.936 51.1597C14.6582 50.4565 14.5967 49.9482 14.5039 45.3257L13.2388 44.937C12.5288 44.7275 11.4644 44.3384 10.8779 44.0693C10.2915 43.8149 9.21143 43.2168 8.48633 42.7681C7.76123 42.3042 6.72754 41.541 6.1875 41.0474C5.63184 40.5688 4.9375 39.9106 4.64453 39.5815C4.33594 39.2676 3.7959 38.624 3.42529 38.1606C3.07031 37.6968 2.43799 36.6797 2.02148 35.9019C1.60449 35.1235 1.08008 33.9722 0.879395 33.3584C0.663574 32.7451 0.385742 31.5933 0.24707 30.8154C0.10791 30.0229 0 28.542 0 25.5801L2.62305 25.5801L2.62305 17.0532C2.62305 11.2642 2.68457 8.27222 2.79297 7.73389C2.90088 7.31494 3.14746 6.58203 3.37891 6.1333C3.59521 5.68433 4.11963 4.96631 4.55176 4.54761C4.96826 4.12866 5.67822 3.62012 6.09473 3.41064C6.52686 3.20117 7.14404 2.94702 7.4834 2.85718C7.99268 2.72266 8.17773 2.573 8.48633 2.00439C8.70215 1.63062 8.97998 1.22656 9.10352 1.10693C9.22705 1.0022 9.7207 0.703125 10.1836 0.463623C10.8008 0.149658 11.248 0.0148926 11.8501 0.0148926ZM10.6929 3.41064C10.5386 3.76978 10.5386 3.99414 10.6621 4.29321C10.7544 4.53247 10.9395 4.78687 11.0786 4.8916C11.2329 4.99634 11.5723 5.08618 11.8501 5.08618C12.1895 5.08618 12.4824 4.96631 12.7295 4.71216C12.9766 4.47266 13.1152 4.15869 13.1152 3.84448C13.1152 3.53027 13.0073 3.26099 12.7759 3.05176C12.5752 2.87207 12.2822 2.69263 12.1123 2.64771C11.9424 2.60278 11.603 2.64771 11.3408 2.75244C11.063 2.85718 10.8008 3.12646 10.6929 3.41064ZM26.7241 3.05176C26.4927 3.26099 26.3848 3.53027 26.3848 3.84448C26.3848 4.17358 26.5234 4.47266 26.7705 4.71216C27.0176 4.95142 27.3262 5.08618 27.6499 5.08618C27.9893 5.08618 28.2671 4.98145 28.4834 4.75708C28.6685 4.5625 28.8535 4.29321 28.915 4.14355C28.9614 4.00903 28.915 3.67993 28.8071 3.41064C28.6836 3.11157 28.437 2.87207 28.1128 2.73755C27.8506 2.63281 27.6035 2.54297 27.5728 2.55811C27.5576 2.55811 27.4341 2.60278 27.3105 2.64771C27.187 2.69263 26.9248 2.87207 26.7241 3.05176ZM2.68457 29.2749C2.74658 29.918 2.9624 31.04 3.16309 31.7881C3.34814 32.521 3.82666 33.7324 4.2124 34.4805C4.58252 35.2134 5.18457 36.2007 5.53906 36.6494C5.89404 37.0981 6.68115 37.9658 7.29834 38.5645C7.8999 39.1777 8.96484 40.0303 9.64355 40.4644C10.3223 40.8979 11.248 41.4365 11.6958 41.646C12.1279 41.8555 13.0996 42.2295 13.856 42.4834C14.5967 42.7231 15.8311 43.022 16.5869 43.1567C17.3584 43.2764 18.8242 43.3813 19.8735 43.3813C21.123 43.3813 22.2651 43.2764 23.2681 43.082C24.0859 42.9326 25.2891 42.6182 25.9219 42.394C26.5547 42.1846 27.4341 41.8252 27.8506 41.6309C28.2827 41.4214 29.1777 40.8979 29.8564 40.4644C30.5352 40.0303 31.6001 39.1777 32.2017 38.5645C32.8188 37.9658 33.606 37.0981 33.9609 36.6494C34.3154 36.2007 34.9175 35.2134 35.2876 34.4805C35.6733 33.7324 36.1519 32.521 36.3369 31.7881C36.5376 31.04 36.7534 29.918 36.8306 29.2749L36.9541 28.123L34.2539 28.123C34.0996 29.7983 33.8989 30.8604 33.6831 31.5635C33.4824 32.2666 33.0352 33.3438 32.7109 33.957C32.3716 34.5703 31.7388 35.5127 31.2759 36.0513C30.8286 36.5898 30.1187 37.3076 29.6865 37.6367C29.27 37.981 28.4834 38.5347 27.9277 38.8486C27.3721 39.1777 26.4463 39.6265 25.8447 39.8657C25.2583 40.0903 24.1011 40.4043 23.2988 40.5688C22.1108 40.8081 21.4473 40.853 19.8271 40.7935C18.4541 40.7485 17.4355 40.6138 16.5869 40.3892C15.9082 40.21 14.874 39.8506 14.2725 39.5815C13.686 39.3125 12.853 38.8784 12.4209 38.5942C12.0044 38.3101 11.1709 37.6519 10.585 37.1133C9.99854 36.5747 9.19629 35.6475 8.81055 35.0791C8.40918 34.4956 7.86914 33.5229 7.60693 32.9097C7.34473 32.2964 7.02051 31.2642 6.88184 30.6211C6.74268 29.9927 6.63477 29.1699 6.63477 28.7959L6.63477 28.123L2.57666 28.123L2.68457 29.2749ZM66.8877 36.4702C66.3784 36.7095 65.6689 37.188 65.2983 37.5171C64.9434 37.8613 64.4653 38.4297 64.2339 38.7739C64.0176 39.1177 63.6938 39.7759 63.5396 40.2246C63.3696 40.7334 63.2461 41.4663 63.2461 42.0947C63.2461 42.6782 63.3696 43.5156 63.5088 43.9644C63.6475 44.4282 63.9868 45.1313 64.2646 45.5352C64.5425 45.9541 65.0361 46.5376 65.3604 46.8218C65.6841 47.1211 66.1934 47.4951 66.502 47.6597C66.7949 47.8242 67.4121 48.0781 67.8906 48.228C68.5386 48.4375 69.0635 48.4819 70.1279 48.4375C71.2544 48.3926 71.6865 48.2876 72.5195 47.9136C73.106 47.6597 73.8618 47.1509 74.3247 46.687C74.7725 46.2681 75.2969 45.625 75.4819 45.2808C75.667 44.937 75.9141 44.3687 76.0068 44.0396C76.1147 43.7104 76.2383 43.1416 76.2998 42.7681C76.3462 42.4087 76.3154 41.6606 76.2227 41.1226C76.1455 40.5986 75.8984 39.8208 75.6826 39.4019C75.4819 38.998 75.0498 38.3701 74.7261 37.9961C74.4019 37.6367 73.7539 37.0981 73.291 36.814C72.8125 36.5298 72.1182 36.2158 71.748 36.1108C71.3623 36.0063 70.668 35.8867 70.2051 35.8418C69.7266 35.7969 69.0015 35.8267 68.585 35.9019C68.1528 35.9766 67.397 36.231 66.8877 36.4702ZM17.127 47.5249C17.127 48.4521 17.1885 49.4995 17.2812 49.8433C17.3584 50.1875 17.5742 50.6064 17.7598 50.771C18.0371 51.04 18.2842 51.0703 19.75 51.0703C21.2002 51.0703 21.4473 51.04 21.7402 50.771C21.9102 50.6064 22.126 50.1875 22.2188 49.8433C22.2959 49.4995 22.373 48.4521 22.373 47.5249L22.373 45.8345L17.127 45.8345L17.127 47.5249ZM70.2051 38.3999C70.5752 38.4448 71.1924 38.624 71.5781 38.8037C71.9487 38.9683 72.4888 39.3872 72.7817 39.7163C73.0752 40.0454 73.4146 40.6733 73.5381 41.1372C73.7075 41.6758 73.7539 42.1992 73.6768 42.6333C73.6304 43.0073 73.3989 43.6353 73.1675 44.0396C72.936 44.4434 72.4731 44.9668 72.1338 45.2061C71.7944 45.4453 71.2695 45.7148 70.9766 45.8047C70.668 45.894 69.9736 45.939 69.4336 45.894C68.7085 45.8496 68.2456 45.7148 67.8135 45.4453C67.4741 45.2358 67.042 44.9067 66.8569 44.7124C66.6719 44.5181 66.3784 44.0542 66.209 43.6802C66.0234 43.2915 65.8848 42.6929 65.8848 42.2593C65.8848 41.8403 65.9775 41.2422 66.0698 40.9277C66.1777 40.5986 66.5483 40.0454 66.8877 39.6714C67.2271 39.2974 67.6899 38.9082 67.9214 38.8037C68.1528 38.6841 68.6157 38.5347 68.9243 38.4595C69.2485 38.3848 69.8193 38.355 70.2051 38.3999ZM68.8472 41.3467C68.6157 41.5562 68.4922 41.8252 68.4922 42.1396C68.5078 42.4688 68.6313 42.7681 68.8936 43.0073C69.1509 43.2563 69.4438 43.3813 69.7729 43.3813C70.0508 43.3813 70.3901 43.2915 70.5444 43.1865C70.6836 43.082 70.8687 42.7979 70.9766 42.5586C71.1152 42.1992 71.1001 42.02 70.8994 41.6162C70.7451 41.3018 70.498 41.0923 70.1587 40.9878C69.8809 40.8979 69.665 40.8379 69.665 40.853C69.665 40.853 69.5571 40.8979 69.4336 40.9429C69.2949 40.9878 69.0322 41.167 68.8472 41.3467Z" fill="#FFFFFF" fill-opacity="1.000000" fill-rule="evenodd"/>
</svg>
