<svg width="69.000000" height="67.000000" viewBox="0 0 69 67" fill="none" xmlns="http://www.w3.org/2000/svg" xmlns:xlink="http://www.w3.org/1999/xlink">
	<desc>
			Created with Pixso.
	</desc>
	<defs/>
	<path id="Vector" d="M34.5 4.1875C32.7842 4.1875 31.1392 4.84912 29.9258 6.02734C28.7129 7.20508 28.0312 8.80273 28.0312 10.4688C28.0312 12.1348 28.7129 13.7324 29.9258 14.9102C31.1392 16.0884 32.7842 16.75 34.5 16.75C36.2158 16.75 37.8608 16.0884 39.0742 14.9102C40.2871 13.7324 40.9688 12.1348 40.9688 10.4688C40.9688 8.80273 40.2871 7.20508 39.0742 6.02734C37.8608 4.84912 36.2158 4.1875 34.5 4.1875ZM23.7188 10.4688C23.7188 7.69238 24.8545 5.0293 26.8765 3.06641C28.8984 1.10303 31.6406 0 34.5 0C37.3594 0 40.1016 1.10303 42.1235 3.06641C44.1455 5.0293 45.2812 7.69238 45.2812 10.4688C45.2812 13.2451 44.1455 15.9082 42.1235 17.8711C40.1016 19.8345 37.3594 20.9375 34.5 20.9375C31.6406 20.9375 28.8984 19.8345 26.8765 17.8711C24.8545 15.9082 23.7188 13.2451 23.7188 10.4688ZM58.2188 8.375C57.0752 8.375 55.978 8.81641 55.1694 9.60156C54.3608 10.3867 53.9062 11.4521 53.9062 12.5625C53.9062 13.6729 54.3608 14.7383 55.1694 15.5234C55.978 16.3086 57.0752 16.75 58.2188 16.75C59.3623 16.75 60.4595 16.3086 61.2681 15.5234C62.0767 14.7383 62.5312 13.6729 62.5312 12.5625C62.5312 11.4521 62.0767 10.3867 61.2681 9.60156C60.4595 8.81641 59.3623 8.375 58.2188 8.375ZM49.5938 12.5625C49.5938 10.3413 50.5024 8.21094 52.1201 6.64062C53.7373 5.06982 55.9312 4.1875 58.2188 4.1875C60.5063 4.1875 62.7002 5.06982 64.3174 6.64062C65.9351 8.21094 66.8438 10.3413 66.8438 12.5625C66.8438 14.7837 65.9351 16.9141 64.3174 18.4844C62.7002 20.0552 60.5063 20.9375 58.2188 20.9375C55.9312 20.9375 53.7373 20.0552 52.1201 18.4844C50.5024 16.9141 49.5938 14.7837 49.5938 12.5625ZM6.46875 12.5625C6.46875 11.4521 6.92334 10.3867 7.73193 9.60156C8.54053 8.81641 9.6377 8.375 10.7812 8.375C11.9248 8.375 13.022 8.81641 13.8306 9.60156C14.6392 10.3867 15.0938 11.4521 15.0938 12.5625C15.0938 13.6729 14.6392 14.7383 13.8306 15.5234C13.022 16.3086 11.9248 16.75 10.7812 16.75C9.6377 16.75 8.54053 16.3086 7.73193 15.5234C6.92334 14.7383 6.46875 13.6729 6.46875 12.5625ZM10.7812 4.1875C8.49365 4.1875 6.2998 5.06982 4.68262 6.64062C3.06494 8.21094 2.15625 10.3413 2.15625 12.5625C2.15625 14.7837 3.06494 16.9141 4.68262 18.4844C6.2998 20.0552 8.49365 20.9375 10.7812 20.9375C13.0688 20.9375 15.2627 20.0552 16.8799 18.4844C18.4976 16.9141 19.4062 14.7837 19.4062 12.5625C19.4062 10.3413 18.4976 8.21094 16.8799 6.64062C15.2627 5.06982 13.0688 4.1875 10.7812 4.1875ZM13.3687 54.4292C12.2012 54.4858 11.0337 54.3115 9.9375 53.9165C8.84131 53.522 7.83936 52.9146 6.99219 52.1323C6.14551 51.3496 5.47119 50.4082 5.01025 49.3647C4.5498 48.3213 4.31201 47.1978 4.3125 46.0625L4.3125 30.3594C4.3125 30.0815 4.42627 29.8154 4.62842 29.6191C4.83057 29.4229 5.10449 29.3125 5.39062 29.3125L12.998 29.3125C13.1704 27.7759 13.731 26.3477 14.5718 25.125L5.39062 25.125C2.41504 25.125 0 27.4702 0 30.3594L0 46.0625C0 47.8555 0.394531 49.6274 1.1582 51.2593C1.92188 52.8916 3.03662 54.3462 4.42725 55.5259C5.81738 56.7051 7.45215 57.5815 9.22021 58.0967C10.9888 58.6118 12.8501 58.7534 14.6797 58.5117C14.0991 57.1982 13.6602 55.8301 13.3687 54.4292ZM54.3203 58.5117C56.1499 58.7534 58.0112 58.6118 59.7798 58.0967C61.5479 57.5815 63.1826 56.7051 64.5728 55.5259C65.9634 54.3462 67.0781 52.8916 67.8418 51.2593C68.6055 49.6274 69 47.8555 69 46.0625L69 30.3594C69 27.4702 66.585 25.125 63.6094 25.125L54.4282 25.125C55.2734 26.3477 55.8296 27.7759 56.002 29.3125L63.6094 29.3125C63.8955 29.3125 64.1694 29.4229 64.3716 29.6191C64.5737 29.8154 64.6875 30.0815 64.6875 30.3594L64.6875 46.0625C64.688 47.1978 64.4502 48.3213 63.9897 49.3647C63.5288 50.4082 62.8545 51.3496 62.0078 52.1323C61.1606 52.9146 60.1587 53.522 59.0625 53.9165C57.9663 54.3115 56.7988 54.4858 55.6313 54.4292C55.3398 55.8301 54.9004 57.1982 54.3203 58.5117ZM22.6406 25.125C19.665 25.125 17.25 27.4702 17.25 30.3594L17.25 50.25C17.25 54.6924 19.0674 58.9526 22.3022 62.0942C25.5376 65.2354 29.9248 67 34.5 67C39.0752 67 43.4624 65.2354 46.6978 62.0942C49.9326 58.9526 51.75 54.6924 51.75 50.25L51.75 30.3594C51.75 27.4702 49.335 25.125 46.3594 25.125L22.6406 25.125ZM21.5625 30.3594C21.5625 30.0815 21.6763 29.8154 21.8784 29.6191C22.0806 29.4229 22.3545 29.3125 22.6406 29.3125L46.3594 29.3125C46.6455 29.3125 46.9194 29.4229 47.1216 29.6191C47.3237 29.8154 47.4375 30.0815 47.4375 30.3594L47.4375 50.25C47.4375 53.5815 46.0742 56.7773 43.6484 59.1328C41.2222 61.4888 37.9312 62.8125 34.5 62.8125C31.0688 62.8125 27.7778 61.4888 25.3516 59.1328C22.9258 56.7773 21.5625 53.5815 21.5625 50.25L21.5625 30.3594Z" fill="#FFFFFF" fill-opacity="1.000000" fill-rule="nonzero"/>
	<path id="Vector" d="M23.7188 10.4688C23.7188 7.69238 24.8545 5.0293 26.8765 3.06641C28.8984 1.10303 31.6406 0 34.5 0C37.3594 0 40.1016 1.10303 42.1235 3.06641C44.1455 5.0293 45.2812 7.69238 45.2812 10.4688C45.2812 13.2451 44.1455 15.9082 42.1235 17.8711C40.1016 19.8345 37.3594 20.9375 34.5 20.9375C31.6406 20.9375 28.8984 19.8345 26.8765 17.8711C24.8545 15.9082 23.7188 13.2451 23.7188 10.4688ZM25.3569 7.02344Q26.0684 5.24512 27.5732 3.78369Q28.9258 2.47021 30.5439 1.77686Q32.3555 1 34.5 1Q36.6445 1 38.4565 1.77686Q40.0742 2.47021 41.4268 3.78369Q42.9316 5.24512 43.6431 7.02344Q44.2812 8.61865 44.2812 10.4688Q44.2812 12.3188 43.6431 13.9141Q42.9316 15.6924 41.4268 17.1538Q40.0742 18.4673 38.4565 19.1606Q36.6445 19.9375 34.5 19.9375Q32.3555 19.9375 30.5439 19.1606Q28.9258 18.4673 27.5732 17.1538Q26.0684 15.6924 25.3569 13.9141Q24.7188 12.3188 24.7188 10.4688Q24.7188 8.61865 25.3569 7.02344ZM31.5229 3.76611Q30.2734 4.2959 29.2295 5.30957Q28.0835 6.42236 27.5352 7.77637Q27.0312 9.02051 27.0312 10.4688Q27.0312 11.917 27.5352 13.1611Q28.0835 14.5151 29.2295 15.6279Q30.2734 16.6416 31.5229 17.1714Q32.8887 17.75 34.5 17.75Q36.1113 17.75 37.4771 17.1714Q38.7266 16.6416 39.7705 15.6279Q40.9165 14.5151 41.4648 13.1611Q41.9688 11.917 41.9688 10.4688Q41.9688 9.02051 41.4648 7.77637Q40.9165 6.42236 39.7705 5.30957Q38.7266 4.2959 37.4771 3.76611Q36.1113 3.1875 34.5 3.1875Q32.8887 3.1875 31.5229 3.76611ZM10.7812 4.1875C8.49365 4.1875 6.2998 5.06982 4.68262 6.64062C3.06494 8.21094 2.15625 10.3413 2.15625 12.5625C2.15625 14.7837 3.06494 16.9141 4.68262 18.4844C6.2998 20.0552 8.49365 20.9375 10.7812 20.9375C13.0688 20.9375 15.2627 20.0552 16.8799 18.4844C18.4976 16.9141 19.4062 14.7837 19.4062 12.5625C19.4062 10.3413 18.4976 8.21094 16.8799 6.64062C15.2627 5.06982 13.0688 4.1875 10.7812 4.1875ZM34.5 4.1875C32.7842 4.1875 31.1392 4.84912 29.9258 6.02734C28.7129 7.20508 28.0312 8.80273 28.0312 10.4688C28.0312 12.1348 28.7129 13.7324 29.9258 14.9102C31.1392 16.0884 32.7842 16.75 34.5 16.75C36.2158 16.75 37.8608 16.0884 39.0742 14.9102C40.2871 13.7324 40.9688 12.1348 40.9688 10.4688C40.9688 8.80273 40.2871 7.20508 39.0742 6.02734C37.8608 4.84912 36.2158 4.1875 34.5 4.1875ZM49.5938 12.5625C49.5938 10.3413 50.5024 8.21094 52.1201 6.64062C53.7373 5.06982 55.9312 4.1875 58.2188 4.1875C60.5063 4.1875 62.7002 5.06982 64.3174 6.64062C65.9351 8.21094 66.8438 10.3413 66.8438 12.5625C66.8438 14.7837 65.9351 16.9141 64.3174 18.4844C62.7002 20.0552 60.5063 20.9375 58.2188 20.9375C55.9312 20.9375 53.7373 20.0552 52.1201 18.4844C50.5024 16.9141 49.5938 14.7837 49.5938 12.5625ZM3.65137 9.88428Q4.20557 8.49756 5.37891 7.35791Q6.43213 6.33545 7.69189 5.79492Q9.10596 5.1875 10.7812 5.1875Q12.4565 5.1875 13.8706 5.79492Q15.1304 6.33545 16.1836 7.35791Q17.3569 8.49756 17.9111 9.88428Q18.4062 11.1245 18.4062 12.5625Q18.4062 14.0005 17.9111 15.2407Q17.3569 16.6274 16.1836 17.7671Q15.1304 18.7896 13.8706 19.3301Q12.4565 19.9375 10.7812 19.9375Q9.10596 19.9375 7.69189 19.3301Q6.43213 18.7896 5.37891 17.7671Q4.20557 16.6274 3.65137 15.2407Q3.15625 14.0005 3.15625 12.5625Q3.15625 11.1245 3.65137 9.88428ZM51.0889 9.88477Q51.6431 8.49756 52.8164 7.35791Q53.8696 6.33545 55.1294 5.79492Q56.5435 5.1875 58.2188 5.1875Q59.894 5.1875 61.3086 5.79492Q62.5679 6.33545 63.6211 7.35791Q64.7944 8.49756 65.3486 9.88428Q65.8438 11.1245 65.8438 12.5625Q65.8438 14.0005 65.3486 15.2402Q64.7944 16.6274 63.6211 17.7671Q62.5679 18.7896 61.3081 19.3301Q59.894 19.9375 58.2188 19.9375Q56.5435 19.9375 55.1289 19.3301Q53.8696 18.7896 52.8164 17.7671Q51.6431 16.6274 51.0889 15.2402Q50.5938 14.0005 50.5938 12.5625Q50.5938 11.1245 51.0889 9.88477ZM8.6709 7.78418Q7.77979 8.16113 7.03516 8.88428Q6.22119 9.6748 5.83008 10.6372Q5.46875 11.5264 5.46875 12.5625Q5.46875 13.5986 5.83008 14.4878Q6.22119 15.4502 7.03516 16.2407Q7.77979 16.9639 8.6709 17.3408Q9.63965 17.75 10.7812 17.75Q11.9229 17.75 12.8916 17.3408Q13.7827 16.9639 14.5273 16.2407Q15.3413 15.4502 15.7324 14.4878Q16.0938 13.5986 16.0938 12.5625Q16.0938 11.5264 15.7324 10.6372Q15.3413 9.6748 14.5273 8.88428Q13.7827 8.16113 12.8916 7.78418Q11.9229 7.375 10.7812 7.375Q9.63965 7.375 8.6709 7.78418ZM56.1084 7.78418Q55.2173 8.16113 54.4727 8.88428Q53.6587 9.6748 53.2676 10.6372Q52.9062 11.5264 52.9062 12.5625Q52.9062 13.5986 53.2676 14.4878Q53.6587 15.4502 54.4727 16.2407Q55.2173 16.9639 56.1084 17.3408Q57.0771 17.75 58.2188 17.75Q59.3604 17.75 60.3291 17.3403Q61.2202 16.9639 61.9648 16.2407Q62.7788 15.4502 63.1699 14.4878Q63.5312 13.5986 63.5312 12.5625Q63.5312 11.5264 63.1699 10.6372Q62.7788 9.6748 61.9648 8.88428Q61.2202 8.16113 60.3291 7.78418Q59.3604 7.375 58.2188 7.375Q57.0771 7.375 56.1084 7.78418ZM6.46875 12.5625C6.46875 11.4521 6.92334 10.3867 7.73193 9.60156C8.54053 8.81641 9.6377 8.375 10.7812 8.375C11.9248 8.375 13.022 8.81641 13.8306 9.60156C14.6392 10.3867 15.0938 11.4521 15.0938 12.5625C15.0938 13.6729 14.6392 14.7383 13.8306 15.5234C13.022 16.3086 11.9248 16.75 10.7812 16.75C9.6377 16.75 8.54053 16.3086 7.73193 15.5234C6.92334 14.7383 6.46875 13.6729 6.46875 12.5625ZM58.2188 8.375C57.0752 8.375 55.978 8.81641 55.1694 9.60156C54.3608 10.3867 53.9062 11.4521 53.9062 12.5625C53.9062 13.6729 54.3608 14.7383 55.1694 15.5234C55.978 16.3086 57.0752 16.75 58.2188 16.75C59.3623 16.75 60.4595 16.3086 61.2681 15.5234C62.0767 14.7383 62.5312 13.6729 62.5312 12.5625C62.5312 11.4521 62.0767 10.3867 61.2681 9.60156C60.4595 8.81641 59.3623 8.375 58.2188 8.375ZM62.1235 56.0288Q60.896 56.73 59.5 57.1367Q58.2881 57.4893 57.0562 57.5894Q56.4092 57.6416 55.7563 57.6245Q55.9634 57.0596 56.1377 56.4854Q56.2959 55.9634 56.4277 55.4336Q57.0186 55.4131 57.5981 55.3213Q58.5137 55.1772 59.4014 54.8574Q60.4355 54.4849 61.3389 53.9077Q62.0532 53.4512 62.686 52.8667Q63.4897 52.1245 64.0884 51.2432Q64.5601 50.5488 64.9043 49.7686Q65.3159 48.8364 65.5112 47.8608Q65.6875 46.9795 65.6875 46.0625L65.6875 30.3594Q65.6875 29.9419 65.5405 29.585Q65.3857 29.21 65.0684 28.9019Q64.7729 28.6147 64.4199 28.4678Q64.0469 28.3125 63.6094 28.3125L56.8574 28.3125Q56.7168 27.6138 56.481 26.9487Q56.333 26.5303 56.147 26.125L63.6094 26.125Q64.5762 26.125 65.3921 26.4756Q66.1177 26.7876 66.7241 27.376Q67.4033 28.0356 67.7207 28.8384Q68 29.5435 68 30.3594L68 46.0625Q68 47.2373 67.7646 48.3628Q67.5 49.6304 66.936 50.8359Q66.4775 51.8159 65.8569 52.6792Q65.0342 53.8237 63.9263 54.7632Q63.0757 55.4844 62.1235 56.0288ZM55.0303 26.125C54.8506 25.7788 54.6494 25.4448 54.4282 25.125L63.6094 25.125C66.585 25.125 69 27.4702 69 30.3594L69 46.0625C69 47.8555 68.6055 49.6274 67.8418 51.2593C67.0781 52.8916 65.9634 54.3462 64.5728 55.5259C63.1826 56.7051 61.5479 57.5815 59.7798 58.0967C58.3481 58.5137 56.8555 58.686 55.3682 58.6084C55.0181 58.5898 54.6685 58.5581 54.3203 58.5117C54.46 58.1953 54.5918 57.8755 54.7153 57.5527C55.104 56.5366 55.4102 55.4922 55.6313 54.4292C56.7988 54.4858 57.9663 54.3115 59.0625 53.9165C60.1587 53.522 61.1606 52.9146 62.0078 52.1323C62.8545 51.3496 63.5288 50.4082 63.9897 49.3647C64.4502 48.3213 64.688 47.1978 64.6875 46.0625L64.6875 30.3594C64.6875 30.0815 64.5737 29.8154 64.3716 29.6191C64.1694 29.4229 63.8955 29.3125 63.6094 29.3125L56.002 29.3125C55.8745 28.1777 55.5381 27.1021 55.0303 26.125ZM7.66113 53.9077Q8.56445 54.4849 9.59863 54.8574Q10.4863 55.1772 11.4019 55.3213Q11.9814 55.4131 12.5723 55.4336Q12.7036 55.9634 12.8623 56.4854Q13.0366 57.0596 13.2437 57.6245Q12.5908 57.6416 11.9434 57.5894Q10.7114 57.4893 9.5 57.1367Q8.104 56.73 6.87646 56.0283Q5.92432 55.4844 5.07373 54.7632Q3.96582 53.8237 3.14307 52.6792Q2.52246 51.8159 2.06396 50.8359Q1.50049 49.6309 1.23535 48.3638Q1 47.2378 1 46.0625L1 30.3594Q1 29.5435 1.2793 28.8384Q1.59668 28.0356 2.27588 27.376Q2.88232 26.7876 3.60742 26.4756Q4.42383 26.125 5.39062 26.125L12.855 26.125Q12.6289 26.6177 12.458 27.1289Q12.2646 27.709 12.1431 28.3125L5.39062 28.3125Q4.95312 28.3125 4.58008 28.4678Q4.22705 28.6147 3.93164 28.9019Q3.61426 29.21 3.45947 29.585Q3.3125 29.9419 3.3125 30.3594L3.3125 46.062Q3.3125 46.981 3.48926 47.8638Q3.68457 48.8379 4.0957 49.7686Q4.43994 50.5493 4.91211 51.2437Q5.51074 52.1245 6.31396 52.8667Q6.94678 53.4512 7.66113 53.9077ZM13.3833 25.125L5.39062 25.125C2.41504 25.125 0 27.4702 0 30.3594L0 46.0625C0 47.8555 0.394531 49.6274 1.1582 51.2593C1.92188 52.8916 3.03662 54.3462 4.42725 55.5259C5.81738 56.7051 7.45215 57.5815 9.22021 58.0967C10.6519 58.5137 12.1445 58.686 13.6318 58.6084C13.9819 58.5898 14.3315 58.5581 14.6797 58.5117C14.54 58.1953 14.4082 57.8755 14.2847 57.5527C13.896 56.5366 13.5898 55.4922 13.3687 54.4292C12.2012 54.4858 11.0337 54.3115 9.9375 53.9165C8.84131 53.522 7.83936 52.9146 6.99219 52.1323C6.14551 51.3496 5.47119 50.4082 5.01025 49.3647C4.5498 48.3213 4.31201 47.1978 4.3125 46.0625L4.3125 30.3594C4.3125 30.0815 4.42627 29.8154 4.62842 29.6191C4.83057 29.4229 5.10449 29.3125 5.39062 29.3125L12.998 29.3125C13.1255 28.1777 13.4644 27.1021 13.9717 26.125C14.1514 25.7788 14.3521 25.4448 14.5718 25.125L13.3833 25.125ZM22.6406 25.125C19.665 25.125 17.25 27.4702 17.25 30.3594L17.25 50.25C17.25 54.6924 19.0674 58.9526 22.3022 62.0942C25.5376 65.2354 29.9248 67 34.5 67C39.0752 67 43.4624 65.2354 46.6978 62.0942C49.9326 58.9526 51.75 54.6924 51.75 50.25L51.75 30.3594C51.75 27.4702 49.335 25.125 46.3594 25.125L22.6406 25.125ZM18.25 50.25L18.25 30.3594Q18.25 29.5435 18.5293 28.8384Q18.8467 28.0356 19.5259 27.376Q20.1323 26.7876 20.8574 26.4756Q21.6738 26.125 22.6406 26.125L46.3594 26.125Q47.3262 26.125 48.1426 26.4756Q48.8677 26.7876 49.4741 27.376Q50.1533 28.0356 50.4707 28.8384Q50.75 29.5435 50.75 30.3594L50.75 50.25Q50.75 53.3369 49.6836 55.9966Q48.4995 58.9502 46.001 61.3765Q43.7495 63.5625 41.0562 64.7148Q38.0532 66 34.5 66Q30.9468 66 27.9438 64.7148Q25.2505 63.5625 22.999 61.3765Q20.5005 58.9502 19.3164 55.9966Q18.25 53.3369 18.25 50.25ZM21.8301 28.4678Q21.4771 28.6152 21.1816 28.9019Q20.8643 29.21 20.7095 29.585Q20.5625 29.9419 20.5625 30.3594L20.5625 50.25Q20.5625 52.9351 21.4946 55.2441Q22.5156 57.7729 24.6553 59.8506Q26.5981 61.7373 28.9229 62.7256Q31.4805 63.8125 34.5 63.8125Q37.5195 63.8125 40.0771 62.7256Q42.4019 61.7373 44.3447 59.8506Q46.4844 57.7729 47.5054 55.2441Q48.4375 52.9351 48.4375 50.25L48.4375 30.3594Q48.4375 29.9419 48.2905 29.585Q48.1357 29.21 47.8184 28.9019Q47.5229 28.6147 47.1699 28.4678Q46.7969 28.3125 46.3594 28.3125L22.6406 28.3125Q22.2031 28.3125 21.8301 28.4678ZM21.5625 30.3594C21.5625 30.0815 21.6763 29.8154 21.8784 29.6191C22.0806 29.4229 22.3545 29.3125 22.6406 29.3125L46.3594 29.3125C46.6455 29.3125 46.9194 29.4229 47.1216 29.6191C47.3237 29.8154 47.4375 30.0815 47.4375 30.3594L47.4375 50.25C47.4375 53.5815 46.0742 56.7773 43.6484 59.1328C41.2222 61.4888 37.9312 62.8125 34.5 62.8125C31.0688 62.8125 27.7778 61.4888 25.3516 59.1328C22.9258 56.7773 21.5625 53.5815 21.5625 50.25L21.5625 30.3594Z" fill="#7C5A9E" fill-opacity="1.000000" fill-rule="evenodd"/>
</svg>
