<svg width="46" height="38" viewBox="0 0 46 38" fill="none" xmlns="http://www.w3.org/2000/svg">
<path d="M30.7085 14.365L20.5546 7.81954C20.2997 7.65509 20.0034 7.56065 19.6973 7.54631C19.3912 7.53197 19.0868 7.59827 18.8166 7.73813C18.5465 7.87799 18.3206 8.08616 18.1633 8.34042C18.0059 8.59468 17.9229 8.8855 17.9231 9.18182V22.2727C17.9229 22.569 18.0059 22.8599 18.1633 23.1141C18.3206 23.3684 18.5465 23.5766 18.8166 23.7164C19.0868 23.8563 19.3912 23.9226 19.6973 23.9082C20.0034 23.8939 20.2997 23.7995 20.5546 23.635L30.7085 17.0895C30.9406 16.9402 31.131 16.7377 31.2626 16.5C31.3943 16.2623 31.4632 15.9969 31.4632 15.7273C31.4632 15.4577 31.3943 15.1922 31.2626 14.9546C31.131 14.7169 30.9406 14.5144 30.7085 14.365ZM21.3077 19.2148V12.25L26.7188 15.7273L21.3077 19.2148ZM41.6154 1H4.38462C3.48696 1 2.62607 1.3448 1.99133 1.95856C1.35659 2.57231 1 3.40475 1 4.27273V27.1818C1 28.0498 1.35659 28.8822 1.99133 29.496C2.62607 30.1097 3.48696 30.4545 4.38462 30.4545H41.6154C42.513 30.4545 43.3739 30.1097 44.0087 29.496C44.6434 28.8822 45 28.0498 45 27.1818V4.27273C45 3.40475 44.6434 2.57231 44.0087 1.95856C43.3739 1.3448 42.513 1 41.6154 1ZM41.6154 27.1818H4.38462V4.27273H41.6154V27.1818ZM45 35.3636C45 35.7976 44.8217 36.2138 44.5043 36.5207C44.187 36.8276 43.7565 37 43.3077 37H2.69231C2.24348 37 1.81303 36.8276 1.49567 36.5207C1.1783 36.2138 1 35.7976 1 35.3636C1 34.9296 1.1783 34.5134 1.49567 34.2066C1.81303 33.8997 2.24348 33.7273 2.69231 33.7273H43.3077C43.7565 33.7273 44.187 33.8997 44.5043 34.2066C44.8217 34.5134 45 34.9296 45 35.3636Z" fill="white" stroke="#688AC5"/>
</svg>
