<svg width="67" height="50" viewBox="0 0 67 50" fill="none" xmlns="http://www.w3.org/2000/svg">
<path d="M64.7812 36.3823H61.7734V6.83398C61.7734 5.07472 61.0763 3.38752 59.8353 2.14353C58.5943 0.899547 56.9112 0.200684 55.1562 0.200684H11.8438C10.0888 0.200684 8.40565 0.899547 7.16469 2.14353C5.92373 3.38752 5.22656 5.07472 5.22656 6.83398V36.3823H2.21875C1.74012 36.3823 1.28109 36.5729 0.942643 36.9122C0.604198 37.2515 0.414062 37.7116 0.414062 38.1914V43.0156C0.414063 44.7749 1.11123 46.4621 2.35219 47.7061C3.59316 48.9501 5.27626 49.6489 7.03125 49.6489H59.9688C61.7237 49.6489 63.4068 48.9501 64.6478 47.7061C65.8888 46.4621 66.5859 44.7749 66.5859 43.0156V38.1914C66.5859 37.7116 66.3958 37.2515 66.0574 36.9122C65.7189 36.5729 65.2599 36.3823 64.7812 36.3823ZM8.83594 6.83398C8.83594 6.03432 9.15283 5.26741 9.71691 4.70196C10.281 4.13651 11.046 3.81885 11.8438 3.81885H55.1562C55.954 3.81885 56.719 4.13651 57.2831 4.70196C57.8472 5.26741 58.1641 6.03432 58.1641 6.83398V36.3823H8.83594V6.83398ZM62.9766 43.0156C62.9766 43.8153 62.6597 44.5822 62.0956 45.1477C61.5315 45.7131 60.7665 46.0308 59.9688 46.0308H7.03125C6.23353 46.0308 5.46848 45.7131 4.90441 45.1477C4.34033 44.5822 4.02344 43.8153 4.02344 43.0156V40.0005H62.9766V43.0156ZM40.1172 11.6582C40.1172 12.138 39.9271 12.5981 39.5886 12.9374C39.2502 13.2767 38.7911 13.4673 38.3125 13.4673H28.6875C28.2089 13.4673 27.7498 13.2767 27.4114 12.9374C27.0729 12.5981 26.8828 12.138 26.8828 11.6582C26.8828 11.1784 27.0729 10.7183 27.4114 10.379C27.7498 10.0397 28.2089 9.84912 28.6875 9.84912H38.3125C38.7911 9.84912 39.2502 10.0397 39.5886 10.379C39.9271 10.7183 40.1172 11.1784 40.1172 11.6582Z" fill="white"/>
</svg>
