<svg width="71.341309" height="70.715332" viewBox="0 0 71.3413 70.7153" fill="none" xmlns="http://www.w3.org/2000/svg" xmlns:xlink="http://www.w3.org/1999/xlink">
	<desc>
			Created with Pixso.
	</desc>
	<defs/>
	<path id="Vector" d="M29.7305 61.7188C23.4395 59.6816 18.2524 55.9565 14.1694 50.543C10.0859 45.1318 8.04443 38.9136 8.04443 31.8882C8.04443 30.0562 8.1958 28.2432 8.49902 26.4492C8.80273 24.6523 9.28564 22.8975 9.94824 21.1851L2.35693 25.5635L0.676758 22.5537L14.292 14.6787L22.167 28.2759L19.1357 30.0923L13.8755 20.9927C13.0981 22.7026 12.5264 24.4819 12.1602 26.3301C11.7939 28.1782 11.6108 30.0518 11.6108 31.9512C11.6108 38.2368 13.4819 43.8218 17.2246 48.7056C20.9673 53.5913 25.7427 56.8955 31.5503 58.6177L29.7305 61.7188ZM50.7197 17.8633L50.7197 14.3633L61.1323 14.3633C58.4932 11.041 55.2778 8.48242 51.4863 6.68799C47.6948 4.89844 43.6919 4.00342 39.4775 4.00342C35.7749 4.00342 32.3154 4.66846 29.1001 5.99854C25.8804 7.32617 23.0303 9.1626 20.5498 11.5073L18.7334 8.34717C21.5146 5.89941 24.6611 3.979 28.1729 2.58594C31.6821 1.19531 35.4292 0.5 39.4146 0.5C43.9785 0.5 48.293 1.41699 52.3579 3.25098C56.4224 5.08252 59.9609 7.72168 62.9731 11.168L62.9731 2.11719L66.4731 2.11719L66.4731 17.8672L50.7197 17.8633ZM51.2026 70.0312L37.5879 62.0859L45.4629 48.5586L48.4727 50.3086L43.0127 59.6255C49.9404 58.7227 55.7271 55.646 60.3726 50.396C65.0186 45.146 67.3423 38.9917 67.3447 31.9336C67.3447 30.7085 67.2632 29.5044 67.0996 28.3213C66.9365 27.1387 66.6831 25.9868 66.3403 24.8672L69.9941 24.8672C70.2764 25.9868 70.4888 27.1279 70.6313 28.29C70.7715 29.4497 70.8413 30.6421 70.8413 31.8672C70.8413 39.4736 68.4497 46.1587 63.666 51.9219C58.8804 57.6855 52.792 61.2646 45.3999 62.6602L52.9526 67.021L51.2026 70.0312Z" fill="#FFFFFF" fill-opacity="1.000000" fill-rule="nonzero"/>
	<path id="Vector" d="M14.1694 50.543C10.0859 45.1318 8.04443 38.9136 8.04443 31.8882C8.04443 30.0562 8.1958 28.2432 8.49902 26.4492C8.80273 24.6523 9.28564 22.8975 9.94824 21.1851L2.35693 25.5635L0.676758 22.5537L14.292 14.6787L22.167 28.2759L19.1357 30.0923L13.8755 20.9927C13.0981 22.7026 12.5264 24.4819 12.1602 26.3301C11.7939 28.1782 11.6108 30.0518 11.6108 31.9512C11.6108 38.2368 13.4819 43.8218 17.2246 48.7056C20.9673 53.5913 25.7427 56.8955 31.5503 58.6177L29.7305 61.7188C23.4395 59.6816 18.2524 55.9565 14.1694 50.543ZM50.7197 14.3633L61.1323 14.3633C58.4932 11.041 55.2778 8.48242 51.4863 6.68799C47.6948 4.89844 43.6919 4.00342 39.4775 4.00342C35.7749 4.00342 32.3154 4.66846 29.1001 5.99854C25.8804 7.32617 23.0303 9.1626 20.5498 11.5073L18.7334 8.34717C21.5146 5.89941 24.6611 3.979 28.1729 2.58594C31.6821 1.19531 35.4292 0.5 39.4146 0.5C43.9785 0.5 48.293 1.41699 52.3579 3.25098C56.4224 5.08252 59.9609 7.72168 62.9731 11.168L62.9731 2.11719L66.4731 2.11719L66.4731 17.8672L50.7197 17.8633L50.7197 14.3633ZM37.5879 62.0859L45.4629 48.5586L48.4727 50.3086L43.0127 59.6255C49.9404 58.7227 55.7271 55.646 60.3726 50.396C65.0186 45.146 67.3423 38.9917 67.3447 31.9336C67.3447 30.7085 67.2632 29.5044 67.0996 28.3213C66.9365 27.1387 66.6831 25.9868 66.3403 24.8672L69.9941 24.8672C70.2764 25.9868 70.4888 27.1279 70.6313 28.29C70.7715 29.4497 70.8413 30.6421 70.8413 31.8672C70.8413 39.4736 68.4497 46.1587 63.666 51.9219C58.8804 57.6855 52.792 61.2646 45.3999 62.6602L52.9526 67.021L51.2026 70.0312L37.5879 62.0859Z" stroke="#7C5A9E" stroke-opacity="1.000000" stroke-width="1.000000"/>
</svg>
